G04 ================== begin FILE IDENTIFICATION RECORD ==================*
G04 Layout Name:  Y:/Desktop/LynXLite/BOARD/lynx_lite.brd*
G04 Film Name:    LYNXLITE_06SSB.GBO*
G04 File Format:  Gerber RS274X*
G04 File Origin:  Cadence Allegro 25.1-S020*
G04 Origin Date:  Sun May 17 17:30:24 2026*
G04 *
G04 Layer:  REF DES/SILKSCREEN_BOTTOM*
G04 Layer:  PACKAGE GEOMETRY/SILKSCREEN_BOTTOM*
G04 Layer:  BOARD GEOMETRY/SILKSCREEN_BOTTOM*
G04 *
G04 Offset:    (0.0000 0.0000)*
G04 Mirror:    No*
G04 Mode:      Positive*
G04 Rotation:  0*
G04 FullContactRelief:  No*
G04 UndefLineWidth:     0.1500*
G04 ================== end FILE IDENTIFICATION RECORD ====================*
%FSLAX35Y35*MOMM*%
%IR0*IPPOS*OFA0.00000B0.00000*MIA0B0*SFA1.00000B1.00000*%
%ADD10C,.15*%
%ADD11C,.35*%
%ADD12C,.1524*%
G75*
%LPD*%
G75*
G36*
G01X300000Y2025000D02*
X200000D01*
G02X150000Y2075000I0J50000D01*
G01Y2125000D01*
G02X200000Y2175000I50000J0D01*
G01X300000D01*
G02X350000Y2125000I0J-50000D01*
G01Y2075000D01*
G02X300000Y2025000I-50000J0D01*
G37*
G36*
G01Y3525000D02*
X200000D01*
G02X150000Y3575000I0J50000D01*
G01Y3625000D01*
G02X200000Y3675000I50000J0D01*
G01X300000D01*
G02X350000Y3625000I0J-50000D01*
G01Y3575000D01*
G02X300000Y3525000I-50000J0D01*
G37*
G36*
G01X1500000Y1696230D02*
G03I-25000J1D01*
G37*
G36*
G01X2100000Y3875000D02*
X2050000D01*
Y3825000D01*
Y3814400D01*
X2030300Y3794700D01*
X2025000Y3800000D01*
Y3825000D01*
Y3900000D01*
X2100000D01*
X2125000D01*
X2130300Y3894700D01*
X2110600Y3875000D01*
X2100000D01*
G37*
G36*
G01X4160360Y1125000D02*
G03I-35360J0D01*
G37*
G36*
G01X4200000Y900000D02*
X4350000D01*
Y1050000D01*
X4300000D01*
Y950000D01*
X4200000D01*
Y900000D01*
G37*
G36*
G01X4950000Y1425000D02*
X4825000D01*
Y1450000D01*
X4950000D01*
Y1425000D01*
G37*
G36*
G01X5018030Y1485000D02*
G03I-18030J0D01*
G37*
%LPC*%
G75*
G36*
G01X307500Y2107210D02*
Y2061830D01*
X192500D01*
Y2115730D01*
X201590Y2128460D01*
X214020Y2135090D01*
X228330Y2138360D01*
X243350Y2134930D01*
X256350Y2124530D01*
X256700Y2123540D01*
X264170Y2127120D01*
X278470Y2130400D01*
X291780Y2126840D01*
X300890Y2119570D01*
X307500Y2107210D01*
G37*
G36*
G01X302370Y3592880D02*
X202370Y3559550D01*
G02X200000Y3559170I-2357J7122D01*
G02X192500Y3566670I0J7500D01*
G02X197630Y3573790I7506J0D01*
G01X227500Y3583740D01*
Y3616260D01*
X197630Y3626210D01*
G02X192500Y3633330I2376J7120D01*
G02X200000Y3640830I7500J0D01*
G02X202370Y3640450I13J-7502D01*
G01X302370Y3607120D01*
G02X307500Y3600000I-2376J-7120D01*
G02X302370Y3592880I-7506J0D01*
G37*
%LPD*%
G75*
G36*
G01X245830Y2076830D02*
X207500D01*
Y2110930D01*
X211750Y2116880D01*
X219320Y2120910D01*
X228330Y2122980D01*
X236650Y2121070D01*
X243650Y2115470D01*
X245830Y2109370D01*
Y2076830D01*
G37*
G36*
G01X276280Y3600000D02*
X242500Y3588740D01*
Y3611260D01*
X276280Y3600000D01*
G37*
G36*
G01X292500Y2076830D02*
X260830D01*
Y2107700D01*
X262840Y2109850D01*
X269150Y2112880D01*
X278190Y2114940D01*
X284880Y2113160D01*
X289110Y2109770D01*
X292500Y2103450D01*
Y2076830D01*
G37*
G54D10*
G01X350000Y1100000D02*
Y2125000D01*
G03X300000Y2175000I-50000J0D01*
G01X200000D01*
G03X150000Y2125000I0J-50000D01*
G01Y1100000D01*
G03X200000Y1050000I50000J0D01*
G01X300000D01*
G03X350000Y1100000I0J50000D01*
G01X200000Y1775000D02*
X250000Y1800000D01*
Y1900000D01*
X200000Y1875000D01*
G01X300000Y1850000D02*
X250000D01*
X200000Y1825000D01*
G01X350000Y2075000D02*
G02X300000Y2025000I-50000J0D01*
G01X200000D01*
G02X150000Y2075000I0J50000D01*
G01X350000Y2600000D02*
Y3625000D01*
G03X300000Y3675000I-50000J0D01*
G01X200000D01*
G03X150000Y3625000I0J-50000D01*
G01Y2600000D01*
G03X200000Y2550000I50000J0D01*
G01X300000D01*
G03X350000Y2600000I0J50000D01*
G01X300000Y3350000D02*
X250000D01*
X200000Y3325000D01*
G01Y3275000D02*
X250000Y3300000D01*
Y3400000D01*
X200000Y3375000D01*
G01X350000Y3575000D02*
G02X300000Y3525000I-50000J0D01*
G01X200000D01*
G02X150000Y3575000I0J50000D01*
G01X1012500Y687500D02*
Y662500D01*
X737500D01*
Y687500D01*
G01X1012500Y837500D02*
Y812500D01*
X737500D01*
Y837500D01*
G01X1012500Y762500D02*
Y787500D01*
X737500D01*
Y762500D01*
G01X1012500Y912500D02*
Y937500D01*
X737500D01*
Y912500D01*
G01X812500Y1312500D02*
X787500D01*
Y1037500D01*
X812500D01*
G01Y1337500D02*
X787500D01*
Y1612500D01*
X812500D01*
G01X1377150Y500000D02*
Y400000D01*
X1323810D01*
G01X1266160Y500000D02*
X1234160D01*
G01X1250160D02*
Y400000D01*
G01X1266160D02*
X1234160D01*
G01X1149840Y500000D02*
Y400000D01*
G01X1180510Y500000D02*
X1119170D01*
G01X1022850Y400000D02*
X1076190D01*
Y500000D01*
X1022850D01*
G01X1044190Y451670D02*
X1076190D01*
G01X887500Y1312500D02*
X912500D01*
Y1037500D01*
X887500D01*
G01Y1337500D02*
X912500D01*
Y1612500D01*
X887500D01*
G01X1801120Y300000D02*
Y200000D01*
G01X1831790Y300000D02*
X1770450D01*
G01X1700800Y200000D02*
Y300000D01*
X1716800Y280000D01*
G01Y200000D02*
X1684800D01*
G01X1628480Y213330D02*
X1617810Y205000D01*
X1605810Y200000D01*
X1595150D01*
X1584480Y205000D01*
X1576480Y213330D01*
X1572480Y225000D01*
X1575150Y236660D01*
X1581810Y246670D01*
X1593810Y253330D01*
X1609810Y256670D01*
X1619150Y263330D01*
X1623150Y275000D01*
X1620480Y286670D01*
X1613810Y295000D01*
X1604480Y300000D01*
X1595150D01*
X1585810Y296670D01*
X1577810Y288330D01*
G01X1517490Y233330D02*
X1482830D01*
G01X1426510Y200000D02*
Y300000D01*
X1394510D01*
X1383840Y295000D01*
X1375840Y283330D01*
X1373170Y270000D01*
X1375840Y256670D01*
X1382510Y246670D01*
X1394510Y241660D01*
X1426510D01*
G01X1299520Y200000D02*
X1307520Y201670D01*
X1315520Y208330D01*
X1320850Y220000D01*
X1323520Y233330D01*
X1320850Y246670D01*
X1315520Y258330D01*
X1307520Y265000D01*
X1299520Y266660D01*
X1291520Y265000D01*
X1283520Y258330D01*
X1278190Y246670D01*
X1276850Y233330D01*
X1278190Y220000D01*
X1283520Y208330D01*
X1291520Y201670D01*
X1299520Y200000D01*
G01X1228530D02*
Y300000D01*
X1201870D01*
X1191200Y295000D01*
X1183200Y288330D01*
X1176530Y278330D01*
X1171200Y266660D01*
X1169870Y250000D01*
X1171200Y233330D01*
X1176530Y221670D01*
X1183200Y211660D01*
X1191200Y205000D01*
X1201870Y200000D01*
X1228530D01*
G01X1125550Y300000D02*
Y200000D01*
X1072210D01*
G01X1404290Y1643200D02*
X1156800Y1395710D01*
Y1254290D01*
X1404290Y1006800D01*
X1545710D01*
X1793200Y1254290D01*
Y1395710D01*
X1545710Y1643200D01*
X1404290D01*
G01X1475000Y4175000D02*
X1350000D01*
Y3725000D01*
X1475000D01*
G01X1886670Y500000D02*
Y400000D01*
X1833330D01*
G01X1759680D02*
Y445000D01*
X1786350Y500000D01*
G01X1733010D02*
X1759680Y445000D01*
G01X1690030Y400000D02*
Y500000D01*
X1628690Y400000D01*
Y500000D01*
G01X1587040Y400000D02*
X1531040Y500000D01*
G01X1587040D02*
X1531040Y400000D01*
G01X1587500Y2387500D02*
X1612500D01*
Y2025000D01*
X1587500D01*
G01X1462500Y2387500D02*
X1437500D01*
Y2025000D01*
X1462500D01*
G01X1587500Y2975000D02*
X1612500D01*
Y2612500D01*
X1587500D01*
G01X1462500Y2975000D02*
X1437500D01*
Y2612500D01*
X1462500D01*
G01X1435000Y3670000D02*
Y3030000D01*
X1575000D01*
G01X1525000Y4175000D02*
X1650000D01*
Y3725000D01*
X1525000D01*
G01X1435000Y3670000D02*
X1575000D01*
G01X1787500Y2387500D02*
X1812500D01*
Y2025000D01*
X1787500D01*
G01X1662500Y2387500D02*
X1637500D01*
Y2025000D01*
X1662500D01*
G01X1787500Y2975000D02*
X1812500D01*
Y2612500D01*
X1787500D01*
G01X1662500Y2975000D02*
X1637500D01*
Y2612500D01*
X1662500D01*
G01X1815000Y3030000D02*
X1675000D01*
G01X1815000D02*
Y3670000D01*
G01X1800000Y4175000D02*
X1675000D01*
Y3725000D01*
X1800000D01*
G01X1815000Y3670000D02*
X1675000D01*
G01X1937500Y3662500D02*
X1962500D01*
Y3387500D01*
X1937500D01*
G01X1862500Y3662500D02*
X1837500D01*
Y3387500D01*
X1862500D01*
G01X1850000Y4175000D02*
X1975000D01*
Y3725000D01*
X1850000D01*
G01X2265000Y550000D02*
X2165000D01*
G01X2225500Y600000D02*
X2200500D01*
G01X2244250Y575000D02*
X2181750D01*
G01X2187500Y2237500D02*
X2212500D01*
Y1962500D01*
X2187500D01*
G01X2112500Y2237500D02*
X2087500D01*
Y1962500D01*
X2112500D01*
G01X2187500Y2737500D02*
X2212500D01*
Y2462500D01*
X2187500D01*
G01X2112500Y2737500D02*
X2087500D01*
Y2462500D01*
X2112500D01*
G01X2025000Y3550000D02*
Y3450000D01*
X2125000D01*
G01Y3900000D02*
X2025000D01*
Y3800000D01*
G01X2215000Y475000D02*
Y550000D01*
G01X2387500Y1262500D02*
Y1237500D01*
X2662500D01*
Y1262500D01*
G01X2387500Y1187500D02*
Y1212500D01*
X2662500D01*
Y1187500D01*
G01X2387500Y1112500D02*
Y1087500D01*
X2662500D01*
Y1112500D01*
G01X2387500Y1337500D02*
Y1362500D01*
X2662500D01*
Y1337500D01*
G01X2387500Y1412500D02*
Y1387500D01*
X2662500D01*
Y1412500D01*
G01X2387500Y1637500D02*
Y1662500D01*
X2662500D01*
Y1637500D01*
G01X2387500Y1562500D02*
Y1537500D01*
X2662500D01*
Y1562500D01*
G01X2387500Y1487500D02*
Y1512500D01*
X2662500D01*
Y1487500D01*
G01X2575000Y3550000D02*
Y3450000D01*
X2475000D01*
G01Y3900000D02*
X2575000D01*
Y3800000D01*
G01X2962500Y1262500D02*
Y1237500D01*
X2687500D01*
Y1262500D01*
G01X2962500Y1112500D02*
Y1087500D01*
X2687500D01*
Y1112500D01*
G01X2962500Y1187500D02*
Y1212500D01*
X2687500D01*
Y1187500D01*
G01X2962500Y1412500D02*
Y1387500D01*
X2687500D01*
Y1412500D01*
G01X2962500Y1337500D02*
Y1362500D01*
X2687500D01*
Y1337500D01*
G01X2962500Y1487500D02*
Y1512500D01*
X2687500D01*
Y1487500D01*
G01X2962500Y1562500D02*
Y1537500D01*
X2687500D01*
Y1562500D01*
G01X2962500Y1637500D02*
Y1662500D01*
X2687500D01*
Y1637500D01*
G01X3150000Y3700000D02*
Y3100000D01*
X2650000D01*
Y3700000D01*
X3150000D01*
G01Y4350000D02*
Y3750000D01*
X2650000D01*
Y4350000D01*
X3150000D01*
G01X3212500Y3287500D02*
X3187500D01*
Y3562500D01*
X3212500D01*
G01Y4162500D02*
X3187500D01*
Y3887500D01*
X3212500D01*
G01X3350000Y1050000D02*
Y900000D01*
X3500000D01*
G01Y1900000D02*
X3350000D01*
Y1750000D01*
G01X3287500Y3287500D02*
X3312500D01*
Y3562500D01*
X3287500D01*
G01X3362500Y3287500D02*
X3337500D01*
Y3562500D01*
X3362500D01*
G01Y4162500D02*
X3337500D01*
Y3887500D01*
X3362500D01*
G01X3287500Y4162500D02*
X3312500D01*
Y3887500D01*
X3287500D01*
G01X3537500Y2562500D02*
X3512500D01*
Y2837500D01*
X3537500D01*
G01X3437500Y3287500D02*
X3462500D01*
Y3562500D01*
X3437500D01*
G01X3625000Y3700000D02*
X3500000D01*
Y3250000D01*
X3625000D01*
G01Y3750000D02*
X3500000D01*
Y4200000D01*
X3625000D01*
G01X3437500Y4162500D02*
X3462500D01*
Y3887500D01*
X3437500D01*
G01X3659840Y518930D02*
X3642160Y501250D01*
X3836610Y306800D01*
X3854290Y324480D01*
G01X3712870Y571960D02*
X3730550Y589640D01*
X3925000Y395190D01*
X3907320Y377510D01*
G01X3801260Y554290D02*
X3748220Y607320D01*
X3810100Y669190D01*
G01X3612500Y2562500D02*
X3637500D01*
Y2837500D01*
X3612500D01*
G01X3687500Y2562500D02*
X3662500D01*
Y2837500D01*
X3687500D01*
G01X3762500Y2562500D02*
X3787500D01*
Y2837500D01*
X3762500D01*
G01X3675000Y3700000D02*
X3800000D01*
Y3250000D01*
X3675000D01*
G01Y3750000D02*
X3800000D01*
Y4200000D01*
X3675000D01*
G01X4137130Y607320D02*
X4119450Y625000D01*
X3925000Y430550D01*
X3942680Y412870D01*
G01X3854290Y501260D02*
X3907320Y448220D01*
X3969190Y510100D01*
G01X3995710Y748740D02*
X3942680Y801780D01*
X3880810Y739900D01*
G01X3987500Y2562500D02*
X3962500D01*
Y2837500D01*
X3987500D01*
G01X3837500Y2562500D02*
X3812500D01*
Y2837500D01*
X3837500D01*
G01X3912500Y2562500D02*
X3937500D01*
Y2837500D01*
X3912500D01*
G01X4190160Y554290D02*
X4207840Y536610D01*
X4013390Y342160D01*
X3995710Y359840D01*
G01X4048740Y695710D02*
X4101780Y642680D01*
X4039900Y580810D01*
G01X4062500Y2562500D02*
X4087500D01*
Y2837500D01*
X4062500D01*
G01X4162500Y2562500D02*
X4137500D01*
Y2837500D01*
X4162500D01*
G01X4200000Y900000D02*
X4350000D01*
Y1050000D01*
X4300000D01*
Y950000D01*
X4200000D01*
Y900000D01*
G01X4350000Y1750000D02*
Y1900000D01*
X4200000D01*
G01X4237500Y2562500D02*
X4262500D01*
Y2837500D01*
X4237500D01*
G01X4562500Y2587500D02*
Y2562500D01*
X4287500D01*
Y2587500D01*
G01Y2812500D02*
Y2837500D01*
X4562500D01*
Y2812500D01*
G01X4287500Y2737500D02*
Y2712500D01*
X4562500D01*
Y2737500D01*
G01Y2662500D02*
Y2687500D01*
X4287500D01*
Y2662500D01*
G01X4344000Y3698000D02*
X4444000D01*
G01X4625000Y650000D02*
X4475000D01*
Y300000D01*
X4625000D01*
G01X4394000Y3773000D02*
Y3698000D01*
G01X4383500Y3648000D02*
X4408500D01*
G01X4364750Y3673000D02*
X4427250D01*
G01X4725000Y650000D02*
X4875000D01*
Y300000D01*
X4725000D01*
G01X4719000Y590000D02*
G03X4726000Y583000I7000J0D01*
G03X4733000Y590000I0J7000D01*
G03X4726000Y597000I-7000J0D01*
G03X4719000Y590000I0J-7000D01*
G01X5162500Y1287500D02*
Y1262500D01*
X4887500D01*
Y1287500D01*
G01X5162500Y1362500D02*
Y1387500D01*
X4887500D01*
Y1362500D01*
G01X4950000Y1425000D02*
Y1450000D01*
X4825000D01*
G01Y1550000D02*
Y1425000D01*
X4950000D01*
G01X4825000Y1650000D02*
Y1775000D01*
X4950000D01*
G01X5225000Y1550000D02*
Y1425000D01*
X5100000D01*
G01X5225000Y1650000D02*
Y1775000D01*
X5100000D01*
G01X5300000Y3077000D02*
X5375000D01*
G01Y3027000D02*
Y3127000D01*
G01X5425000Y3066500D02*
Y3091500D01*
G01X5400000Y3047750D02*
Y3110250D01*
G54D11*
G01X5421000Y-778670D02*
X5439670Y-792000D01*
X5460670Y-800000D01*
X5479330D01*
X5498000Y-792000D01*
X5512000Y-778670D01*
X5519000Y-760000D01*
X5514330Y-741340D01*
X5502670Y-725330D01*
X5481670Y-714670D01*
X5453670Y-709330D01*
X5437330Y-698670D01*
X5430330Y-680000D01*
X5435000Y-661330D01*
X5446670Y-648000D01*
X5463000Y-640000D01*
X5479330D01*
X5495670Y-645330D01*
X5509670Y-658670D01*
G01X5652000Y-640000D02*
X5708000D01*
G01X5680000D02*
Y-800000D01*
G01X5652000D02*
X5708000D01*
G01X5843330Y-640000D02*
Y-800000D01*
X5936670D01*
G01X6048670D02*
Y-640000D01*
G01X6137330D02*
X6048670Y-738670D01*
G01X6151330Y-800000D02*
X6088330Y-693340D01*
G01X6261000Y-778670D02*
X6279670Y-792000D01*
X6300670Y-800000D01*
X6319330D01*
X6338000Y-792000D01*
X6352000Y-778670D01*
X6359000Y-760000D01*
X6354330Y-741340D01*
X6342670Y-725330D01*
X6321670Y-714670D01*
X6293670Y-709330D01*
X6277330Y-698670D01*
X6270330Y-680000D01*
X6275000Y-661330D01*
X6286670Y-648000D01*
X6303000Y-640000D01*
X6319330D01*
X6335670Y-645330D01*
X6349670Y-658670D01*
G01X6571330Y-653340D02*
X6557330Y-645330D01*
X6541000Y-640000D01*
X6522330D01*
X6501330Y-648000D01*
X6485000Y-661330D01*
X6473330Y-677340D01*
X6464000Y-704000D01*
X6461660Y-728000D01*
X6466330Y-752000D01*
X6473330Y-768000D01*
X6487330Y-784000D01*
X6503670Y-794670D01*
X6520000Y-800000D01*
X6536330D01*
X6552670Y-794670D01*
X6566670Y-786670D01*
X6578340Y-776010D01*
G01X6683330Y-800000D02*
Y-640000D01*
X6741670D01*
X6760330Y-648000D01*
X6772000Y-658670D01*
X6776670Y-680000D01*
X6772000Y-701330D01*
X6758000Y-714670D01*
X6741670Y-722670D01*
X6683330D01*
G01X6741670D02*
X6776670Y-800000D01*
G01X6986670D02*
X6893330D01*
Y-640000D01*
X6986670D01*
G01X6949330Y-717330D02*
X6893330D01*
G01X7196670Y-800000D02*
X7103330D01*
Y-640000D01*
X7196670D01*
G01X7159330Y-717330D02*
X7103330D01*
G01X7306330Y-800000D02*
Y-640000D01*
X7413670Y-800000D01*
Y-640000D01*
G01X7798660Y-714670D02*
X7808000Y-706670D01*
X7815000Y-693340D01*
X7819670Y-674660D01*
X7815000Y-658670D01*
X7805670Y-648000D01*
X7789330Y-640000D01*
X7726330D01*
Y-800000D01*
X7803330D01*
X7819670Y-789340D01*
X7829000Y-773330D01*
X7833670Y-754670D01*
X7829000Y-736000D01*
X7815000Y-720000D01*
X7798660Y-714670D01*
X7726330D01*
G01X7990000Y-800000D02*
X7971330Y-797330D01*
X7955000Y-786670D01*
X7941000Y-770670D01*
X7931660Y-752000D01*
X7927000Y-730670D01*
Y-709330D01*
X7931660Y-688000D01*
X7941000Y-669330D01*
X7955000Y-653340D01*
X7971330Y-642670D01*
X7990000Y-640000D01*
X8008660Y-642670D01*
X8025000Y-653340D01*
X8039000Y-669330D01*
X8048340Y-688000D01*
X8053000Y-709330D01*
Y-730670D01*
X8048340Y-752000D01*
X8039000Y-770670D01*
X8025000Y-786670D01*
X8008660Y-797330D01*
X7990000Y-800000D01*
G01X8200000Y-640000D02*
Y-800000D01*
G01X8146330Y-640000D02*
X8253670D01*
G01X8410000D02*
Y-800000D01*
G01X8356330Y-640000D02*
X8463670D01*
G01X8620000Y-800000D02*
X8601330Y-797330D01*
X8585000Y-786670D01*
X8571000Y-770670D01*
X8561660Y-752000D01*
X8557000Y-730670D01*
Y-709330D01*
X8561660Y-688000D01*
X8571000Y-669330D01*
X8585000Y-653340D01*
X8601330Y-642670D01*
X8620000Y-640000D01*
X8638660Y-642670D01*
X8655000Y-653340D01*
X8669000Y-669330D01*
X8678340Y-688000D01*
X8683000Y-709330D01*
Y-730670D01*
X8678340Y-752000D01*
X8669000Y-770670D01*
X8655000Y-786670D01*
X8638660Y-797330D01*
X8620000Y-800000D01*
G01X8769330D02*
Y-640000D01*
X8830000Y-773330D01*
X8890670Y-640000D01*
Y-800000D01*
G54D12*
G01X210630Y1130530D02*
X289370D01*
Y1153890D01*
X285430Y1161680D01*
X276250Y1167530D01*
X265750Y1169470D01*
X255250Y1167530D01*
X247370Y1162660D01*
X243440Y1153890D01*
Y1130530D01*
G01X210630Y1477610D02*
X289370D01*
X210630Y1522390D01*
X289370D01*
G01X210630Y2630530D02*
X289370D01*
Y2653890D01*
X285430Y2661680D01*
X276250Y2667530D01*
X265750Y2669470D01*
X255250Y2667530D01*
X247370Y2662660D01*
X243440Y2653890D01*
Y2630530D01*
G01X210630Y2977610D02*
X289370D01*
X210630Y3022390D01*
X289370D01*
G01X660630Y1266160D02*
X739370D01*
Y1290500D01*
X735430Y1298290D01*
X730180Y1303160D01*
X719680Y1305100D01*
X709190Y1303160D01*
X702630Y1297310D01*
X698690Y1290500D01*
Y1266160D01*
G01Y1290500D02*
X660630Y1305100D01*
G01X739370Y1364370D02*
X660630D01*
G01X739370Y1341980D02*
Y1386760D01*
G01X1273210Y685630D02*
Y764370D01*
X1248870D01*
X1241080Y760430D01*
X1236210Y755180D01*
X1234270Y744680D01*
X1236210Y734190D01*
X1242060Y727630D01*
X1248870Y723690D01*
X1273210D01*
G01X1248870D02*
X1234270Y685630D01*
G01X1175000D02*
Y764370D01*
X1186680Y748620D01*
G01Y685630D02*
X1163320D01*
G01X1114760Y751250D02*
X1108920Y759120D01*
X1102100Y763060D01*
X1094310Y764370D01*
X1084580Y761750D01*
X1077760Y755180D01*
X1075810Y747310D01*
X1076790Y739430D01*
X1080680Y732870D01*
X1100150Y719750D01*
X1108920Y710560D01*
X1114760Y697440D01*
X1116710Y685630D01*
X1075810D01*
G01X1232320Y907810D02*
X1238160Y911750D01*
X1244980Y914370D01*
X1252770D01*
X1261530Y910430D01*
X1268340Y903870D01*
X1273210Y896000D01*
X1277110Y882870D01*
X1278080Y871060D01*
X1276130Y859250D01*
X1273210Y851380D01*
X1267370Y843500D01*
X1260560Y838250D01*
X1253740Y835630D01*
X1246920D01*
X1240110Y838250D01*
X1234270Y842190D01*
X1229400Y847440D01*
G01X1196420Y851380D02*
X1190580Y842190D01*
X1182790Y836940D01*
X1174030Y835630D01*
X1166240Y836940D01*
X1158450Y843500D01*
X1153580Y851380D01*
X1152610Y859250D01*
X1154550Y868440D01*
X1161370Y875000D01*
X1168180Y877630D01*
X1176950D01*
G01X1168180D02*
X1162340Y881560D01*
X1157470Y888120D01*
X1155530Y896000D01*
X1157470Y903870D01*
X1162340Y910430D01*
X1171110Y914370D01*
X1179870Y913060D01*
X1188630Y907810D01*
G01X1117680Y851380D02*
X1111840Y842190D01*
X1104050Y836940D01*
X1095290Y835630D01*
X1087500Y836940D01*
X1079710Y843500D01*
X1074840Y851380D01*
X1073870Y859250D01*
X1075810Y868440D01*
X1082630Y875000D01*
X1089440Y877630D01*
X1098210D01*
G01X1089440D02*
X1083600Y881560D01*
X1078730Y888120D01*
X1076790Y896000D01*
X1078730Y903870D01*
X1083600Y910430D01*
X1092370Y914370D01*
X1101130Y913060D01*
X1109890Y907810D01*
G01X1301270Y1731940D02*
X1356950Y1676270D01*
X1329410Y1648730D01*
G01X1279230Y1598550D02*
X1223560Y1654230D01*
X1288930Y1639800D01*
X1254510Y1605380D01*
G01X1389370Y2160790D02*
X1310630D01*
Y2141320D01*
X1314570Y2133530D01*
X1319820Y2127690D01*
X1327690Y2122820D01*
X1336880Y2118920D01*
X1350000Y2117950D01*
X1363120Y2118920D01*
X1372310Y2122820D01*
X1380190Y2127690D01*
X1385430Y2133530D01*
X1389370Y2141320D01*
Y2160790D01*
G01X1377560Y2082050D02*
X1384120Y2076210D01*
X1388060Y2069390D01*
X1389370Y2060630D01*
X1386750Y2051870D01*
X1381500Y2045050D01*
X1372310Y2040180D01*
X1361810Y2039210D01*
X1351310Y2041160D01*
X1344750Y2046030D01*
X1339500Y2052840D01*
X1338190Y2059660D01*
X1339500Y2066470D01*
X1344750Y2075230D01*
X1310630Y2072310D01*
Y2046030D01*
G01X1317190Y2557320D02*
X1313250Y2563160D01*
X1310630Y2569980D01*
Y2577770D01*
X1314570Y2586530D01*
X1321130Y2593340D01*
X1329000Y2598210D01*
X1342130Y2602110D01*
X1353940Y2603080D01*
X1365750Y2601130D01*
X1373620Y2598210D01*
X1381500Y2592370D01*
X1386750Y2585560D01*
X1389370Y2578740D01*
Y2571920D01*
X1386750Y2565110D01*
X1382810Y2559270D01*
X1377560Y2554400D01*
G01X1373620Y2521420D02*
X1382810Y2515580D01*
X1388060Y2507790D01*
X1389370Y2499030D01*
X1388060Y2491240D01*
X1381500Y2483450D01*
X1373620Y2478580D01*
X1365750Y2477610D01*
X1356560Y2479550D01*
X1350000Y2486370D01*
X1347370Y2493180D01*
Y2501950D01*
G01Y2493180D02*
X1343440Y2487340D01*
X1336880Y2482470D01*
X1329000Y2480530D01*
X1321130Y2482470D01*
X1314570Y2487340D01*
X1310630Y2496110D01*
X1311940Y2504870D01*
X1317190Y2513630D01*
G01X1323750Y2439760D02*
X1315880Y2433920D01*
X1311940Y2427100D01*
X1310630Y2419310D01*
X1313250Y2409580D01*
X1319820Y2402760D01*
X1327690Y2400810D01*
X1335570Y2401790D01*
X1342130Y2405680D01*
X1355250Y2425150D01*
X1364440Y2433920D01*
X1377560Y2439760D01*
X1389370Y2441710D01*
Y2400810D01*
G01Y2960790D02*
X1310630D01*
Y2941320D01*
X1314570Y2933530D01*
X1319820Y2927690D01*
X1327690Y2922820D01*
X1336880Y2918920D01*
X1350000Y2917950D01*
X1363120Y2918920D01*
X1372310Y2922820D01*
X1380190Y2927690D01*
X1385430Y2933530D01*
X1389370Y2941320D01*
Y2960790D01*
G01X1373620Y2882050D02*
X1382810Y2876210D01*
X1388060Y2868420D01*
X1389370Y2859660D01*
X1388060Y2851870D01*
X1381500Y2844080D01*
X1373620Y2839210D01*
X1365750Y2838240D01*
X1356560Y2840180D01*
X1350000Y2847000D01*
X1347370Y2853810D01*
Y2862580D01*
G01Y2853810D02*
X1343440Y2847970D01*
X1336880Y2843100D01*
X1329000Y2841160D01*
X1321130Y2843100D01*
X1314570Y2847970D01*
X1310630Y2856740D01*
X1311940Y2865500D01*
X1317190Y2874260D01*
G01X1382870Y3585630D02*
Y3664370D01*
X1345870D01*
G01X1359500Y3626310D02*
X1382870D01*
G01X1285630Y3585630D02*
Y3664370D01*
X1297310Y3648620D01*
G01Y3585630D02*
X1273950D01*
G01X1557320Y4307810D02*
X1563160Y4311750D01*
X1569980Y4314370D01*
X1577770D01*
X1586530Y4310430D01*
X1593340Y4303870D01*
X1598210Y4296000D01*
X1602110Y4282870D01*
X1603080Y4271060D01*
X1601130Y4259250D01*
X1598210Y4251380D01*
X1592370Y4243500D01*
X1585560Y4238250D01*
X1578740Y4235630D01*
X1571920D01*
X1565110Y4238250D01*
X1559270Y4242190D01*
X1554400Y4247440D01*
G01X1500000Y4235630D02*
Y4314370D01*
X1511680Y4298620D01*
G01Y4235630D02*
X1488320D01*
G01X1421260Y4314370D02*
X1429050Y4311750D01*
X1434890Y4305180D01*
X1438790Y4297310D01*
X1441710Y4286810D01*
X1442680Y4275000D01*
X1441710Y4263190D01*
X1438790Y4252690D01*
X1434890Y4244810D01*
X1429050Y4238250D01*
X1421260Y4235630D01*
X1413470Y4238250D01*
X1407630Y4244810D01*
X1403730Y4252690D01*
X1400810Y4263190D01*
X1399840Y4275000D01*
X1400810Y4286810D01*
X1403730Y4297310D01*
X1407630Y4305180D01*
X1413470Y4311750D01*
X1421260Y4314370D01*
G01X1440850Y2461900D02*
Y2411100D01*
X1809150D01*
Y2461900D01*
G01X1440850Y2538100D02*
Y2588900D01*
X1809150D01*
Y2538100D01*
G01X1882320Y4307810D02*
X1888160Y4311750D01*
X1894980Y4314370D01*
X1902770D01*
X1911530Y4310430D01*
X1918340Y4303870D01*
X1923210Y4296000D01*
X1927110Y4282870D01*
X1928080Y4271060D01*
X1926130Y4259250D01*
X1923210Y4251380D01*
X1917370Y4243500D01*
X1910560Y4238250D01*
X1903740Y4235630D01*
X1896920D01*
X1890110Y4238250D01*
X1884270Y4242190D01*
X1879400Y4247440D01*
G01X1825000Y4235630D02*
Y4314370D01*
X1836680Y4298620D01*
G01Y4235630D02*
X1813320D01*
G01X1746260D02*
Y4314370D01*
X1757940Y4298620D01*
G01Y4235630D02*
X1734580D01*
G01X2007320Y1332810D02*
X2013160Y1336750D01*
X2019980Y1339370D01*
X2027770D01*
X2036530Y1335430D01*
X2043340Y1328870D01*
X2048210Y1321000D01*
X2052110Y1307870D01*
X2053080Y1296060D01*
X2051130Y1284250D01*
X2048210Y1276380D01*
X2042370Y1268500D01*
X2035560Y1263250D01*
X2028740Y1260630D01*
X2021920D01*
X2015110Y1263250D01*
X2009270Y1267190D01*
X2004400Y1272440D01*
G01X1968500Y1326250D02*
X1962660Y1334120D01*
X1955840Y1338060D01*
X1948050Y1339370D01*
X1938320Y1336750D01*
X1931500Y1330180D01*
X1929550Y1322310D01*
X1930530Y1314430D01*
X1934420Y1307870D01*
X1953890Y1294750D01*
X1962660Y1285560D01*
X1968500Y1272440D01*
X1970450Y1260630D01*
X1929550D01*
G01X1871260Y1339370D02*
X1879050Y1336750D01*
X1884890Y1330180D01*
X1888790Y1322310D01*
X1891710Y1311810D01*
X1892680Y1300000D01*
X1891710Y1288190D01*
X1888790Y1277690D01*
X1884890Y1269810D01*
X1879050Y1263250D01*
X1871260Y1260630D01*
X1863470Y1263250D01*
X1857630Y1269810D01*
X1853730Y1277690D01*
X1850810Y1288190D01*
X1849840Y1300000D01*
X1850810Y1311810D01*
X1853730Y1322310D01*
X1857630Y1330180D01*
X1863470Y1336750D01*
X1871260Y1339370D01*
G01X2007320Y1182810D02*
X2013160Y1186750D01*
X2019980Y1189370D01*
X2027770D01*
X2036530Y1185430D01*
X2043340Y1178870D01*
X2048210Y1171000D01*
X2052110Y1157870D01*
X2053080Y1146060D01*
X2051130Y1134250D01*
X2048210Y1126380D01*
X2042370Y1118500D01*
X2035560Y1113250D01*
X2028740Y1110630D01*
X2021920D01*
X2015110Y1113250D01*
X2009270Y1117190D01*
X2004400Y1122440D01*
G01X1968500Y1176250D02*
X1962660Y1184120D01*
X1955840Y1188060D01*
X1948050Y1189370D01*
X1938320Y1186750D01*
X1931500Y1180180D01*
X1929550Y1172310D01*
X1930530Y1164430D01*
X1934420Y1157870D01*
X1953890Y1144750D01*
X1962660Y1135560D01*
X1968500Y1122440D01*
X1970450Y1110630D01*
X1929550D01*
G01X1871260D02*
Y1189370D01*
X1882940Y1173620D01*
G01Y1110630D02*
X1859580D01*
G01X2007320Y1482810D02*
X2013160Y1486750D01*
X2019980Y1489370D01*
X2027770D01*
X2036530Y1485430D01*
X2043340Y1478870D01*
X2048210Y1471000D01*
X2052110Y1457870D01*
X2053080Y1446060D01*
X2051130Y1434250D01*
X2048210Y1426380D01*
X2042370Y1418500D01*
X2035560Y1413250D01*
X2028740Y1410630D01*
X2021920D01*
X2015110Y1413250D01*
X2009270Y1417190D01*
X2004400Y1422440D01*
G01X1968500Y1476250D02*
X1962660Y1484120D01*
X1955840Y1488060D01*
X1948050Y1489370D01*
X1938320Y1486750D01*
X1931500Y1480180D01*
X1929550Y1472310D01*
X1930530Y1464430D01*
X1934420Y1457870D01*
X1953890Y1444750D01*
X1962660Y1435560D01*
X1968500Y1422440D01*
X1970450Y1410630D01*
X1929550D01*
G01X1892680Y1426380D02*
X1886840Y1417190D01*
X1879050Y1411940D01*
X1870290Y1410630D01*
X1862500Y1411940D01*
X1854710Y1418500D01*
X1849840Y1426380D01*
X1848870Y1434250D01*
X1850810Y1443440D01*
X1857630Y1450000D01*
X1864440Y1452630D01*
X1873210D01*
G01X1864440D02*
X1858600Y1456560D01*
X1853730Y1463120D01*
X1851790Y1471000D01*
X1853730Y1478870D01*
X1858600Y1485430D01*
X1867370Y1489370D01*
X1876130Y1488060D01*
X1884890Y1482810D01*
G01X2007320Y1632810D02*
X2013160Y1636750D01*
X2019980Y1639370D01*
X2027770D01*
X2036530Y1635430D01*
X2043340Y1628870D01*
X2048210Y1621000D01*
X2052110Y1607870D01*
X2053080Y1596060D01*
X2051130Y1584250D01*
X2048210Y1576380D01*
X2042370Y1568500D01*
X2035560Y1563250D01*
X2028740Y1560630D01*
X2021920D01*
X2015110Y1563250D01*
X2009270Y1567190D01*
X2004400Y1572440D01*
G01X1968500Y1626250D02*
X1962660Y1634120D01*
X1955840Y1638060D01*
X1948050Y1639370D01*
X1938320Y1636750D01*
X1931500Y1630180D01*
X1929550Y1622310D01*
X1930530Y1614430D01*
X1934420Y1607870D01*
X1953890Y1594750D01*
X1962660Y1585560D01*
X1968500Y1572440D01*
X1970450Y1560630D01*
X1929550D01*
G01X1889760Y1626250D02*
X1883920Y1634120D01*
X1877100Y1638060D01*
X1869310Y1639370D01*
X1859580Y1636750D01*
X1852760Y1630180D01*
X1850810Y1622310D01*
X1851790Y1614430D01*
X1855680Y1607870D01*
X1875150Y1594750D01*
X1883920Y1585560D01*
X1889760Y1572440D01*
X1891710Y1560630D01*
X1850810D01*
G01X1939370Y2160790D02*
X1860630D01*
Y2141320D01*
X1864570Y2133530D01*
X1869820Y2127690D01*
X1877690Y2122820D01*
X1886880Y2118920D01*
X1900000Y2117950D01*
X1913120Y2118920D01*
X1922310Y2122820D01*
X1930190Y2127690D01*
X1935430Y2133530D01*
X1939370Y2141320D01*
Y2160790D01*
G01X1906560Y2079130D02*
X1897370Y2072310D01*
X1892130Y2066470D01*
X1889500Y2058680D01*
X1892130Y2051870D01*
X1897370Y2047000D01*
X1905250Y2043100D01*
X1914440Y2042130D01*
X1922310Y2043100D01*
X1930190Y2047000D01*
X1936750Y2052840D01*
X1939370Y2059660D01*
X1936750Y2067450D01*
X1928870Y2074260D01*
X1917060Y2078160D01*
X1903940Y2079130D01*
X1886880Y2077180D01*
X1877690Y2074260D01*
X1868500Y2069390D01*
X1861940Y2062580D01*
X1860630Y2055760D01*
X1863250Y2048950D01*
X1869820Y2044080D01*
G01X1939370Y2960790D02*
X1860630D01*
Y2941320D01*
X1864570Y2933530D01*
X1869820Y2927690D01*
X1877690Y2922820D01*
X1886880Y2918920D01*
X1900000Y2917950D01*
X1913120Y2918920D01*
X1922310Y2922820D01*
X1930190Y2927690D01*
X1935430Y2933530D01*
X1939370Y2941320D01*
Y2960790D01*
G01Y2848950D02*
X1860630D01*
X1917060Y2884970D01*
Y2836290D01*
G01X1867190Y3257320D02*
X1863250Y3263160D01*
X1860630Y3269980D01*
Y3277770D01*
X1864570Y3286530D01*
X1871130Y3293340D01*
X1879000Y3298210D01*
X1892130Y3302110D01*
X1903940Y3303080D01*
X1915750Y3301130D01*
X1923620Y3298210D01*
X1931500Y3292370D01*
X1936750Y3285560D01*
X1939370Y3278740D01*
Y3271920D01*
X1936750Y3265110D01*
X1932810Y3259270D01*
X1927560Y3254400D01*
G01X1939370Y3200000D02*
X1860630D01*
X1876380Y3211680D01*
G01X1939370D02*
Y3188320D01*
G01X1873750Y3139760D02*
X1865880Y3133920D01*
X1861940Y3127100D01*
X1860630Y3119310D01*
X1863250Y3109580D01*
X1869820Y3102760D01*
X1877690Y3100810D01*
X1885570Y3101790D01*
X1892130Y3105680D01*
X1905250Y3125150D01*
X1914440Y3133920D01*
X1927560Y3139760D01*
X1939370Y3141710D01*
Y3100810D01*
G01X2282320Y1332810D02*
X2288160Y1336750D01*
X2294980Y1339370D01*
X2302770D01*
X2311530Y1335430D01*
X2318340Y1328870D01*
X2323210Y1321000D01*
X2327110Y1307870D01*
X2328080Y1296060D01*
X2326130Y1284250D01*
X2323210Y1276380D01*
X2317370Y1268500D01*
X2310560Y1263250D01*
X2303740Y1260630D01*
X2296920D01*
X2290110Y1263250D01*
X2284270Y1267190D01*
X2279400Y1272440D01*
G01X2243500Y1326250D02*
X2237660Y1334120D01*
X2230840Y1338060D01*
X2223050Y1339370D01*
X2213320Y1336750D01*
X2206500Y1330180D01*
X2204550Y1322310D01*
X2205530Y1314430D01*
X2209420Y1307870D01*
X2228890Y1294750D01*
X2237660Y1285560D01*
X2243500Y1272440D01*
X2245450Y1260630D01*
X2204550D01*
G01X2146260D02*
X2139440Y1261940D01*
X2131660Y1265880D01*
X2126790Y1272440D01*
X2124840Y1281630D01*
X2126790Y1290810D01*
X2132630Y1298690D01*
X2141390Y1302630D01*
X2151130D01*
X2156970Y1305250D01*
X2161840Y1311810D01*
X2163790Y1321000D01*
X2160860Y1330180D01*
X2154050Y1336750D01*
X2146260Y1339370D01*
X2138470Y1336750D01*
X2131660Y1330180D01*
X2128730Y1321000D01*
X2130680Y1311810D01*
X2135550Y1305250D01*
X2141390Y1302630D01*
X2151130D01*
X2159890Y1298690D01*
X2165730Y1290810D01*
X2167680Y1281630D01*
X2165730Y1272440D01*
X2160860Y1265880D01*
X2153080Y1261940D01*
X2146260Y1260630D01*
G01X2282320Y1182810D02*
X2288160Y1186750D01*
X2294980Y1189370D01*
X2302770D01*
X2311530Y1185430D01*
X2318340Y1178870D01*
X2323210Y1171000D01*
X2327110Y1157870D01*
X2328080Y1146060D01*
X2326130Y1134250D01*
X2323210Y1126380D01*
X2317370Y1118500D01*
X2310560Y1113250D01*
X2303740Y1110630D01*
X2296920D01*
X2290110Y1113250D01*
X2284270Y1117190D01*
X2279400Y1122440D01*
G01X2243500Y1176250D02*
X2237660Y1184120D01*
X2230840Y1188060D01*
X2223050Y1189370D01*
X2213320Y1186750D01*
X2206500Y1180180D01*
X2204550Y1172310D01*
X2205530Y1164430D01*
X2209420Y1157870D01*
X2228890Y1144750D01*
X2237660Y1135560D01*
X2243500Y1122440D01*
X2245450Y1110630D01*
X2204550D01*
G01X2162810Y1119810D02*
X2156000Y1113250D01*
X2148210Y1110630D01*
X2140420Y1113250D01*
X2133600Y1121130D01*
X2128730Y1132940D01*
X2126790Y1144750D01*
Y1159190D01*
X2128730Y1171000D01*
X2133600Y1181500D01*
X2139440Y1186750D01*
X2146260Y1189370D01*
X2154050Y1186750D01*
X2159890Y1181500D01*
X2163790Y1173620D01*
X2165730Y1163120D01*
X2163790Y1153940D01*
X2158920Y1144750D01*
X2153080Y1139500D01*
X2146260Y1138190D01*
X2138470Y1140810D01*
X2132630Y1147370D01*
X2126790Y1159190D01*
G01X2282320Y1482810D02*
X2288160Y1486750D01*
X2294980Y1489370D01*
X2302770D01*
X2311530Y1485430D01*
X2318340Y1478870D01*
X2323210Y1471000D01*
X2327110Y1457870D01*
X2328080Y1446060D01*
X2326130Y1434250D01*
X2323210Y1426380D01*
X2317370Y1418500D01*
X2310560Y1413250D01*
X2303740Y1410630D01*
X2296920D01*
X2290110Y1413250D01*
X2284270Y1417190D01*
X2279400Y1422440D01*
G01X2243500Y1476250D02*
X2237660Y1484120D01*
X2230840Y1488060D01*
X2223050Y1489370D01*
X2213320Y1486750D01*
X2206500Y1480180D01*
X2204550Y1472310D01*
X2205530Y1464430D01*
X2209420Y1457870D01*
X2228890Y1444750D01*
X2237660Y1435560D01*
X2243500Y1422440D01*
X2245450Y1410630D01*
X2204550D01*
G01X2134580D02*
Y1489370D01*
X2170600Y1432940D01*
X2121920D01*
G01X2282320Y1632810D02*
X2288160Y1636750D01*
X2294980Y1639370D01*
X2302770D01*
X2311530Y1635430D01*
X2318340Y1628870D01*
X2323210Y1621000D01*
X2327110Y1607870D01*
X2328080Y1596060D01*
X2326130Y1584250D01*
X2323210Y1576380D01*
X2317370Y1568500D01*
X2310560Y1563250D01*
X2303740Y1560630D01*
X2296920D01*
X2290110Y1563250D01*
X2284270Y1567190D01*
X2279400Y1572440D01*
G01X2243500Y1626250D02*
X2237660Y1634120D01*
X2230840Y1638060D01*
X2223050Y1639370D01*
X2213320Y1636750D01*
X2206500Y1630180D01*
X2204550Y1622310D01*
X2205530Y1614430D01*
X2209420Y1607870D01*
X2228890Y1594750D01*
X2237660Y1585560D01*
X2243500Y1572440D01*
X2245450Y1560630D01*
X2204550D01*
G01X2167680Y1572440D02*
X2161840Y1565880D01*
X2155020Y1561940D01*
X2146260Y1560630D01*
X2137500Y1563250D01*
X2130680Y1568500D01*
X2125810Y1577690D01*
X2124840Y1588190D01*
X2126790Y1598690D01*
X2131660Y1605250D01*
X2138470Y1610500D01*
X2145290Y1611810D01*
X2152100Y1610500D01*
X2160860Y1605250D01*
X2157940Y1639370D01*
X2131660D01*
G01X2160790Y4039370D02*
Y3982940D01*
X2156900Y3971130D01*
X2149110Y3963250D01*
X2139370Y3960630D01*
X2129630Y3963250D01*
X2121840Y3971130D01*
X2117950Y3982940D01*
Y4039370D01*
G01X2079130Y4026250D02*
X2073290Y4034120D01*
X2066470Y4038060D01*
X2058680Y4039370D01*
X2048950Y4036750D01*
X2042130Y4030180D01*
X2040180Y4022310D01*
X2041160Y4014430D01*
X2045050Y4007870D01*
X2064520Y3994750D01*
X2073290Y3985560D01*
X2079130Y3972440D01*
X2081080Y3960630D01*
X2040180D01*
G01X2339370Y2208840D02*
X2260630D01*
Y2184500D01*
X2264570Y2176710D01*
X2269820Y2171840D01*
X2280320Y2169900D01*
X2290810Y2171840D01*
X2297370Y2177690D01*
X2301310Y2184500D01*
Y2208840D01*
G01Y2184500D02*
X2339370Y2169900D01*
G01X2327560Y2132050D02*
X2334120Y2126210D01*
X2338060Y2119390D01*
X2339370Y2110630D01*
X2336750Y2101870D01*
X2331500Y2095050D01*
X2322310Y2090180D01*
X2311810Y2089210D01*
X2301310Y2091160D01*
X2294750Y2096030D01*
X2289500Y2102840D01*
X2288190Y2109660D01*
X2289500Y2116470D01*
X2294750Y2125230D01*
X2260630Y2122310D01*
Y2096030D01*
G01X2339370Y2708840D02*
X2260630D01*
Y2684500D01*
X2264570Y2676710D01*
X2269820Y2671840D01*
X2280320Y2669900D01*
X2290810Y2671840D01*
X2297370Y2677690D01*
X2301310Y2684500D01*
Y2708840D01*
G01Y2684500D02*
X2339370Y2669900D01*
G01Y2598950D02*
X2260630D01*
X2317060Y2634970D01*
Y2586290D01*
G01X2492620Y683110D02*
X2501810Y677270D01*
X2507060Y669480D01*
X2508370Y660720D01*
X2507060Y652930D01*
X2500500Y645140D01*
X2492620Y640270D01*
X2484750Y639300D01*
X2475560Y641240D01*
X2469000Y648060D01*
X2466370Y654870D01*
Y663640D01*
G01Y654870D02*
X2462440Y649030D01*
X2455880Y644160D01*
X2448000Y642220D01*
X2440130Y644160D01*
X2433570Y649030D01*
X2429630Y657800D01*
X2430940Y666560D01*
X2436190Y675320D01*
G01X2429630Y607290D02*
X2508370Y582950D01*
X2429630Y558610D01*
G01X2492620Y525630D02*
X2501810Y519790D01*
X2507060Y512000D01*
X2508370Y503240D01*
X2507060Y495450D01*
X2500500Y487660D01*
X2492620Y482790D01*
X2484750Y481820D01*
X2475560Y483760D01*
X2469000Y490580D01*
X2466370Y497390D01*
Y506160D01*
G01Y497390D02*
X2462440Y491550D01*
X2455880Y486680D01*
X2448000Y484740D01*
X2440130Y486680D01*
X2433570Y491550D01*
X2429630Y500320D01*
X2430940Y509080D01*
X2436190Y517840D01*
G01X2608840Y3189370D02*
Y3110630D01*
X2569900D01*
G01X2529130Y3176250D02*
X2523290Y3184120D01*
X2516470Y3188060D01*
X2508680Y3189370D01*
X2498950Y3186750D01*
X2492130Y3180180D01*
X2490180Y3172310D01*
X2491160Y3164430D01*
X2495050Y3157870D01*
X2514520Y3144750D01*
X2523290Y3135560D01*
X2529130Y3122440D01*
X2531080Y3110630D01*
X2490180D01*
G01X2608840Y4339370D02*
Y4260630D01*
X2569900D01*
G01X2510630D02*
Y4339370D01*
X2522310Y4323620D01*
G01Y4260630D02*
X2498950D01*
G01X2762370Y607290D02*
X2683630Y582950D01*
X2762370Y558610D01*
G01X2734810Y567370D02*
Y598530D01*
G01X2762370Y504210D02*
X2683630D01*
X2699380Y515890D01*
G01X2762370D02*
Y492530D01*
G01X3016370Y607290D02*
X2937630Y582950D01*
X3016370Y558610D01*
G01X2988810Y567370D02*
Y598530D01*
G01X2950750Y522710D02*
X2942880Y516870D01*
X2938940Y510050D01*
X2937630Y502260D01*
X2940250Y492530D01*
X2946820Y485710D01*
X2954690Y483760D01*
X2962570Y484740D01*
X2969130Y488630D01*
X2982250Y508100D01*
X2991440Y516870D01*
X3004560Y522710D01*
X3016370Y524660D01*
Y483760D01*
G01X3270370Y607290D02*
X3191630Y582950D01*
X3270370Y558610D01*
G01X3242810Y567370D02*
Y598530D01*
G01X3254620Y525630D02*
X3263810Y519790D01*
X3269060Y512000D01*
X3270370Y503240D01*
X3269060Y495450D01*
X3262500Y487660D01*
X3254620Y482790D01*
X3246750Y481820D01*
X3237560Y483760D01*
X3231000Y490580D01*
X3228370Y497390D01*
Y506160D01*
G01Y497390D02*
X3224440Y491550D01*
X3217880Y486680D01*
X3210000Y484740D01*
X3202130Y486680D01*
X3195570Y491550D01*
X3191630Y500320D01*
X3192940Y509080D01*
X3198190Y517840D01*
G01X3485790Y2039370D02*
Y1982940D01*
X3481900Y1971130D01*
X3474110Y1963250D01*
X3464370Y1960630D01*
X3454630Y1963250D01*
X3446840Y1971130D01*
X3442950Y1982940D01*
Y2039370D01*
G01X3385630Y1960630D02*
Y2039370D01*
X3397310Y2023620D01*
G01Y1960630D02*
X3373950D01*
G01X3524370Y607290D02*
X3445630Y582950D01*
X3524370Y558610D01*
G01X3496810Y567370D02*
Y598530D01*
G01X3524370Y492530D02*
X3445630D01*
X3502060Y528550D01*
Y479870D01*
G01X3542190Y2457320D02*
X3538250Y2463160D01*
X3535630Y2469980D01*
Y2477770D01*
X3539570Y2486530D01*
X3546130Y2493340D01*
X3554000Y2498210D01*
X3567130Y2502110D01*
X3578940Y2503080D01*
X3590750Y2501130D01*
X3598620Y2498210D01*
X3606500Y2492370D01*
X3611750Y2485560D01*
X3614370Y2478740D01*
Y2471920D01*
X3611750Y2465110D01*
X3607810Y2459270D01*
X3602560Y2454400D01*
G01X3598620Y2421420D02*
X3607810Y2415580D01*
X3613060Y2407790D01*
X3614370Y2399030D01*
X3613060Y2391240D01*
X3606500Y2383450D01*
X3598620Y2378580D01*
X3590750Y2377610D01*
X3581560Y2379550D01*
X3575000Y2386370D01*
X3572370Y2393180D01*
Y2401950D01*
G01Y2393180D02*
X3568440Y2387340D01*
X3561880Y2382470D01*
X3554000Y2380530D01*
X3546130Y2382470D01*
X3539570Y2387340D01*
X3535630Y2396110D01*
X3536940Y2404870D01*
X3542190Y2413630D01*
G01X3581560Y2339760D02*
X3572370Y2332940D01*
X3567130Y2327100D01*
X3564500Y2319310D01*
X3567130Y2312500D01*
X3572370Y2307630D01*
X3580250Y2303730D01*
X3589440Y2302760D01*
X3597310Y2303730D01*
X3605190Y2307630D01*
X3611750Y2313470D01*
X3614370Y2320290D01*
X3611750Y2328080D01*
X3603870Y2334890D01*
X3592060Y2338790D01*
X3578940Y2339760D01*
X3561880Y2337810D01*
X3552690Y2334890D01*
X3543500Y2330020D01*
X3536940Y2323210D01*
X3535630Y2316390D01*
X3538250Y2309580D01*
X3544820Y2304710D01*
G01X3707320Y3182810D02*
X3713160Y3186750D01*
X3719980Y3189370D01*
X3727770D01*
X3736530Y3185430D01*
X3743340Y3178870D01*
X3748210Y3171000D01*
X3752110Y3157870D01*
X3753080Y3146060D01*
X3751130Y3134250D01*
X3748210Y3126380D01*
X3742370Y3118500D01*
X3735560Y3113250D01*
X3728740Y3110630D01*
X3721920D01*
X3715110Y3113250D01*
X3709270Y3117190D01*
X3704400Y3122440D01*
G01X3650000Y3110630D02*
Y3189370D01*
X3661680Y3173620D01*
G01Y3110630D02*
X3638320D01*
G01X3573210D02*
X3571260Y3127690D01*
X3568340Y3142120D01*
X3564440Y3155250D01*
X3559580Y3169680D01*
X3551790Y3189370D01*
X3590730D01*
G01X3707320Y4332810D02*
X3713160Y4336750D01*
X3719980Y4339370D01*
X3727770D01*
X3736530Y4335430D01*
X3743340Y4328870D01*
X3748210Y4321000D01*
X3752110Y4307870D01*
X3753080Y4296060D01*
X3751130Y4284250D01*
X3748210Y4276380D01*
X3742370Y4268500D01*
X3735560Y4263250D01*
X3728740Y4260630D01*
X3721920D01*
X3715110Y4263250D01*
X3709270Y4267190D01*
X3704400Y4272440D01*
G01X3650000Y4260630D02*
Y4339370D01*
X3661680Y4323620D01*
G01Y4260630D02*
X3638320D01*
G01X3559580D02*
Y4339370D01*
X3595600Y4282940D01*
X3546920D01*
G01X3760890Y310510D02*
X3767800Y309160D01*
X3774480Y306200D01*
X3779980Y300690D01*
X3783400Y291710D01*
X3783580Y282250D01*
X3781450Y273240D01*
X3774930Y261210D01*
X3767260Y252170D01*
X3757530Y245190D01*
X3749900Y241690D01*
X3740200Y240250D01*
X3731670Y241360D01*
X3725000Y244320D01*
X3720180Y249140D01*
X3717210Y255820D01*
X3715860Y262730D01*
X3716130Y269890D01*
G01X3669320Y300000D02*
X3665420Y305750D01*
X3662700Y314040D01*
X3663900Y322120D01*
X3669020Y330000D01*
X3676890Y335120D01*
X3686590Y336550D01*
X3695570Y333140D01*
X3702450Y326260D01*
X3708440Y323980D01*
X3716520Y325180D01*
X3724390Y330300D01*
X3728820Y338860D01*
X3728650Y348320D01*
X3724990Y355680D01*
X3717630Y359330D01*
X3708170Y359510D01*
X3699610Y355080D01*
X3694490Y347210D01*
X3693290Y339130D01*
X3695570Y333140D01*
X3702450Y326260D01*
X3705860Y317280D01*
X3704430Y307580D01*
X3699310Y299710D01*
X3691440Y294580D01*
X3683350Y293390D01*
X3675060Y296110D01*
X3669320Y300000D01*
G01X3793180Y712500D02*
X3768120Y737550D01*
X3751270Y781940D01*
G01X3723730Y754400D02*
X3768120Y737550D01*
G01X3737500Y656820D02*
X3681820Y712490D01*
X3701210Y709620D01*
G01X3745760Y665080D02*
X3729230Y648550D01*
G01X3692190Y2457320D02*
X3688250Y2463160D01*
X3685630Y2469980D01*
Y2477770D01*
X3689570Y2486530D01*
X3696130Y2493340D01*
X3704000Y2498210D01*
X3717130Y2502110D01*
X3728940Y2503080D01*
X3740750Y2501130D01*
X3748620Y2498210D01*
X3756500Y2492370D01*
X3761750Y2485560D01*
X3764370Y2478740D01*
Y2471920D01*
X3761750Y2465110D01*
X3757810Y2459270D01*
X3752560Y2454400D01*
G01X3748620Y2421420D02*
X3757810Y2415580D01*
X3763060Y2407790D01*
X3764370Y2399030D01*
X3763060Y2391240D01*
X3756500Y2383450D01*
X3748620Y2378580D01*
X3740750Y2377610D01*
X3731560Y2379550D01*
X3725000Y2386370D01*
X3722370Y2393180D01*
Y2401950D01*
G01Y2393180D02*
X3718440Y2387340D01*
X3711880Y2382470D01*
X3704000Y2380530D01*
X3696130Y2382470D01*
X3689570Y2387340D01*
X3685630Y2396110D01*
X3686940Y2404870D01*
X3692190Y2413630D01*
G01X3752560Y2342680D02*
X3759120Y2336840D01*
X3763060Y2330020D01*
X3764370Y2321260D01*
X3761750Y2312500D01*
X3756500Y2305680D01*
X3747310Y2300810D01*
X3736810Y2299840D01*
X3726310Y2301790D01*
X3719750Y2306660D01*
X3714500Y2313470D01*
X3713190Y2320290D01*
X3714500Y2327100D01*
X3719750Y2335860D01*
X3685630Y2332940D01*
Y2306660D01*
G01X3842190Y2457320D02*
X3838250Y2463160D01*
X3835630Y2469980D01*
Y2477770D01*
X3839570Y2486530D01*
X3846130Y2493340D01*
X3854000Y2498210D01*
X3867130Y2502110D01*
X3878940Y2503080D01*
X3890750Y2501130D01*
X3898620Y2498210D01*
X3906500Y2492370D01*
X3911750Y2485560D01*
X3914370Y2478740D01*
Y2471920D01*
X3911750Y2465110D01*
X3907810Y2459270D01*
X3902560Y2454400D01*
G01X3898620Y2421420D02*
X3907810Y2415580D01*
X3913060Y2407790D01*
X3914370Y2399030D01*
X3913060Y2391240D01*
X3906500Y2383450D01*
X3898620Y2378580D01*
X3890750Y2377610D01*
X3881560Y2379550D01*
X3875000Y2386370D01*
X3872370Y2393180D01*
Y2401950D01*
G01Y2393180D02*
X3868440Y2387340D01*
X3861880Y2382470D01*
X3854000Y2380530D01*
X3846130Y2382470D01*
X3839570Y2387340D01*
X3835630Y2396110D01*
X3836940Y2404870D01*
X3842190Y2413630D01*
G01X3914370Y2323210D02*
X3897310Y2321260D01*
X3882880Y2318340D01*
X3869750Y2314440D01*
X3855320Y2309580D01*
X3835630Y2301790D01*
Y2340730D01*
G01X4214490Y460890D02*
X4215840Y467800D01*
X4218800Y474480D01*
X4224310Y479980D01*
X4233290Y483400D01*
X4242750Y483580D01*
X4251760Y481450D01*
X4263790Y474930D01*
X4272830Y467260D01*
X4279810Y457530D01*
X4283310Y449900D01*
X4284750Y440200D01*
X4283640Y431670D01*
X4280680Y425000D01*
X4275860Y420180D01*
X4269180Y417210D01*
X4262270Y415860D01*
X4255110Y416130D01*
G01X4226370Y370690D02*
X4212930Y381380D01*
X4200660Y389520D01*
X4188630Y396050D01*
X4174980Y402810D01*
X4155550Y411220D01*
X4183090Y438760D01*
G01X3992190Y2457320D02*
X3988250Y2463160D01*
X3985630Y2469980D01*
Y2477770D01*
X3989570Y2486530D01*
X3996130Y2493340D01*
X4004000Y2498210D01*
X4017130Y2502110D01*
X4028940Y2503080D01*
X4040750Y2501130D01*
X4048620Y2498210D01*
X4056500Y2492370D01*
X4061750Y2485560D01*
X4064370Y2478740D01*
Y2471920D01*
X4061750Y2465110D01*
X4057810Y2459270D01*
X4052560Y2454400D01*
G01X4048620Y2421420D02*
X4057810Y2415580D01*
X4063060Y2407790D01*
X4064370Y2399030D01*
X4063060Y2391240D01*
X4056500Y2383450D01*
X4048620Y2378580D01*
X4040750Y2377610D01*
X4031560Y2379550D01*
X4025000Y2386370D01*
X4022370Y2393180D01*
Y2401950D01*
G01Y2393180D02*
X4018440Y2387340D01*
X4011880Y2382470D01*
X4004000Y2380530D01*
X3996130Y2382470D01*
X3989570Y2387340D01*
X3985630Y2396110D01*
X3986940Y2404870D01*
X3992190Y2413630D01*
G01X4064370Y2321260D02*
X4063060Y2314440D01*
X4059120Y2306660D01*
X4052560Y2301790D01*
X4043370Y2299840D01*
X4034190Y2301790D01*
X4026310Y2307630D01*
X4022370Y2316390D01*
Y2326130D01*
X4019750Y2331970D01*
X4013190Y2336840D01*
X4004000Y2338790D01*
X3994820Y2335860D01*
X3988250Y2329050D01*
X3985630Y2321260D01*
X3988250Y2313470D01*
X3994820Y2306660D01*
X4004000Y2303730D01*
X4013190Y2305680D01*
X4019750Y2310550D01*
X4022370Y2316390D01*
Y2326130D01*
X4026310Y2334890D01*
X4034190Y2340730D01*
X4043370Y2342680D01*
X4052560Y2340730D01*
X4059120Y2335860D01*
X4063060Y2328080D01*
X4064370Y2321260D01*
G01X4167190Y2457320D02*
X4163250Y2463160D01*
X4160630Y2469980D01*
Y2477770D01*
X4164570Y2486530D01*
X4171130Y2493340D01*
X4179000Y2498210D01*
X4192130Y2502110D01*
X4203940Y2503080D01*
X4215750Y2501130D01*
X4223620Y2498210D01*
X4231500Y2492370D01*
X4236750Y2485560D01*
X4239370Y2478740D01*
Y2471920D01*
X4236750Y2465110D01*
X4232810Y2459270D01*
X4227560Y2454400D01*
G01X4223620Y2421420D02*
X4232810Y2415580D01*
X4238060Y2407790D01*
X4239370Y2399030D01*
X4238060Y2391240D01*
X4231500Y2383450D01*
X4223620Y2378580D01*
X4215750Y2377610D01*
X4206560Y2379550D01*
X4200000Y2386370D01*
X4197370Y2393180D01*
Y2401950D01*
G01Y2393180D02*
X4193440Y2387340D01*
X4186880Y2382470D01*
X4179000Y2380530D01*
X4171130Y2382470D01*
X4164570Y2387340D01*
X4160630Y2396110D01*
X4161940Y2404870D01*
X4167190Y2413630D01*
G01X4239370Y2309580D02*
X4160630D01*
X4217060Y2345600D01*
Y2296920D01*
G01X4548210Y2435630D02*
Y2514370D01*
X4523870D01*
X4516080Y2510430D01*
X4511210Y2505180D01*
X4509270Y2494680D01*
X4511210Y2484190D01*
X4517060Y2477630D01*
X4523870Y2473690D01*
X4548210D01*
G01X4523870D02*
X4509270Y2435630D01*
G01X4450000D02*
Y2514370D01*
X4461680Y2498620D01*
G01Y2435630D02*
X4438320D01*
G01X4359580D02*
Y2514370D01*
X4395600Y2457940D01*
X4346920D01*
G01X4548210Y2885630D02*
Y2964370D01*
X4523870D01*
X4516080Y2960430D01*
X4511210Y2955180D01*
X4509270Y2944680D01*
X4511210Y2934190D01*
X4517060Y2927630D01*
X4523870Y2923690D01*
X4548210D01*
G01X4523870D02*
X4509270Y2885630D01*
G01X4450000D02*
Y2964370D01*
X4461680Y2948620D01*
G01Y2885630D02*
X4438320D01*
G01X4392680Y2901380D02*
X4386840Y2892190D01*
X4379050Y2886940D01*
X4370290Y2885630D01*
X4362500Y2886940D01*
X4354710Y2893500D01*
X4349840Y2901380D01*
X4348870Y2909250D01*
X4350810Y2918440D01*
X4357630Y2925000D01*
X4364440Y2927630D01*
X4373210D01*
G01X4364440D02*
X4358600Y2931560D01*
X4353730Y2938120D01*
X4351790Y2946000D01*
X4353730Y2953870D01*
X4358600Y2960430D01*
X4367370Y2964370D01*
X4376130Y2963060D01*
X4384890Y2957810D01*
G01X4807320Y1357810D02*
X4813160Y1361750D01*
X4819980Y1364370D01*
X4827770D01*
X4836530Y1360430D01*
X4843340Y1353870D01*
X4848210Y1346000D01*
X4852110Y1332870D01*
X4853080Y1321060D01*
X4851130Y1309250D01*
X4848210Y1301380D01*
X4842370Y1293500D01*
X4835560Y1288250D01*
X4828740Y1285630D01*
X4821920D01*
X4815110Y1288250D01*
X4809270Y1292190D01*
X4804400Y1297440D01*
G01X4771420Y1301380D02*
X4765580Y1292190D01*
X4757790Y1286940D01*
X4749030Y1285630D01*
X4741240Y1286940D01*
X4733450Y1293500D01*
X4728580Y1301380D01*
X4727610Y1309250D01*
X4729550Y1318440D01*
X4736370Y1325000D01*
X4743180Y1327630D01*
X4751950D01*
G01X4743180D02*
X4737340Y1331560D01*
X4732470Y1338120D01*
X4730530Y1346000D01*
X4732470Y1353870D01*
X4737340Y1360430D01*
X4746110Y1364370D01*
X4754870Y1363060D01*
X4763630Y1357810D01*
G01X4687810Y1294810D02*
X4681000Y1288250D01*
X4673210Y1285630D01*
X4665420Y1288250D01*
X4658600Y1296130D01*
X4653730Y1307940D01*
X4651790Y1319750D01*
Y1334190D01*
X4653730Y1346000D01*
X4658600Y1356500D01*
X4664440Y1361750D01*
X4671260Y1364370D01*
X4679050Y1361750D01*
X4684890Y1356500D01*
X4688790Y1348620D01*
X4690730Y1338120D01*
X4688790Y1328940D01*
X4683920Y1319750D01*
X4678080Y1314500D01*
X4671260Y1313190D01*
X4663470Y1315810D01*
X4657630Y1322370D01*
X4651790Y1334190D01*
G01X4760790Y1764370D02*
Y1707940D01*
X4756900Y1696130D01*
X4749110Y1688250D01*
X4739370Y1685630D01*
X4729630Y1688250D01*
X4721840Y1696130D01*
X4717950Y1707940D01*
Y1764370D01*
G01X4679130Y1718440D02*
X4672310Y1727630D01*
X4666470Y1732870D01*
X4658680Y1735500D01*
X4651870Y1732870D01*
X4647000Y1727630D01*
X4643100Y1719750D01*
X4642130Y1710560D01*
X4643100Y1702690D01*
X4647000Y1694810D01*
X4652840Y1688250D01*
X4659660Y1685630D01*
X4667450Y1688250D01*
X4674260Y1696130D01*
X4678160Y1707940D01*
X4679130Y1721060D01*
X4677180Y1738120D01*
X4674260Y1747310D01*
X4669390Y1756500D01*
X4662580Y1763060D01*
X4655760Y1764370D01*
X4648950Y1761750D01*
X4644080Y1755180D01*
G01X4596800Y2623800D02*
Y2776200D01*
X4685700D01*
Y2877800D01*
X5003200D01*
G01Y2522200D02*
X4685700D01*
Y2623800D01*
X4596800D01*
G01X4671620Y3767210D02*
X4680810Y3761370D01*
X4686060Y3753580D01*
X4687370Y3744820D01*
X4686060Y3737030D01*
X4679500Y3729240D01*
X4671620Y3724370D01*
X4663750Y3723400D01*
X4654560Y3725340D01*
X4648000Y3732160D01*
X4645370Y3738970D01*
Y3747740D01*
G01Y3738970D02*
X4641440Y3733130D01*
X4634880Y3728260D01*
X4627000Y3726320D01*
X4619130Y3728260D01*
X4612570Y3733130D01*
X4608630Y3741900D01*
X4609940Y3750660D01*
X4615190Y3759420D01*
G01X4608630Y3691390D02*
X4687370Y3667050D01*
X4608630Y3642710D01*
G01X4671620Y3609730D02*
X4680810Y3603890D01*
X4686060Y3596100D01*
X4687370Y3587340D01*
X4686060Y3579550D01*
X4679500Y3571760D01*
X4671620Y3566890D01*
X4663750Y3565920D01*
X4654560Y3567860D01*
X4648000Y3574680D01*
X4645370Y3581490D01*
Y3590260D01*
G01Y3581490D02*
X4641440Y3575650D01*
X4634880Y3570780D01*
X4627000Y3568840D01*
X4619130Y3570780D01*
X4612570Y3575650D01*
X4608630Y3584420D01*
X4609940Y3593180D01*
X4615190Y3601940D01*
G01X5035790Y560630D02*
Y639370D01*
X5016320D01*
X5008530Y635430D01*
X5002690Y630180D01*
X4997820Y622310D01*
X4993920Y613120D01*
X4992950Y600000D01*
X4993920Y586880D01*
X4997820Y577690D01*
X5002690Y569810D01*
X5008530Y564570D01*
X5016320Y560630D01*
X5035790D01*
G01X4935630D02*
Y639370D01*
X4947310Y623620D01*
G01Y560630D02*
X4923950D01*
G01X4985790Y2464370D02*
Y2407940D01*
X4981900Y2396130D01*
X4974110Y2388250D01*
X4964370Y2385630D01*
X4954630Y2388250D01*
X4946840Y2396130D01*
X4942950Y2407940D01*
Y2464370D01*
G01X4907050Y2397440D02*
X4901210Y2390880D01*
X4894390Y2386940D01*
X4885630Y2385630D01*
X4876870Y2388250D01*
X4870050Y2393500D01*
X4865180Y2402690D01*
X4864210Y2413190D01*
X4866160Y2423690D01*
X4871030Y2430250D01*
X4877840Y2435500D01*
X4884660Y2436810D01*
X4891470Y2435500D01*
X4900230Y2430250D01*
X4897310Y2464370D01*
X4871030D01*
G01X4929560Y3767210D02*
X4936120Y3761370D01*
X4940060Y3754550D01*
X4941370Y3745790D01*
X4938750Y3737030D01*
X4933500Y3730210D01*
X4924310Y3725340D01*
X4913810Y3724370D01*
X4903310Y3726320D01*
X4896750Y3731190D01*
X4891500Y3738000D01*
X4890190Y3744820D01*
X4891500Y3751630D01*
X4896750Y3760390D01*
X4862630Y3757470D01*
Y3731190D01*
G01Y3691390D02*
X4941370Y3667050D01*
X4862630Y3642710D01*
G01X5003200Y2877800D02*
Y2522200D01*
G01X5116630Y3770130D02*
X5195370Y3745790D01*
X5116630Y3721450D01*
G01Y3678730D02*
Y3655370D01*
G01Y3667050D02*
X5195370D01*
G01Y3678730D02*
Y3655370D01*
G01Y3610700D02*
X5116630D01*
X5195370Y3565920D01*
X5116630D01*
G01X5335630Y2590470D02*
X5414370D01*
Y2551530D01*
G01X5335630Y2804550D02*
X5414370D01*
G01Y2845450D02*
X5335630D01*
G01X5375000D02*
Y2804550D01*
M02*
