G04 ================== begin FILE IDENTIFICATION RECORD ==================*
G04 Layout Name:  Y:/Desktop/LynXLite/BOARD/lynx_lite.brd*
G04 Film Name:    LYNXLITE_11PMB.GBP*
G04 File Format:  Gerber RS274X*
G04 File Origin:  Cadence Allegro 25.1-S020*
G04 Origin Date:  Sun May 17 17:30:24 2026*
G04 *
G04 Layer:  VIA CLASS/PASTEMASK_BOTTOM*
G04 Layer:  PIN/PASTEMASK_BOTTOM*
G04 Layer:  PACKAGE GEOMETRY/PASTEMASK_BOTTOM*
G04 Layer:  BOARD GEOMETRY/TOOLING_CORNERS*
G04 *
G04 Offset:    (0.0000 0.0000)*
G04 Mirror:    No*
G04 Mode:      Positive*
G04 Rotation:  0*
G04 FullContactRelief:  No*
G04 UndefLineWidth:     0.0000*
G04 ================== end FILE IDENTIFICATION RECORD ====================*
%FSLAX35Y35*MOMM*%
%IR0*IPPOS*OFA0.00000B0.00000*MIA0B0*SFA1.00000B1.00000*%
%AMMACRO13*
4,1,8,1.2374,0.0,
.5657,.6718,
-.5657,.6718,
-1.2374,0.0,
-.7071,-.5303,
-.4243,-.2475,
.4243,-.2475,
.7071,-.5303,
1.2374,0.0,
0.0*
%
%ADD13MACRO13*%
%ADD26R,.3048X1.524*%
%ADD25R,1.524X.3048*%
%ADD29R,1.016X.6096*%
%AMMACRO27*
21,1,.762,.762,0.0,0.0,45.*%
%ADD27MACRO27*%
%ADD18R,.889X1.27*%
%ADD31R,1.2192X.6096*%
%ADD10R,.762X.762*%
%AMMACRO20*
4,1,40,-.6985,-.0762,
-.6985,.0762,
-.697728,.085021,
-.695436,.093575,
-.691694,.1016,
-.686615,.108854,
-.680354,.115115,
-.6731,.120194,
-.665075,.123936,
-.656521,.126228,
-.6477,.127,
.6477,.127,
.656521,.126228,
.665075,.123936,
.6731,.120194,
.680354,.115115,
.686615,.108854,
.691694,.1016,
.695436,.093575,
.697728,.085021,
.6985,.0762,
.6985,-.0762,
.697728,-.085021,
.695436,-.093575,
.691694,-.1016,
.686615,-.108854,
.680354,-.115115,
.6731,-.120194,
.665075,-.123936,
.656521,-.126228,
.6477,-.127,
-.6477,-.127,
-.656521,-.126228,
-.665075,-.123936,
-.6731,-.120194,
-.680354,-.115115,
-.686615,-.108854,
-.691694,-.1016,
-.695436,-.093575,
-.697728,-.085021,
-.6985,-.0762,
0.0*
%
%ADD20MACRO20*%
%AMMACRO23*
4,1,40,-.0762,.6985,
.0762,.6985,
.085021,.697728,
.093575,.695436,
.1016,.691694,
.108854,.686615,
.115115,.680354,
.120194,.6731,
.123936,.665075,
.126228,.656521,
.127,.6477,
.127,-.6477,
.126228,-.656521,
.123936,-.665075,
.120194,-.6731,
.115115,-.680354,
.108854,-.686615,
.1016,-.691694,
.093575,-.695436,
.085021,-.697728,
.0762,-.6985,
-.0762,-.6985,
-.085021,-.697728,
-.093575,-.695436,
-.1016,-.691694,
-.108854,-.686615,
-.115115,-.680354,
-.120194,-.6731,
-.123936,-.665075,
-.126228,-.656521,
-.127,-.6477,
-.127,.6477,
-.126228,.656521,
-.123936,.665075,
-.120194,.6731,
-.115115,.680354,
-.108854,.686615,
-.1016,.691694,
-.093575,.695436,
-.085021,.697728,
-.0762,.6985,
0.0*
%
%ADD23MACRO23*%
%ADD30R,1.1938X.9144*%
%ADD17R,1.1X2.*%
%AMMACRO15*
4,1,8,0.0,-1.2374,
.6718,-.5657,
.6718,.5657,
0.0,1.2374,
-.5303,.7071,
-.2475,.4243,
-.2475,-.4243,
-.5303,-.7071,
0.0,-1.2374,
0.0*
%
%ADD15MACRO15*%
%AMMACRO12*
4,1,8,-1.2374,0.0,
-.5657,-.6718,
.5657,-.6718,
1.2374,0.0,
.7071,.5303,
.4243,.2475,
-.4243,.2475,
-.7071,.5303,
-1.2374,0.0,
0.0*
%
%ADD12MACRO12*%
%AMMACRO11*
4,1,8,0.0,1.2374,
-.6718,.5657,
-.6718,-.5657,
0.0,-1.2374,
.5303,-.7071,
.2475,-.4243,
.2475,.4243,
.5303,.7071,
0.0,1.2374,
0.0*
%
%ADD11MACRO11*%
%ADD16R,.8X.8*%
%ADD19R,3.302X1.5748*%
%ADD14R,2.6162X1.0668*%
%ADD24R,4.0894X2.0066*%
%AMMACRO22*
4,1,40,-.381,-.3302,
-.381,.3302,
-.380228,.339021,
-.377936,.347575,
-.374194,.3556,
-.369115,.362854,
-.362854,.369115,
-.3556,.374194,
-.347575,.377936,
-.339021,.380228,
-.3302,.381,
.3302,.381,
.339021,.380228,
.347575,.377936,
.3556,.374194,
.362854,.369115,
.369115,.362854,
.374194,.3556,
.377936,.347575,
.380228,.339021,
.381,.3302,
.381,-.3302,
.380228,-.339021,
.377936,-.347575,
.374194,-.3556,
.369115,-.362854,
.362854,-.369115,
.3556,-.374194,
.347575,-.377936,
.339021,-.380228,
.3302,-.381,
-.3302,-.381,
-.339021,-.380228,
-.347575,-.377936,
-.3556,-.374194,
-.362854,-.369115,
-.369115,-.362854,
-.374194,-.3556,
-.377936,-.347575,
-.380228,-.339021,
-.381,-.3302,
0.0*
%
%ADD22MACRO22*%
%AMMACRO28*
21,1,.8636,.762,0.0,0.0,45.*%
%ADD28MACRO28*%
%AMMACRO21*
4,1,40,-1.1938,-.6477,
-1.1938,.6477,
-1.193028,.656521,
-1.190736,.665075,
-1.186994,.6731,
-1.181915,.680354,
-1.175654,.686615,
-1.1684,.691694,
-1.160375,.695436,
-1.151821,.697728,
-1.143,.6985,
1.143,.6985,
1.151821,.697728,
1.160375,.695436,
1.1684,.691694,
1.175654,.686615,
1.181915,.680354,
1.186994,.6731,
1.190736,.665075,
1.193028,.656521,
1.1938,.6477,
1.1938,-.6477,
1.193028,-.656521,
1.190736,-.665075,
1.186994,-.6731,
1.181915,-.680354,
1.175654,-.686615,
1.1684,-.691694,
1.160375,-.695436,
1.151821,-.697728,
1.143,-.6985,
-1.143,-.6985,
-1.151821,-.697728,
-1.160375,-.695436,
-1.1684,-.691694,
-1.175654,-.686615,
-1.181915,-.680354,
-1.186994,-.6731,
-1.190736,-.665075,
-1.193028,-.656521,
-1.1938,-.6477,
0.0*
%
%ADD21MACRO21*%
%LPD*%
G75*
G54D10*
X800000Y875000D03*
Y725000D03*
X850000Y1100000D03*
Y1250000D03*
Y1400000D03*
Y1550000D03*
X950000Y875000D03*
Y725000D03*
X1900000Y3450000D03*
Y3600000D03*
X2150000Y2025000D03*
Y2175000D03*
Y2525000D03*
Y2675000D03*
X2600000Y1300000D03*
X2450000D03*
X2600000Y1150000D03*
X2450000D03*
X2600000Y1450000D03*
X2450000D03*
X2600000Y1600000D03*
X2450000D03*
X2750000Y1300000D03*
Y1150000D03*
Y1450000D03*
Y1600000D03*
X2900000Y1300000D03*
Y1150000D03*
Y1450000D03*
Y1600000D03*
X3250000Y3350000D03*
X3400000D03*
X3250000Y3500000D03*
X3400000D03*
Y3950000D03*
X3250000D03*
X3400000Y4100000D03*
X3250000D03*
X3575000Y2625000D03*
Y2775000D03*
X3725000Y2625000D03*
Y2775000D03*
X3875000Y2625000D03*
Y2775000D03*
X4025000Y2625000D03*
X4200000D03*
X4025000Y2775000D03*
X4200000D03*
X4350000Y2625000D03*
Y2775000D03*
X4500000Y2625000D03*
Y2775000D03*
X4950000Y1325000D03*
X5100000D03*
G54D11*
X1245190D03*
G54D20*
X2075000Y3600000D03*
Y3650000D03*
Y3700000D03*
Y3750000D03*
X2525000Y3600000D03*
Y3650000D03*
Y3700000D03*
Y3750000D03*
G54D21*
X2300000Y3675000D03*
G54D12*
X1475000Y1095190D03*
G54D30*
X4688240Y2700000D03*
X4911760Y2598400D03*
Y2801600D03*
G54D22*
X2100000Y3525000D03*
Y3825000D03*
X2500000Y3525000D03*
Y3825000D03*
G54D31*
X4910000Y1600000D03*
Y1505000D03*
Y1695000D03*
X5140000Y1505000D03*
Y1600000D03*
Y1695000D03*
G54D13*
X1475000Y1554810D03*
G54D14*
X1500000Y3800000D03*
Y4100000D03*
X1825000Y3800000D03*
Y4100000D03*
X3650000Y3325000D03*
Y3625000D03*
Y3825000D03*
Y4125000D03*
G54D23*
X2175000Y3500000D03*
Y3850000D03*
X2375000Y3500000D03*
X2325000D03*
X2275000D03*
X2225000D03*
X2375000Y3850000D03*
X2325000D03*
X2275000D03*
X2225000D03*
X2425000Y3500000D03*
Y3850000D03*
G54D24*
X2900000Y3230000D03*
Y3570000D03*
Y3880000D03*
Y4220000D03*
G54D15*
X1704810Y1325000D03*
G54D16*
X1525000Y2075000D03*
Y2662500D03*
X1725000Y2075000D03*
Y2662500D03*
G54D25*
X3410000Y1275000D03*
Y1225000D03*
Y1175000D03*
Y1125000D03*
Y1475000D03*
Y1425000D03*
Y1375000D03*
Y1325000D03*
Y1675000D03*
Y1625000D03*
Y1575000D03*
Y1525000D03*
X4290000Y1125000D03*
Y1175000D03*
Y1225000D03*
Y1275000D03*
Y1325000D03*
Y1375000D03*
Y1425000D03*
Y1475000D03*
Y1525000D03*
Y1575000D03*
Y1625000D03*
Y1675000D03*
G54D17*
X1525000Y2265000D03*
Y2852500D03*
X1725000Y2265000D03*
Y2852500D03*
G54D26*
X3575000Y960000D03*
Y1840000D03*
X3625000Y960000D03*
X3675000D03*
X3725000D03*
X3775000D03*
Y1840000D03*
X3725000D03*
X3675000D03*
X3625000D03*
X3825000Y960000D03*
X3875000D03*
X3925000D03*
X3975000D03*
Y1840000D03*
X3925000D03*
X3875000D03*
X3825000D03*
X4025000Y960000D03*
X4075000D03*
X4125000D03*
Y1840000D03*
X4075000D03*
X4025000D03*
G54D18*
X1511970Y2500000D03*
X1738030D03*
G54D27*
X3730550Y501250D03*
X4013390Y430550D03*
X3836610Y395190D03*
X4119450Y536610D03*
G54D28*
X3914390Y540150D03*
X4009850Y635610D03*
X3840150Y614390D03*
X3935610Y709850D03*
G54D19*
X1625000Y3132500D03*
Y3567500D03*
G54D29*
X4544200Y379900D03*
Y569900D03*
X4805800Y380100D03*
Y475100D03*
Y570100D03*
M02*
