G04 ================== begin FILE IDENTIFICATION RECORD ==================*
G04 Layout Name:  Y:/Desktop/LynXLite/BOARD/lynx_lite.brd*
G04 Film Name:    LYNXLITE_01TOP.GTL*
G04 File Format:  Gerber RS274X*
G04 File Origin:  Cadence Allegro 25.1-S020*
G04 Origin Date:  Sun May 17 17:30:24 2026*
G04 *
G04 Layer:  BOARD GEOMETRY/CUTOUT*
G04 Layer:  BOARD GEOMETRY/DESIGN_OUTLINE*
G04 Layer:  VIA CLASS/TOP*
G04 Layer:  PIN/TOP*
G04 Layer:  ETCH/TOP*
G04 *
G04 Offset:    (0.0000 0.0000)*
G04 Mirror:    No*
G04 Mode:      Positive*
G04 Rotation:  0*
G04 FullContactRelief:  No*
G04 UndefLineWidth:     0.0000*
G04 ================== end FILE IDENTIFICATION RECORD ====================*
%FSLAX35Y35*MOMM*%
%IR0*IPPOS*OFA0.00000B0.00000*MIA0B0*SFA1.00000B1.00000*%
%AMMACRO21*
4,1,40,.3,-.075,
.3,.075,
.29924,.083682,
.296985,.092101,
.293301,.1,
.288302,.107139,
.282139,.113302,
.275,.118301,
.267101,.121985,
.258682,.12424,
.25,.125,
-.25,.125,
-.258682,.12424,
-.267101,.121985,
-.275,.118301,
-.282139,.113302,
-.288302,.107139,
-.293301,.1,
-.296985,.092101,
-.29924,.083682,
-.3,.075,
-.3,-.075,
-.29924,-.083682,
-.296985,-.092101,
-.293301,-.1,
-.288302,-.107139,
-.282139,-.113302,
-.275,-.118301,
-.267101,-.121985,
-.258682,-.12424,
-.25,-.125,
.25,-.125,
.258682,-.12424,
.267101,-.121985,
.275,-.118301,
.282139,-.113302,
.288302,-.107139,
.293301,-.1,
.296985,-.092101,
.29924,-.083682,
.3,-.075,
0.0*
%
%ADD21MACRO21*%
%AMMACRO19*
4,1,40,-.075,-.3,
.075,-.3,
.083682,-.29924,
.092101,-.296985,
.1,-.293301,
.107139,-.288302,
.113302,-.282139,
.118301,-.275,
.121985,-.267101,
.12424,-.258682,
.125,-.25,
.125,.25,
.12424,.258682,
.121985,.267101,
.118301,.275,
.113302,.282139,
.107139,.288302,
.1,.293301,
.092101,.296985,
.083682,.29924,
.075,.3,
-.075,.3,
-.083682,.29924,
-.092101,.296985,
-.1,.293301,
-.107139,.288302,
-.113302,.282139,
-.118301,.275,
-.121985,.267101,
-.12424,.258682,
-.125,.25,
-.125,-.25,
-.12424,-.258682,
-.121985,-.267101,
-.118301,-.275,
-.113302,-.282139,
-.107139,-.288302,
-.1,-.293301,
-.092101,-.296985,
-.083682,-.29924,
-.075,-.3,
0.0*
%
%ADD19MACRO19*%
%ADD28R,1.143X.3048*%
%ADD27R,1.143X.6096*%
%ADD12C,.5842*%
%ADD14R,.762X.762*%
%ADD13R,1.27X.889*%
%ADD15R,.7366X1.3208*%
%ADD22R,1.9304X.6096*%
%ADD23R,.7366X2.794*%
%AMMACRO18*
4,1,40,-1.15,-1.25,
1.15,-1.25,
1.167365,-1.248481,
1.184202,-1.243969,
1.2,-1.236603,
1.214279,-1.226604,
1.226604,-1.214279,
1.236603,-1.2,
1.243969,-1.184202,
1.248481,-1.167365,
1.25,-1.15,
1.25,1.15,
1.248481,1.167365,
1.243969,1.184202,
1.236603,1.2,
1.226604,1.214279,
1.214279,1.226604,
1.2,1.236603,
1.184202,1.243969,
1.167365,1.248481,
1.15,1.25,
-1.15,1.25,
-1.167365,1.248481,
-1.184202,1.243969,
-1.2,1.236603,
-1.214279,1.226604,
-1.226604,1.214279,
-1.236603,1.2,
-1.243969,1.184202,
-1.248481,1.167365,
-1.25,1.15,
-1.25,-1.15,
-1.248481,-1.167365,
-1.243969,-1.184202,
-1.236603,-1.2,
-1.226604,-1.214279,
-1.214279,-1.226604,
-1.2,-1.236603,
-1.184202,-1.243969,
-1.167365,-1.248481,
-1.15,-1.25,
0.0*
%
%ADD18MACRO18*%
%ADD24R,1.1X2.*%
%AMMACRO20*
4,1,40,-.3,.075,
-.3,-.075,
-.29924,-.083682,
-.296985,-.092101,
-.293301,-.1,
-.288302,-.107139,
-.282139,-.113302,
-.275,-.118301,
-.267101,-.121985,
-.258682,-.12424,
-.25,-.125,
.25,-.125,
.258682,-.12424,
.267101,-.121985,
.275,-.118301,
.282139,-.113302,
.288302,-.107139,
.293301,-.1,
.296985,-.092101,
.29924,-.083682,
.3,-.075,
.3,.075,
.29924,.083682,
.296985,.092101,
.293301,.1,
.288302,.107139,
.282139,.113302,
.275,.118301,
.267101,.121985,
.258682,.12424,
.25,.125,
-.25,.125,
-.258682,.12424,
-.267101,.121985,
-.275,.118301,
-.282139,.113302,
-.288302,.107139,
-.293301,.1,
-.296985,.092101,
-.29924,.083682,
-.3,.075,
0.0*
%
%ADD20MACRO20*%
%ADD25R,.8X.8*%
%ADD11C,1.9*%
%ADD29O,2.2098X1.016*%
%ADD26O,1.8288X1.016*%
%ADD16C,1.6256*%
%ADD10C,2.9972*%
%AMMACRO17*
4,1,40,-1.1938,-.6477,
-1.1938,.6477,
-1.193028,.656521,
-1.190736,.665075,
-1.186994,.6731,
-1.181915,.680354,
-1.175654,.686615,
-1.1684,.691694,
-1.160375,.695436,
-1.151821,.697728,
-1.143,.6985,
1.143,.6985,
1.151821,.697728,
1.160375,.695436,
1.1684,.691694,
1.175654,.686615,
1.181915,.680354,
1.186994,.6731,
1.190736,.665075,
1.193028,.656521,
1.1938,.6477,
1.1938,-.6477,
1.193028,-.656521,
1.190736,-.665075,
1.186994,-.6731,
1.181915,-.680354,
1.175654,-.686615,
1.1684,-.691694,
1.160375,-.695436,
1.151821,-.697728,
1.143,-.6985,
-1.143,-.6985,
-1.151821,-.697728,
-1.160375,-.695436,
-1.1684,-.691694,
-1.175654,-.686615,
-1.181915,-.680354,
-1.186994,-.6731,
-1.190736,-.665075,
-1.193028,-.656521,
-1.1938,-.6477,
0.0*
%
%ADD17MACRO17*%
%ADD30C,.5*%
%ADD31C,.25*%
%ADD32C,.215*%
%ADD33C,.35*%
%ADD34C,.28*%
%ADD35C,.75*%
%ADD36C,1.*%
%ADD39C,6.0004*%
%ADD37C,2.7004*%
%ADD38C,2.426*%
%ADD40C,1.0846*%
G75*
%LPD*%
G75*
G36*
G01X150000Y3550000D02*
X1200000D01*
G02X1250000Y3500000I0J-50000D01*
G01Y3042920D01*
X1611500Y2681420D01*
X1738500D01*
Y2588500D01*
X1250000Y2100000D01*
Y1396520D01*
X1161210D01*
G02X1153430Y1413210I3J10160D01*
G03X1185020Y1500000I-103428J86790D01*
G03X914980I-135020J0D01*
G03X955890Y1403190I135017J7D01*
G01X955910Y1403160D01*
X999850Y1359210D01*
X1000140Y1357680D01*
G03X1014100Y1331350I49860J9570D01*
G01X1020450Y1325000D01*
X1014100Y1318650D01*
G03X1000140Y1292320I35900J-35900D01*
G01X999850Y1290790D01*
X955910Y1246840D01*
X955890Y1246810D01*
G03X914980Y1150000I94107J-96817D01*
G03X1185020I135020J0D01*
G03X1153430Y1236790I-135018J0D01*
G02X1161210Y1253480I7783J6530D01*
G01X1250000D01*
Y1000000D01*
G02X1200000Y950000I-50000J0D01*
G01X150000D01*
G02X100000Y1000000I0J50000D01*
G01Y3500000D01*
G02X150000Y3550000I50000J0D01*
G37*
G36*
G01X4574270Y1350000D02*
X4700000D01*
G02X4750000Y1300000I0J-50000D01*
G01Y1025000D01*
G03X4775000Y1000000I25000J0D01*
G01X5350000D01*
G02X5400000Y950000I0J-50000D01*
G01Y150000D01*
G02X5350000Y100000I-50000J0D01*
G01X5150000D01*
G02X5100000Y150000I0J50000D01*
G01Y750000D01*
G03X5050000Y800000I-50000J0D01*
G01X4450000D01*
G03X4400000Y750000I0J-50000D01*
G01Y150000D01*
G02X4350000Y100000I-50000J0D01*
G01X850000D01*
G02X800020Y148590I0J50000D01*
G01Y400000D01*
G03X800000Y403970I-400020J-30D01*
G01Y800000D01*
G02X850000Y850000I50000J0D01*
G01X1275000D01*
X1400000Y975000D01*
X1575000D01*
X1675000Y1075000D01*
X2730010D01*
X2767140Y1037860D01*
G03X2804280Y1022480I37140J37153D01*
G01X3050000D01*
G03X3087140Y1037860I0J52533D01*
G01X3124270Y1075000D01*
X3147270D01*
X3147680Y1070370D01*
G03X3162860Y1037860I52318J4630D01*
G01X3212860Y987860D01*
G03X3250000Y972480I37140J37153D01*
G01X3329900D01*
G03X3375000Y955770I45100J52507D01*
G03Y1094230I0J69230D01*
G03X3357010Y1091850I6J-69229D01*
G02X3344210Y1101450I-2640J9813D01*
G03X3327520Y1145100I-69212J-1448D01*
G01Y1252520D01*
X3350000Y1275000D01*
X3875000D01*
X3905140Y1244860D01*
G02X3897950Y1227520I-7188J-7180D01*
G01X3825000D01*
G03X3787860Y1212140I0J-52533D01*
G01X3447860Y872140D01*
G03X3432480Y835000I37153J-37140D01*
G01Y444020D01*
X3400440Y411960D01*
X3400410Y411940D01*
G03X3363700Y325000I84595J-86940D01*
G03X3606300I121300J0D01*
G03X3569590Y411940I-121305J0D01*
G01X3569560Y411960D01*
X3537520Y444020D01*
Y813250D01*
X3796530Y1072250D01*
G02X3812830Y1069540I7181J-7185D01*
G03X3822480Y1054900I62161J30473D01*
G01Y975000D01*
G03X3824780Y959640I52518J12D01*
G01X3825000Y958910D01*
Y950000D01*
X3975000Y800000D01*
X4153810D01*
G03X4162860Y787860I46194J24993D01*
G01X4180940Y769780D01*
X4181130Y767980D01*
G03X4250000Y705770I68870J7016D01*
G03X4319230Y775000I0J69230D01*
G03X4316590Y793940I-69231J4D01*
G02X4326360Y806880I9771J2781D01*
G01X4388100D01*
G03X4437330Y837330I0J55021D01*
G01X4475000Y875000D01*
Y982220D01*
G03X4509230Y1050000I-49992J67780D01*
G03X4485170Y1108950I-84232J6D01*
G02Y1116050I3627J3550D01*
G03X4509230Y1175000I-60172J58944D01*
G03X4476950Y1241300I-84227J0D01*
G01X4475000Y1242830D01*
Y1255770D01*
G03X4543870Y1317980I0J69226D01*
G01X4544060Y1319780D01*
X4574270Y1350000D01*
G37*
G36*
G01X850000Y4400000D02*
X2615840D01*
G02X2623030Y4382660I2J-10160D01*
G01X2492890Y4252520D01*
X2112500D01*
G03X2057690Y4229810I8J-77517D01*
G01X1705390Y3877520D01*
X1512500D01*
G03Y3722480I0J-77520D01*
G01X1780390D01*
X1947480Y3555390D01*
Y3275000D01*
G03X1970190Y3220190I77517J8D01*
G01X2945190Y2245190D01*
G03X3000000Y2222480I54818J54807D01*
G01X4467890D01*
X4522480Y2167890D01*
Y2123080D01*
G03X4504980Y2090000I22515J-33080D01*
G01Y2042520D01*
X4490000D01*
G03X4452860Y2027140I0J-52533D01*
G01X4450730Y2025000D01*
X4167780D01*
G03X4100000Y2059230I-67780J-49992D01*
G03X4017950Y1994040I0J-84230D01*
G01X4017620Y1992620D01*
X3900000Y1875000D01*
X3799270D01*
X3762140Y1912140D01*
G03X3725000Y1927520I-37140J-37153D01*
G01X2775000D01*
G03X2737860Y1912140I0J-52533D01*
G01X2553470Y1727750D01*
G02X2537170Y1730460I-7181J7185D01*
G03X2475000Y1769230I-62170J-30462D01*
G03X2431260Y1753660I0J-69223D01*
G01X2429860Y1752520D01*
X2425000D01*
G03X2414020Y1751360I-3J-52520D01*
G03X2350000Y1794230I-64020J-26367D01*
G03X2280860Y1728450I0J-69226D01*
G03X2272480Y1700000I44137J-28460D01*
G01Y1575000D01*
X1675000D01*
X1575000Y1675000D01*
X1400000D01*
X1350000Y1725000D01*
Y2075000D01*
X1825000Y2550000D01*
Y2732080D01*
X1738500Y2818580D01*
X1606420D01*
X1350000Y3075000D01*
Y3500000D01*
G03X1200000Y3650000I-150000J0D01*
G01X850000D01*
G02X800000Y3700000I0J50000D01*
G01Y4096030D01*
G03X800020Y4100000I-400000J4000D01*
G01Y4351410D01*
G02X850000Y4400000I49980J-1410D01*
G37*
G36*
G01X1042400Y1276750D02*
X982840Y1217170D01*
X1050000Y1147310D01*
X1117160Y1217170D01*
X1057600Y1276750D01*
G03X1042400I-7600J-7600D01*
G37*
G36*
G01X1057600Y1373250D02*
X1117160Y1432830D01*
X1050000Y1502690D01*
X982840Y1432830D01*
X1042400Y1373250D01*
G03X1057600I7600J7600D01*
G37*
G36*
G01X5067160Y4400000D02*
X5350000D01*
G02X5400000Y4350000I0J-50000D01*
G01Y2150000D01*
G02X5350000Y2100000I-50000J0D01*
G01X4693920D01*
X4692720Y2103380D01*
G03X4677520Y2123080I-37715J-13386D01*
G01Y2200000D01*
G03X4654810Y2254810I-77517J-8D01*
G01X4554810Y2354810D01*
G03X4500000Y2377520I-54818J-54807D01*
G01X3032110D01*
X2102520Y3307110D01*
Y3587500D01*
G03X2079810Y3642310I-77517J-8D01*
G01X1890020Y3832110D01*
Y3842890D01*
X2144610Y4097480D01*
X2525000D01*
G03X2579810Y4120190I-8J77517D01*
G01X2732110Y4272480D01*
X3134070D01*
G02X3144110Y4260740I3J-10160D01*
G03X3143270Y4250000I68389J-10752D01*
G03X3144110Y4239260I69229J12D01*
G02X3134070Y4227520I-10037J-1580D01*
G01X3050000D01*
G03X3012860Y4212140I0J-52533D01*
G01X2978850Y4178120D01*
X2786900D01*
G03X2746880Y4138100I0J-40020D01*
G01Y4061900D01*
G03X2759780Y4032470I40021J0D01*
G02Y4017530I-6886J-7470D01*
G03X2746880Y3988100I27121J-29430D01*
G01Y3911900D01*
G03X2786900Y3871880I40020J0D01*
G01X2863100D01*
G03X2902860Y3907370I0J40017D01*
G01X2903380Y3911880D01*
X2936920D01*
Y3988120D01*
X2903380D01*
X2902860Y3992630D01*
G03X2898410Y4006940I-39764J-4518D01*
G02X2907370Y4021880I8964J4781D01*
G01X3013100D01*
G03X3053120Y4061900I0J40020D01*
G01Y4103850D01*
X3071750Y4122480D01*
X3167400D01*
G03X3212500Y4105770I45100J52507D01*
G03X3250000Y4116810I-6J69228D01*
G03X3287500Y4105770I37506J58188D01*
G03X3325000Y4116810I-6J69228D01*
G03X3362500Y4105770I37506J58188D01*
G03X3400000Y4116810I-6J69228D01*
G03X3437500Y4105770I37506J58188D01*
G03X3506730Y4175000I0J69230D01*
G03X3495690Y4212500I-69228J-6D01*
G03X3506730Y4250000I-58188J37506D01*
G03X3505890Y4260740I-69229J-12D01*
G02X3515930Y4272480I10037J1580D01*
G01X4547990D01*
G02X4555720Y4255730I-1J-10159D01*
G03X4526700Y4177000I92286J-78730D01*
G03X4557980Y4095700I121294J0D01*
G01Y4004300D01*
G03X4526700Y3923000I90014J-81300D01*
G03X4769300I121300J0D01*
G03X4738020Y4004300I-121294J0D01*
G01Y4095700D01*
G03X4769300Y4177000I-90014J81300D01*
G03X4740280Y4255730I-121306J0D01*
G02X4748010Y4272480I7731J6591D01*
G01X4801990D01*
G02X4809720Y4255730I-1J-10159D01*
G03X4780700Y4177000I92286J-78730D01*
G03X4811980Y4095700I121294J0D01*
G01Y4004300D01*
G03X4780700Y3923000I90014J-81300D01*
G03X5023300I121300J0D01*
G03X4992020Y4004300I-121294J0D01*
G01Y4095700D01*
G03X5023300Y4177000I-90014J81300D01*
G03X5022810Y4187860I-121299J-32D01*
G01X5022600Y4190230D01*
X5027870Y4195500D01*
X5035190Y4188180D01*
X5035020Y4185860D01*
G03X5034700Y4177000I120982J-8805D01*
G03X5156000Y4298300I121300J0D01*
G03X5147140Y4297980I-55J-121302D01*
G01X5144820Y4297810D01*
X5059970Y4382660D01*
G02X5067160Y4400000I7188J7180D01*
G37*
G36*
G01X3476160Y431110D02*
X3427540Y382470D01*
X3485000Y321880D01*
X3542460Y382470D01*
X3493840Y431110D01*
G03X3476160I-8840J-8840D01*
G37*
%LPC*%
G75*
G36*
G01X938790Y2896520D02*
G03X946570Y2913210I-3J10160D01*
G02X914980Y3000000I103428J86790D01*
G02X1185020I135020J0D01*
G02X1144110Y2903190I-135017J7D01*
G01X1144090Y2903160D01*
X1100150Y2859210D01*
X1099860Y2857680D01*
G02X1085900Y2831350I-49860J9570D01*
G01X1079550Y2825000D01*
X1085900Y2818650D01*
G02X1099860Y2792320I-35900J-35900D01*
G01X1100150Y2790790D01*
X1144090Y2746840D01*
X1144110Y2746810D01*
G02X1185020Y2650000I-94107J-96817D01*
G02X1050000Y2514980I-135020J0D01*
G02X929620Y2588840I0J135030D01*
G03X911720Y2589240I-9057J-4599D01*
G02X871520Y2555260I-65967J37273D01*
G01Y1430900D01*
G02X856650Y1395000I-50771J0D01*
G01X730000Y1268350D01*
G02X694100Y1253480I-35900J35901D01*
G01X661210D01*
G03X653430Y1236790I3J-10160D01*
G02X685020Y1150000I-103428J-86790D01*
G02X414980I-135020J0D01*
G02X455890Y1246810I135017J-7D01*
G01X455910Y1246840D01*
X499850Y1290790D01*
X500140Y1292320D01*
G02X514100Y1318650I49860J-9570D01*
G01X520450Y1325000D01*
X514100Y1331350D01*
G02X500140Y1357680I35900J35900D01*
G01X499850Y1359210D01*
X455910Y1403160D01*
X455890Y1403190D01*
G02X414980Y1500000I94107J96817D01*
G02X550000Y1635020I135020J0D01*
G02X670380Y1561160I0J-135030D01*
G03X688280Y1560760I9057J4599D01*
G02X728480Y1594740I65967J-37273D01*
G01Y2719100D01*
G02X743350Y2755000I50771J0D01*
G01X870000Y2881650D01*
G02X905900Y2896520I35900J-35901D01*
G01X938790D01*
G37*
G36*
G01X2071880Y2713100D02*
G02X2087640Y2744930I40023J0D01*
G02X2080770Y2775000I62373J30070D01*
G02X2219230I69230J0D01*
G02X2212360Y2744930I-69243J0D01*
G02X2228120Y2713100I-24263J-31830D01*
G01Y2636900D01*
G02X2215220Y2607470I-40021J0D01*
G03Y2592530I6886J-7470D01*
G02X2228120Y2563100I-27121J-29430D01*
G01Y2521150D01*
X2287140Y2462140D01*
G02X2302520Y2425000I-37153J-37140D01*
G01Y2221750D01*
X2371750Y2152520D01*
X3775000D01*
G02X3812140Y2137140I0J-52533D01*
G01X3855220Y2094060D01*
X3857020Y2093870D01*
G02X3919230Y2025000I-7016J-68870D01*
G02X3850000Y1955770I-69230J0D01*
G02X3803420Y1973790I6J69228D01*
G03X3796580I-3420J-3762D01*
G02X3750000Y1955770I-46586J51208D01*
G02X3704900Y1972480I0J69217D01*
G01X2225570D01*
X2224190Y1969600D01*
G02X2188100Y1946880I-36090J17304D01*
G01X2111900D01*
G02X2071880Y1986900I0J40020D01*
G01Y2063100D01*
G02X2084780Y2092530I40021J0D01*
G03Y2107470I-6886J7470D01*
G02X2071880Y2136900I27121J29430D01*
G01Y2213100D01*
G02X2087640Y2244930I40023J0D01*
G02X2080770Y2275000I62373J30070D01*
G02X2150000Y2344230I69230J0D01*
G02X2182540Y2336100I-11J-69227D01*
G03X2197480Y2345070I4779J8968D01*
G01Y2403250D01*
X2153850Y2446880D01*
X2111900D01*
G02X2071880Y2486900I0J40020D01*
G01Y2563100D01*
G02X2084780Y2592530I40021J0D01*
G03Y2607470I-6886J7470D01*
G02X2071880Y2636900I27121J29430D01*
G01Y2713100D01*
G37*
G36*
G01X3275000Y2975000D02*
X3993030D01*
X3993480Y2975080D01*
G02X4003480Y2976000I10019J-54098D01*
G01X4196520D01*
G02X4206520Y2975080I-19J-55018D01*
G01X4206970Y2975000D01*
X4225000D01*
X4300000Y2900000D01*
X4675000D01*
X4700000Y2875000D01*
Y2525000D01*
X4675000Y2500000D01*
X4300000D01*
X4225000Y2425000D01*
X3275000D01*
X3225000Y2475000D01*
Y2925000D01*
X3275000Y2975000D01*
G37*
G36*
G01X2746880Y3461900D02*
Y3538100D01*
G02X2786900Y3578120I40020J0D01*
G01X2863100D01*
G02X2902860Y3542630I0J-40017D01*
G01X2903380Y3538120D01*
X2936920D01*
Y3461880D01*
X2903380D01*
X2902860Y3457370D01*
G02X2898410Y3443060I-39764J4518D01*
G03X2907370Y3428120I8964J-4781D01*
G01X3013100D01*
G02X3053120Y3388100I0J-40020D01*
G01Y3315020D01*
X3491580D01*
X3540020Y3266580D01*
Y3108420D01*
X3491580Y3059980D01*
X2433420D01*
X2159980Y3333420D01*
Y3416580D01*
X2258420Y3515020D01*
X2541580D01*
X2729540Y3327060D01*
G03X2746880Y3334240I7181J7186D01*
G01Y3388100D01*
G02X2759780Y3417530I40021J0D01*
G03Y3432470I-6886J7470D01*
G02X2746880Y3461900I27121J29430D01*
G37*
G54D39*
X4391160Y3299040D03*
G54D37*
X550000Y2650000D03*
Y3000000D03*
G54D38*
X2469000Y325000D03*
X2723000D03*
X2977000D03*
X3231000D03*
X5175000Y2571000D03*
Y2825000D03*
X5156000Y3923000D03*
%LPD*%
G75*
G36*
G01X542400Y1276750D02*
X482840Y1217170D01*
X550000Y1147310D01*
X617160Y1217170D01*
X557600Y1276750D01*
G03X542400I-7600J-7600D01*
G37*
G36*
G01X557600Y1373250D02*
X617160Y1432830D01*
X550000Y1502690D01*
X482840Y1432830D01*
X542400Y1373250D01*
G03X557600I7600J7600D01*
G37*
G36*
G01X1042400Y2776750D02*
X982840Y2717170D01*
X1050000Y2647310D01*
X1117160Y2717170D01*
X1057600Y2776750D01*
G03X1042400I-7600J-7600D01*
G37*
G36*
G01X1057600Y2873250D02*
X1117160Y2932830D01*
X1050000Y3002690D01*
X982840Y2932830D01*
X1042400Y2873250D01*
G03X1057600I7600J7600D01*
G37*
G36*
G01X2200000Y3350000D02*
Y3400000D01*
X2275000Y3475000D01*
X2525000D01*
X2725000Y3275000D01*
X3475000D01*
X3500000Y3250000D01*
Y3125000D01*
X3475000Y3100000D01*
X2450000D01*
X2200000Y3350000D01*
G37*
%LPC*%
G75*
G54D40*
X2350000Y3375000D03*
%LPD*%
G75*
G54D10*
X400000Y400000D03*
Y4100000D03*
X4391160Y3299040D03*
G54D11*
X550000Y1150000D03*
Y1500000D03*
Y1850000D03*
Y2650000D03*
Y3000000D03*
Y3350000D03*
X1050000Y1150000D03*
Y1500000D03*
Y1850000D03*
Y2650000D03*
Y3000000D03*
Y3350000D03*
G54D20*
X2485000Y1250000D03*
Y1300000D03*
Y1350000D03*
Y1400000D03*
Y1450000D03*
Y1500000D03*
G54D30*
G01X3200000D02*
X3050000D01*
G01X3475000Y1750000D02*
X3400000D01*
G01X3475000Y1400000D02*
X3550000D01*
G01D02*
X3625000D01*
G01X3475000Y1550000D02*
X3525000D01*
X3550000Y1525000D01*
G01X3625000Y1550000D02*
X3575000D01*
X3550000Y1525000D01*
G01X3625000Y1750000D02*
Y1700000D01*
X3575000Y1650000D01*
G01X4200000Y1050000D02*
X4125000Y1125000D01*
G01X4200000Y1200000D02*
X4125000Y1125000D01*
G01X4100000Y1750000D02*
X4150000D01*
X4200000Y1800000D01*
G01X4100000Y1900000D02*
Y1975000D01*
G01X4350000Y1050000D02*
X4425000D01*
G01X4350000Y1200000D02*
X4400000D01*
X4425000Y1175000D01*
G01X4870000Y1790000D02*
X4610000D01*
X4600000Y1800000D01*
G01X4870000Y1230000D02*
X4875000Y1225000D01*
X5025000D01*
G01X4870000Y1310000D02*
X5185000D01*
X5375000Y1500000D01*
Y1700000D01*
X5285000Y1790000D01*
X4870000D01*
G01Y1870000D02*
X4875000Y1875000D01*
X5025000D01*
G01Y1225000D02*
X5075000D01*
G01D02*
X5125000D01*
G01X5075000Y1875000D02*
X5125000D01*
G01X5025000D02*
X5075000D01*
G54D12*
X850000Y150000D03*
Y350000D03*
Y550000D03*
Y3700000D03*
Y3900000D03*
Y4150000D03*
Y4350000D03*
X1050000Y150000D03*
Y3700000D03*
Y4350000D03*
X1250000Y150000D03*
X1100000Y700000D03*
X1200000D03*
X1100000Y800000D03*
X1200000D03*
X1250000Y3700000D03*
Y3900000D03*
Y4350000D03*
X1450000Y150000D03*
X1400000Y900000D03*
X1437500Y4200000D03*
X1450000Y4350000D03*
X1650000Y150000D03*
X1550000Y900000D03*
X1525000Y1900000D03*
X1625000D03*
X1525000Y1825000D03*
X1625000D03*
X1525000Y1975000D03*
X1625000D03*
X1512500Y3800000D03*
X1587500D03*
X1662500D03*
X1512500Y4200000D03*
X1587500D03*
X1662500D03*
X1650000Y4350000D03*
X1850000Y150000D03*
X1700000Y1000000D03*
X1725000Y1900000D03*
Y1825000D03*
Y1975000D03*
X1737500Y3800000D03*
X1812500D03*
X1737500Y4200000D03*
X1812500D03*
X1850000Y4350000D03*
X2050000Y150000D03*
X1900000Y1000000D03*
X1975000Y1675000D03*
Y1850000D03*
Y2050000D03*
Y2250000D03*
Y2450000D03*
X1875000Y2600000D03*
Y2800000D03*
Y2700000D03*
Y2900000D03*
Y3000000D03*
Y3100000D03*
Y3350000D03*
X1887500Y4200000D03*
X2050000Y4350000D03*
X2250000Y150000D03*
X2100000Y1000000D03*
X2175000Y1675000D03*
X2150000Y2275000D03*
Y2775000D03*
X2250000Y3375000D03*
X2150000Y4025000D03*
X2250000Y4350000D03*
X2300000Y1000000D03*
X2350000Y1850000D03*
Y1725000D03*
X2400000Y2250000D03*
Y2450000D03*
X2375000Y2700000D03*
X2350000Y3375000D03*
Y4025000D03*
X2450000Y150000D03*
X2500000Y1000000D03*
X2600000Y1300000D03*
X2450000Y1150000D03*
X2600000Y1450000D03*
X2450000Y1600000D03*
X2475000Y1700000D03*
X2625000Y2250000D03*
Y2450000D03*
X2550000Y3000000D03*
X2500000Y3425000D03*
X2550000Y4025000D03*
X2450000Y4350000D03*
X2650000Y150000D03*
X2700000Y1000000D03*
X2750000Y1300000D03*
Y1450000D03*
X2825000Y1700000D03*
X2725000D03*
X2825000Y2250000D03*
X2750000Y2800000D03*
Y3000000D03*
X2850000Y150000D03*
X2900000Y950000D03*
X3025000Y1150000D03*
X3000000Y1337500D03*
X2900000Y1600000D03*
X2925000Y2625000D03*
X2950000Y3000000D03*
X3050000Y150000D03*
X3100000Y950000D03*
X3125000Y1150000D03*
X3100000Y1300000D03*
X3050000Y1650000D03*
X3200000D03*
X3075000Y2450000D03*
X3150000Y2600000D03*
Y2800000D03*
Y3000000D03*
X3212500Y3225000D03*
Y3150000D03*
Y3725000D03*
Y4250000D03*
Y4175000D03*
X3250000Y150000D03*
X3275000Y1100000D03*
X3375000Y1025000D03*
X3400000Y1750000D03*
X3300000Y2625000D03*
Y2509500D03*
X3287500Y3225000D03*
X3362500D03*
Y3150000D03*
X3287500D03*
X3250000Y3650000D03*
X3325000D03*
X3400000D03*
X3287500Y3725000D03*
X3362500D03*
X3250000Y3800000D03*
X3325000D03*
X3400000D03*
X3362500Y4250000D03*
X3287500D03*
Y4175000D03*
X3362500D03*
X3450000Y150000D03*
X3575000Y1125000D03*
X3550000Y1400000D03*
Y1525000D03*
X3575000Y1650000D03*
X3437500Y3225000D03*
Y3150000D03*
Y3725000D03*
X3512500D03*
X3587500D03*
X3437500Y4250000D03*
Y4175000D03*
X3650000Y150000D03*
X3775000Y700000D03*
X3750000Y1400000D03*
X3800000Y1700000D03*
X3750000Y2025000D03*
X3650000Y2650000D03*
Y2750000D03*
X3662500Y3725000D03*
X3737500D03*
X3850000Y150000D03*
X3912500Y437500D03*
X3935610Y709850D03*
X3875000Y1100000D03*
X4000000Y1300000D03*
X3975000Y1175000D03*
X3850000Y2025000D03*
X3900000Y2150000D03*
X3950000Y2550000D03*
Y2850000D03*
X3850000Y3575000D03*
Y3675000D03*
Y3775000D03*
Y3875000D03*
X3900000Y4200000D03*
X4050000Y150000D03*
X4100000Y700000D03*
X4125000Y1125000D03*
Y1275000D03*
X4200000Y1800000D03*
X4100000Y1975000D03*
X4250000Y150000D03*
Y775000D03*
X4400000Y2150000D03*
X4496000Y150000D03*
Y703200D03*
X4425000Y1050000D03*
Y1175000D03*
X4475000Y1325000D03*
Y1425000D03*
X4500000Y2625000D03*
Y2775000D03*
X4623000Y150000D03*
X4750000D03*
X4623000Y703200D03*
X4750000D03*
Y950000D03*
Y2150000D03*
X4775000Y2700000D03*
X4925000Y400000D03*
X4950000Y950000D03*
Y2150000D03*
X4800000Y2450000D03*
Y2950000D03*
X5004000Y150000D03*
X5150000D03*
X5004000Y703200D03*
X5150000Y950000D03*
X5025000Y1225000D03*
X5075000D03*
X5125000D03*
X5025000Y1700000D03*
Y1875000D03*
X5075000D03*
X5125000D03*
X5150000Y2150000D03*
Y4350000D03*
X5350000Y150000D03*
Y350000D03*
Y550000D03*
Y750000D03*
Y950000D03*
Y1325000D03*
X5267400Y1543170D03*
Y1656840D03*
X5350000Y2150000D03*
Y2350000D03*
Y2550000D03*
Y2750000D03*
Y2950000D03*
Y3150000D03*
Y3350000D03*
Y3550000D03*
Y3750000D03*
Y3950000D03*
Y4150000D03*
Y4350000D03*
G54D21*
X2865000Y1250000D03*
Y1450000D03*
Y1400000D03*
Y1350000D03*
Y1300000D03*
Y1500000D03*
G54D31*
G01X3750000Y2025000D02*
X2150000D01*
G01Y2275000D02*
Y2175000D01*
G01Y2525000D02*
X2250000Y2425000D01*
Y2200000D01*
X2350000Y2100000D01*
X3775000D01*
X3850000Y2025000D01*
G01X2150000Y2775000D02*
Y2675000D01*
G01X2350000Y1725000D02*
X2325000Y1700000D01*
Y1554260D01*
X2362500Y1516760D01*
Y1454280D01*
X2416780Y1400000D01*
X2485000D01*
G01X2475000Y1700000D02*
X2425000D01*
X2375000Y1650000D01*
Y1574980D01*
X2412500Y1537480D01*
Y1475000D01*
X2437500Y1450000D01*
X2485000D01*
G01X2550000Y1185000D02*
Y1250000D01*
X2600000Y1300000D01*
G01X2450000Y1150000D02*
X2485000Y1185000D01*
Y1250000D01*
G01X2550000Y1565000D02*
Y1650000D01*
X2775000Y1875000D01*
X3725000D01*
X3800000Y1800000D01*
Y1700000D01*
G01X2450000Y1600000D02*
X2485000Y1565000D01*
Y1500000D01*
G01X2800000Y1185000D02*
Y1150000D01*
X2825010Y1124990D01*
X2850280D01*
G03X2875280Y1149990I0J25000D01*
G01Y1150000D01*
G02X2900280Y1175000I25000J0D01*
G01X2905280D01*
G02X2930280Y1150000I0J-25000D01*
G01Y1149990D01*
G03X2955280Y1124990I25000J0D01*
G01X2999990D01*
X3025000Y1150000D01*
G01X3125000D02*
X3050000Y1075000D01*
X2804280D01*
X2750000Y1129280D01*
Y1185000D01*
G01X2900000Y1600000D02*
X2825000D01*
X2800000Y1575000D01*
Y1565000D01*
G01X2825000Y1700000D02*
X2750000Y1625000D01*
Y1565000D01*
G01X2725000Y1700000D02*
X2700000Y1675000D01*
Y1565000D01*
G01X3375000Y1025000D02*
X3250000D01*
X3200000Y1075000D01*
Y1175000D01*
X3150000Y1225000D01*
X2929280D01*
X2904280Y1250000D01*
X2865000D01*
G01Y1300000D02*
X2925000D01*
X2950000Y1275000D01*
X3075000D01*
X3100000Y1300000D01*
G01X3275000Y1100000D02*
Y1250000D01*
X3125000Y1400000D01*
X2865000D01*
G01X3000000Y1337500D02*
X2987500Y1350000D01*
X2865000D01*
G01Y1500000D02*
X3050000D01*
G01X2975000Y3350000D02*
Y3250000D01*
G01X2825000Y3500000D02*
Y3350000D01*
G01Y4100000D02*
Y3950000D01*
G01X3212500Y4175000D02*
X3050000D01*
X2975000Y4100000D01*
G01X3975000Y1175000D02*
X3825000D01*
X3485000Y835000D01*
Y325000D01*
G01X3650000Y2650000D02*
X3636500Y2636500D01*
X3500000D01*
G01X3650000Y2750000D02*
X3636500Y2763500D01*
X3500000D01*
G01X3850000Y1400000D02*
X3750000D01*
G01X4050000Y900000D02*
X3950000D01*
X3875000Y975000D01*
Y1100000D01*
G01X3850000Y1550000D02*
Y1400000D01*
G01X3950000Y2550000D02*
X3990500Y2509500D01*
X4100000D01*
G01X3950000Y2850000D02*
X3990500Y2890500D01*
X4100000D01*
G01X4050000Y1050000D02*
X4125000Y1125000D01*
G01X4050000Y900000D02*
X4200000D01*
G01X4125000Y1275000D02*
X4200000Y1350000D01*
G01X4000000Y1300000D02*
Y1400000D01*
G01D02*
Y1550000D01*
G01D02*
X4150000D01*
G01X4200000Y900000D02*
Y825000D01*
X4250000Y775000D01*
G01X4425000Y1050000D02*
Y925000D01*
X4400000Y900000D01*
X4350000D01*
G01Y1350000D02*
Y1200000D01*
G01X4600000Y1990000D02*
X4490000D01*
X4437500Y1937500D01*
Y1612500D01*
X4375000Y1550000D01*
X4300000D01*
G01X4475000Y1325000D02*
X4575000Y1425000D01*
X4870000D01*
G01X4475000D02*
Y1475000D01*
X4725000Y1725000D01*
X4870000D01*
G54D22*
X3500000Y2509500D03*
Y2636500D03*
Y2763500D03*
Y2890500D03*
X4100000Y2509500D03*
Y2636500D03*
Y2763500D03*
Y2890500D03*
G54D13*
X1675000Y2636970D03*
Y2863030D03*
G54D32*
G01X550000Y1150000D02*
Y1282750D01*
X571500Y1304250D01*
X694100D01*
X820750Y1430900D01*
Y2576510D01*
G02X845750Y2601510I25000J0D01*
G03Y2651510I0J25000D01*
G02X820750Y2676510I0J25000D01*
G01Y2701910D01*
X923090Y2804250D01*
X1028500D01*
X1050000Y2782750D01*
Y2650000D01*
G01X550000Y1500000D02*
Y1367250D01*
X571500Y1345750D01*
X676910D01*
X779250Y1448090D01*
Y1473490D01*
G03X754250Y1498490I-25000J0D01*
G02Y1548490I0J25000D01*
G03X779250Y1573490I0J25000D01*
G01Y2719100D01*
X905900Y2845750D01*
X1028500D01*
X1050000Y2867250D01*
Y3000000D01*
G01X1675000Y1250000D02*
X1620750Y1304250D01*
X1071500D01*
X1050000Y1282750D01*
Y1150000D01*
G01Y1500000D02*
Y1367250D01*
X1071500Y1345750D01*
X1620750D01*
X1675000Y1400000D01*
G01X1984000Y1246500D02*
X1828500D01*
X1825000Y1250000D01*
G01X1984000Y1403500D02*
X1828500D01*
X1825000Y1400000D01*
G01X2266000Y1246500D02*
X2321500D01*
X2375000Y1300000D01*
X2485000D01*
G01X2266000Y1403500D02*
X2321500D01*
X2375000Y1350000D01*
X2485000D01*
G54D23*
X4496000Y196800D03*
Y603200D03*
X4750000Y196800D03*
X4623000D03*
X4750000Y603200D03*
X4623000D03*
X4877000Y196800D03*
Y603200D03*
X5004000Y196800D03*
Y603200D03*
G54D14*
X1675000Y1250000D03*
X1825000D03*
X1675000Y1400000D03*
X1825000D03*
X2150000Y2025000D03*
Y2175000D03*
Y2525000D03*
Y2675000D03*
X2825000Y3350000D03*
Y3500000D03*
Y3950000D03*
Y4100000D03*
X2975000Y3350000D03*
Y3500000D03*
Y3950000D03*
Y4100000D03*
X3200000Y1500000D03*
X3050000D03*
X3200000Y1650000D03*
X3050000D03*
X3475000Y1400000D03*
Y1550000D03*
Y1750000D03*
X3625000Y1400000D03*
Y1550000D03*
Y1750000D03*
X3850000Y1400000D03*
X4000000D03*
Y1550000D03*
X3850000D03*
X4200000Y900000D03*
X4050000D03*
X4200000Y1050000D03*
X4050000D03*
X4200000Y1200000D03*
Y1350000D03*
X4150000Y1550000D03*
X4100000Y1750000D03*
Y1900000D03*
X4350000Y900000D03*
Y1050000D03*
Y1200000D03*
Y1350000D03*
X4300000Y1550000D03*
G54D33*
G01X70000Y-400000D02*
Y-240000D01*
X42000Y-272000D01*
G01Y-400000D02*
X98000D01*
G01X5470000Y-240000D02*
Y-400000D01*
G01X5416330Y-240000D02*
X5523670D01*
G01X5680000Y-400000D02*
X5661330Y-397330D01*
X5645000Y-386670D01*
X5631000Y-370670D01*
X5621660Y-352000D01*
X5617000Y-330670D01*
Y-309330D01*
X5621660Y-288000D01*
X5631000Y-269330D01*
X5645000Y-253340D01*
X5661330Y-242670D01*
X5680000Y-240000D01*
X5698660Y-242670D01*
X5715000Y-253340D01*
X5729000Y-269330D01*
X5738340Y-288000D01*
X5743000Y-309330D01*
Y-330670D01*
X5738340Y-352000D01*
X5729000Y-370670D01*
X5715000Y-386670D01*
X5698660Y-397330D01*
X5680000Y-400000D01*
G01X5843330D02*
Y-240000D01*
X5899330D01*
X5918000Y-248000D01*
X5932000Y-266670D01*
X5936670Y-288000D01*
X5932000Y-309330D01*
X5920330Y-325330D01*
X5899330Y-333340D01*
X5843330D01*
G54D24*
X4600000Y1990000D03*
G54D15*
X1984000Y1246500D03*
Y1403500D03*
X2266000Y1246500D03*
Y1403500D03*
X4334000Y2621500D03*
Y2778500D03*
X4616000Y2621500D03*
Y2778500D03*
G54D34*
G01X3300000Y2625000D02*
Y2850010D01*
X3340490Y2890500D01*
X3500000D01*
G01X3300000Y2509500D02*
X3500000D01*
G01X4334000Y2621500D02*
X4319000Y2636500D01*
X4100000D01*
G01X4334000Y2778500D02*
X4319000Y2763500D01*
X4100000D01*
G01X4500000Y2625000D02*
X4612500D01*
X4616000Y2621500D01*
G01X4500000Y2775000D02*
X4612500D01*
X4616000Y2778500D01*
G01X4870000Y1475000D02*
X4769610D01*
X4725000Y1519610D01*
Y1580390D01*
X4769610Y1625000D01*
X4870000D01*
G01Y1525000D02*
X4787500D01*
X4775000Y1537500D01*
Y1562500D01*
X4787500Y1575000D01*
X4870000D01*
G01X5267400Y1543170D02*
X5235570Y1575000D01*
X4870000D01*
G01X5267400Y1656840D02*
X5235560Y1625000D01*
X4870000D01*
G54D16*
X2215000Y325000D03*
X2469000D03*
X2723000D03*
X2977000D03*
X3231000D03*
X3485000D03*
X4394000Y3923000D03*
Y4177000D03*
X4648000Y3923000D03*
Y4177000D03*
X4902000Y3923000D03*
Y4177000D03*
X5175000Y2571000D03*
Y2825000D03*
Y3079000D03*
X5156000Y3923000D03*
Y4177000D03*
G54D25*
X4600000Y1800000D03*
G54D35*
G01X1512500Y3800000D02*
X1587500D01*
G01D02*
X1662500D01*
G01D02*
X1737500D01*
G01D02*
X1812500D01*
G01D02*
Y3875000D01*
G01Y3800000D02*
X2025000Y3587500D01*
Y3275000D01*
X3000000Y2300000D01*
X4500000D01*
X4600000Y2200000D01*
Y1990000D01*
G01X1812500Y3875000D02*
X1737500Y3800000D01*
G01X1812500Y3875000D02*
X2112500Y4175000D01*
X2525000D01*
X2700000Y4350000D01*
X4983000D01*
X5156000Y4177000D01*
G54D17*
X2300000Y3675000D03*
G54D26*
X4927500Y1118000D03*
Y1982000D03*
G54D36*
G01X4648000Y4177000D02*
Y3923000D01*
G01X4902000Y4177000D02*
Y3923000D01*
G54D18*
X2675000Y1375000D03*
G54D27*
X4870000Y1230000D03*
Y1310000D03*
Y1870000D03*
Y1790000D03*
G54D28*
Y1375000D03*
Y1425000D03*
Y1475000D03*
Y1675000D03*
Y1625000D03*
Y1525000D03*
Y1575000D03*
Y1725000D03*
G54D19*
X2600000Y1185000D03*
X2550000D03*
Y1565000D03*
X2600000D03*
X2800000Y1185000D03*
X2750000D03*
X2700000D03*
X2650000D03*
Y1565000D03*
X2700000D03*
X2750000D03*
X2800000D03*
G54D29*
X5327500Y1118000D03*
Y1982000D03*
M02*
