M48
METRIC,TZ
T01C.254
T02C1.
T03C1.016
T04C2.9972
;LEADER: 12 
;HEADER: 
;CODE  : ASCII 
;FILE  : lynx_lite-1-4.drl for  ... layers TOP and BOTTOM
;DESIGN: lynx_lite.brd
;T01 Holesize 1. = 0.254000 Tolerance = +0.000000/-0.000000 PLATED MM Quantity = 249
;T02 Holesize 2. = 1.000000 Tolerance = +0.000000/-0.000000 PLATED MM Quantity = 12
;T03 Holesize 3. = 1.016000 Tolerance = +0.000000/-0.000000 PLATED MM Quantity = 17
;T04 Holesize 4. = 2.997200 Tolerance = +0.000000/-0.000000 NON_PLATED MM Quantity = 3
%
G90
T01
X4475000Y1425000
X4475000Y1325000
X5267400Y1656840
X5267400Y1543170
X3300000Y2509500
X3300000Y2625000
X2150000Y2775000
X2725000Y1700000
X2825000Y1700000
X2350000Y1725000
X2475000Y1700000
X3975000Y1175000
X4125000Y1275000
X3750000Y2025000
X2150000Y2275000
X3850000Y2025000
X3000000Y1337500
X1812500Y3800000
R04X-75000
X3650000Y2650000
X5350000Y1325000
X3437500Y4175000
R03X-75000
X3437500Y4250000
X3287500Y4250000
X3362500Y4250000
X3212500Y4250000
X2350000Y3375000
X2450000Y1600000
X2450000Y1150000
X2400000Y2450000
X2375000Y2700000
X2625000Y2450000
X2825000Y2250000
X3150000Y2600000
X3150000Y3000000
X2950000Y3000000
R02X-200000
X3075000Y2450000
X2925000Y2625000
X2750000Y2800000
X3150000Y2800000
X3750000Y1400000
X1250000Y3700000
X5350000Y3750000
R07Y-200000
X4750000Y2150000
R03X200000
X4950000Y950000
X5150000Y950000
X4750000Y950000
X3575000Y1125000
X2400000Y2250000
X2625000Y2250000
X4400000Y2150000
X3900000Y2150000
X2350000Y1850000
X3850000Y3875000
R03Y-100000
X3900000Y4200000
X4250000Y150000
X5350000Y950000
R03Y-200000
X5125000Y1875000
R02X-50000
X5125000Y1225000
R02X-50000
X5025000Y1700000
X4925000Y400000
X5350000Y4150000
X5350000Y3950000
X5350000Y4350000
X5350000Y150000
X3575000Y1650000
X3550000Y1400000
X4100000Y1975000
X4425000Y1050000
X4425000Y1175000
X3912500Y437500
X4100000Y700000
X3775000Y700000
X3935610Y709850
X5150000Y150000
X5004000Y150000
X4750000Y150000
X4623000Y150000
X4050000Y150000
X3850000Y150000
X1250000Y3900000
X1550000Y900000
X1400000Y900000
X850000Y550000
X850000Y350000
X3650000Y150000
R14X-200000
X4800000Y2450000
X4800000Y2950000
X5150000Y4350000
X850000Y3900000
X850000Y4150000
X2450000Y4350000
R08X-200000
X850000Y3700000
X1050000Y3700000
X1875000Y3100000
R02Y-100000
X1875000Y2700000
X1875000Y2800000
X1875000Y2600000
X1975000Y2450000
R03Y-200000
X2550000Y4025000
R02X-200000
X3100000Y950000
X2900000Y950000
X1975000Y1675000
X2500000Y1000000
X2175000Y1675000
X2300000Y1000000
R03X-200000
X2700000Y1000000
X1200000Y700000
X1100000Y700000
X1200000Y800000
X1100000Y800000
X1887500Y4200000
R06X-75000
X1875000Y3350000
X2750000Y1300000
X2600000Y1300000
X2750000Y1450000
X2600000Y1450000
X3200000Y1650000
X3050000Y1650000
X4775000Y2700000
X3950000Y2850000
X3650000Y2750000
X1725000Y1975000
X1725000Y1825000
X1725000Y1900000
X1625000Y1975000
X1525000Y1975000
X1625000Y1825000
X1525000Y1825000
X1625000Y1900000
X1525000Y1900000
X3737500Y3725000
R03X-75000
X3400000Y3800000
R02X-75000
X3400000Y3650000
R02X-75000
X3437500Y3725000
R03X-75000
X3800000Y1700000
X3100000Y1300000
X3125000Y1150000
X3025000Y1150000
X3375000Y1025000
X3275000Y1100000
X4000000Y1300000
X5004000Y703200
X4250000Y775000
X3875000Y1100000
X4750000Y703200
R02X-127000
X2500000Y3425000
X3400000Y1750000
X3550000Y1525000
X4200000Y1800000
X4125000Y1125000
X4496000Y150000
X2250000Y3375000
X3437500Y3150000
X3437500Y3225000
X3287500Y3150000
X3362500Y3150000
X3362500Y3225000
X3287500Y3225000
X3212500Y3150000
X3212500Y3225000
X3950000Y2550000
X2900000Y1600000
X4500000Y2625000
X4500000Y2775000
X2376200Y3643250
X2376200Y3706750
X2300000Y3643250
X2300000Y3706750
X2223800Y3643250
X2223800Y3706750
T02
X1050000Y1850000
X550000Y1850000
X1050000Y1500000
X550000Y1500000
X1050000Y1150000
X550000Y1150000
X1050000Y3350000
X550000Y3350000
X1050000Y3000000
X550000Y3000000
X1050000Y2650000
X550000Y2650000
T03
X2215000Y325000
R05X254000
X5175000Y3079000
R02Y-254000
X4394000Y4177000
R03X254000
X4394000Y3923000
R03X254000
T04
X400000Y400000
X400000Y4100000
X4391160Y3299040
M30
