G04 ================== begin FILE IDENTIFICATION RECORD ==================*
G04 Layout Name:  Y:/Desktop/LynXLite/BOARD/lynx_lite.brd*
G04 Film Name:    LYNXLITE_02IN1.GL2*
G04 File Format:  Gerber RS274X*
G04 File Origin:  Cadence Allegro 25.1-S020*
G04 Origin Date:  Sun May 17 17:30:24 2026*
G04 *
G04 Layer:  BOARD GEOMETRY/CUTOUT*
G04 Layer:  BOARD GEOMETRY/DESIGN_OUTLINE*
G04 Layer:  VIA CLASS/IN1_GND_PLANE*
G04 Layer:  PIN/IN1_GND_PLANE*
G04 Layer:  ETCH/IN1_GND_PLANE*
G04 *
G04 Offset:    (0.0000 0.0000)*
G04 Mirror:    No*
G04 Mode:      Positive*
G04 Rotation:  0*
G04 FullContactRelief:  No*
G04 UndefLineWidth:     0.0000*
G04 ================== end FILE IDENTIFICATION RECORD ====================*
%FSLAX35Y35*MOMM*%
%IR0*IPPOS*OFA0.00000B0.00000*MIA0B0*SFA1.00000B1.00000*%
%ADD12C,.5842*%
%ADD11C,1.9*%
%ADD16O,2.2098X1.016*%
%ADD15O,1.8288X1.016*%
%ADD13C,1.6256*%
%ADD10C,2.9972*%
%AMMACRO14*
4,1,40,-1.1938,-.6477,
-1.1938,.6477,
-1.193028,.656521,
-1.190736,.665075,
-1.186994,.6731,
-1.181915,.680354,
-1.175654,.686615,
-1.1684,.691694,
-1.160375,.695436,
-1.151821,.697728,
-1.143,.6985,
1.143,.6985,
1.151821,.697728,
1.160375,.695436,
1.1684,.691694,
1.175654,.686615,
1.181915,.680354,
1.186994,.6731,
1.190736,.665075,
1.193028,.656521,
1.1938,.6477,
1.1938,-.6477,
1.193028,-.656521,
1.190736,-.665075,
1.186994,-.6731,
1.181915,-.680354,
1.175654,-.686615,
1.1684,-.691694,
1.160375,-.695436,
1.151821,-.697728,
1.143,-.6985,
-1.143,-.6985,
-1.151821,-.697728,
-1.160375,-.695436,
-1.1684,-.691694,
-1.175654,-.686615,
-1.181915,-.680354,
-1.186994,-.6731,
-1.190736,-.665075,
-1.193028,-.656521,
-1.1938,-.6477,
0.0*
%
%ADD14MACRO14*%
%ADD17C,.35*%
%ADD19C,2.126*%
%ADD18C,1.0846*%
%ADD20C,3.7976*%
G75*
%LPD*%
G75*
G36*
G01X400000Y4400000D02*
X5350000D01*
G02X5400000Y4350000I0J-50000D01*
G01Y2050000D01*
X5450000Y2000000D01*
Y1950000D01*
X5400000Y1900000D01*
Y1375580D01*
G02X5383550Y1367600I-10161J2D01*
G03X5350000Y1379230I-33557J-42598D01*
G03Y1270770I0J-54230D01*
G03X5383550Y1282400I-7J54228D01*
G02X5400000Y1274420I6289J-7982D01*
G01Y1200000D01*
X5450000Y1150000D01*
Y1100000D01*
X5400000Y1050000D01*
Y150000D01*
G02X5350000Y100000I-50000J0D01*
G01X4546580D01*
G02X4538600Y116450I2J10161D01*
G03X4550230Y150000I-42598J33557D01*
G03X4441770I-54230J0D01*
G03X4453400Y116450I54228J7D01*
G02X4445420Y100000I-7982J-6289D01*
G01X400000D01*
G02X100000Y400000I0J300000D01*
G01Y800000D01*
G02X150000Y850000I50000J0D01*
G01X1275000D01*
X1400000Y975000D01*
X1575000D01*
X1675000Y1075000D01*
X2300000D01*
X2378530Y1153530D01*
G02X2395860Y1146920I7186J-7183D01*
G03X2450000Y1095770I54140J3077D01*
G03Y1204230I0J54230D01*
G03X2416450Y1192600I7J-54228D01*
G02X2400000Y1200580I-6289J7982D01*
G01Y1475000D01*
X2300000Y1575000D01*
X1675000D01*
X1575000Y1675000D01*
X1400000D01*
X1350000Y1725000D01*
Y3500000D01*
G03X1200000Y3650000I-150000J0D01*
G01X150000D01*
G02X100000Y3700000I0J50000D01*
G01Y4100000D01*
G02X400000Y4400000I300000J0D01*
G37*
%LPC*%
G75*
G36*
G01X3276020Y2576360D02*
G02X3245770Y2625000I23980J48640D01*
G02X3354230I54230J0D01*
G02X3323980Y2576360I-54230J0D01*
G03Y2558140I4498J-9110D01*
G02X3354230Y2509500I-23980J-48640D01*
G02X3245770I-54230J0D01*
G02X3276020Y2558140I54230J0D01*
G03Y2576360I-4498J9110D01*
G37*
G36*
G01X5241910Y1608970D02*
G02X5213170Y1656840I25497J47870D01*
G02X5321630I54230J0D01*
G02X5292890Y1608970I-54237J0D01*
G03Y1591040I4772J-8965D01*
G02X5321630Y1543170I-25497J-47870D01*
G02X5213170I-54230J0D01*
G02X5241910Y1591040I54237J0D01*
G03Y1608970I-4772J8965D01*
G37*
G36*
G01X3250000Y4289170D02*
G02X3325000I37500J-39158D01*
G02X3400000I37500J-39158D01*
G02X3437500Y4304230I37500J-39158D01*
G02X3491730Y4250000I0J-54230D01*
G02X3476670Y4212500I-54218J0D01*
G02X3491730Y4175000I-39158J-37500D01*
G02X3437500Y4120770I-54230J0D01*
G02X3400000Y4135830I0J54218D01*
G02X3325000I-37500J39158D01*
G02X3250000I-37500J39158D01*
G02X3212500Y4120770I-37500J39158D01*
G02X3158270Y4175000I0J54230D01*
G02X3173330Y4212500I54218J0D01*
G02X3158270Y4250000I39158J37500D01*
G02X3212500Y4304230I54230J0D01*
G02X3250000Y4289170I0J-54218D01*
G37*
G36*
G01X1625000Y3839170D02*
G02X1700000I37500J-39158D01*
G02X1775000I37500J-39158D01*
G02X1812500Y3854230I37500J-39158D01*
G02Y3745770I0J-54230D01*
G02X1775000Y3760830I0J54218D01*
G02X1700000I-37500J39158D01*
G02X1625000I-37500J39158D01*
G02X1550000I-37500J39158D01*
G02X1512500Y3745770I-37500J39158D01*
G02Y3854230I0J54230D01*
G02X1550000Y3839170I0J-54218D01*
G02X1625000I37500J-39158D01*
G37*
G36*
G01X2307890Y3340830D02*
G03X2292110I-7890J-6401D01*
G02X2250000Y3320770I-42110J34169D01*
G02Y3429230I0J54230D01*
G02X2292110Y3409170I0J-54229D01*
G03X2307890I7890J6401D01*
G02X2350000Y3429230I42110J-34169D01*
G02Y3320770I0J-54230D01*
G02X2307890Y3340830I0J54229D01*
G37*
G36*
G01X3250000Y3264170D02*
G02X3325000I37500J-39158D01*
G02X3400000I37500J-39158D01*
G02X3437500Y3279230I37500J-39158D01*
G02X3491730Y3225000I0J-54230D01*
G02X3476670Y3187500I-54218J0D01*
G02X3491730Y3150000I-39158J-37500D01*
G02X3437500Y3095770I-54230J0D01*
G02X3400000Y3110830I0J54218D01*
G02X3325000I-37500J39158D01*
G02X3250000I-37500J39158D01*
G02X3212500Y3095770I-37500J39158D01*
G02X3158270Y3150000I0J54230D01*
G02X3173330Y3187500I54218J0D01*
G02X3158270Y3225000I39158J37500D01*
G02X3212500Y3279230I54230J0D01*
G02X3250000Y3264170I0J-54218D01*
G37*
G36*
G01X3807890Y1990830D02*
G03X3792110I-7890J-6401D01*
G02X3750000Y1970770I-42110J34169D01*
G02Y2079230I0J54230D01*
G02X3792110Y2059170I0J-54229D01*
G03X3807890I7890J6401D01*
G02X3850000Y2079230I42110J-34169D01*
G02Y1970770I0J-54230D01*
G02X3807890Y1990830I0J54229D01*
G37*
G36*
G01X4440830Y1367110D02*
G03Y1382890I-6401J7890D01*
G02X4420770Y1425000I34169J42110D01*
G02X4529230I54230J0D01*
G02X4509170Y1382890I-54229J0D01*
G03Y1367110I6401J-7890D01*
G02X4529230Y1325000I-34169J-42110D01*
G02X4420770I-54230J0D01*
G02X4440830Y1367110I54229J0D01*
G37*
G36*
G01X3082890Y1115830D02*
G03X3067110I-7890J-6401D01*
G02X3025000Y1095770I-42110J34169D01*
G02Y1204230I0J54230D01*
G02X3067110Y1184170I0J-54229D01*
G03X3082890I7890J6401D01*
G02X3125000Y1204230I42110J-34169D01*
G02Y1095770I0J-54230D01*
G02X3082890Y1115830I0J54229D01*
G37*
G36*
G01X3047250Y1287420D02*
G03X3031470Y1293340I-9884J-2356D01*
G02X3000000Y1283270I-31476J44158D01*
G02Y1391730I0J54230D01*
G02X3052750Y1350080I0J-54229D01*
G03X3068530Y1344160I9884J2356D01*
G02X3100000Y1354230I31476J-44158D01*
G02Y1245770I0J-54230D01*
G02X3047250Y1287420I0J54229D01*
G37*
G36*
G01X2428990Y1650000D02*
G03X2432940Y1665770I-3935J9365D01*
G02X2420770Y1700000I42054J34230D01*
G02X2529230I54230J0D01*
G02X2496010Y1650000I-54238J0D01*
G03X2492060Y1634230I3935J-9365D01*
G02X2504230Y1600000I-42054J-34230D01*
G02X2395770I-54230J0D01*
G02X2428990Y1650000I54238J0D01*
G37*
G36*
G01X2782890Y1665830D02*
G03X2767110I-7890J-6401D01*
G02X2725000Y1645770I-42110J34169D01*
G02Y1754230I0J54230D01*
G02X2767110Y1734170I0J-54229D01*
G03X2782890I7890J6401D01*
G02X2825000Y1754230I42110J-34169D01*
G02Y1645770I0J-54230D01*
G02X2782890Y1665830I0J54229D01*
G37*
G54D19*
X5156000Y4177000D03*
X4902000D03*
X4648000D03*
X5156000Y3923000D03*
X4902000D03*
X4648000D03*
X5175000Y2825000D03*
Y2571000D03*
X3485000Y325000D03*
X3231000D03*
X2977000D03*
X2723000D03*
X2469000D03*
G54D18*
X2150000Y2775000D03*
X2500000Y3425000D03*
X4500000Y2775000D03*
Y2625000D03*
X3950000Y2550000D03*
X3650000Y2650000D03*
X4200000Y1800000D03*
X3400000Y1750000D03*
X3550000Y1525000D03*
X4125000Y1125000D03*
Y1275000D03*
X3975000Y1175000D03*
X4000000Y1300000D03*
X3875000Y1100000D03*
X4250000Y775000D03*
X5004000Y703200D03*
X4750000D03*
X4623000D03*
X4496000D03*
X2150000Y2275000D03*
X3375000Y1025000D03*
X3275000Y1100000D03*
X3800000Y1700000D03*
X2350000Y1725000D03*
X2900000Y1600000D03*
G54D20*
X400000Y4100000D03*
X4391160Y3299040D03*
X400000Y400000D03*
%LPD*%
G75*
G54D10*
X400000Y400000D03*
Y4100000D03*
X4391160Y3299040D03*
G54D11*
X550000Y1150000D03*
Y1500000D03*
Y1850000D03*
Y2650000D03*
Y3000000D03*
Y3350000D03*
X1050000Y1150000D03*
Y1500000D03*
Y1850000D03*
Y2650000D03*
Y3000000D03*
Y3350000D03*
G54D12*
X850000Y150000D03*
Y350000D03*
Y550000D03*
Y3700000D03*
Y3900000D03*
Y4150000D03*
Y4350000D03*
X1050000Y150000D03*
Y3700000D03*
Y4350000D03*
X1250000Y150000D03*
X1100000Y700000D03*
X1200000D03*
X1100000Y800000D03*
X1200000D03*
X1250000Y3700000D03*
Y3900000D03*
Y4350000D03*
X1450000Y150000D03*
X1400000Y900000D03*
X1437500Y4200000D03*
X1450000Y4350000D03*
X1650000Y150000D03*
X1550000Y900000D03*
X1525000Y1900000D03*
X1625000D03*
X1525000Y1825000D03*
X1625000D03*
X1525000Y1975000D03*
X1625000D03*
X1512500Y3800000D03*
X1587500D03*
X1662500D03*
X1512500Y4200000D03*
X1587500D03*
X1662500D03*
X1650000Y4350000D03*
X1850000Y150000D03*
X1700000Y1000000D03*
X1725000Y1900000D03*
Y1825000D03*
Y1975000D03*
X1737500Y3800000D03*
X1812500D03*
X1737500Y4200000D03*
X1812500D03*
X1850000Y4350000D03*
X2050000Y150000D03*
X1900000Y1000000D03*
X1975000Y1675000D03*
Y1850000D03*
Y2050000D03*
Y2250000D03*
Y2450000D03*
X1875000Y2600000D03*
Y2800000D03*
Y2700000D03*
Y2900000D03*
Y3000000D03*
Y3100000D03*
Y3350000D03*
X1887500Y4200000D03*
X2050000Y4350000D03*
X2250000Y150000D03*
X2100000Y1000000D03*
X2175000Y1675000D03*
X2150000Y2275000D03*
Y2775000D03*
X2250000Y3375000D03*
X2150000Y4025000D03*
X2250000Y4350000D03*
X2300000Y1000000D03*
X2350000Y1850000D03*
Y1725000D03*
X2400000Y2250000D03*
Y2450000D03*
X2375000Y2700000D03*
X2350000Y3375000D03*
Y4025000D03*
X2450000Y150000D03*
X2500000Y1000000D03*
X2600000Y1300000D03*
X2450000Y1150000D03*
X2600000Y1450000D03*
X2450000Y1600000D03*
X2475000Y1700000D03*
X2625000Y2250000D03*
Y2450000D03*
X2550000Y3000000D03*
X2500000Y3425000D03*
X2550000Y4025000D03*
X2450000Y4350000D03*
X2650000Y150000D03*
X2700000Y1000000D03*
X2750000Y1300000D03*
Y1450000D03*
X2825000Y1700000D03*
X2725000D03*
X2825000Y2250000D03*
X2750000Y2800000D03*
Y3000000D03*
X2850000Y150000D03*
X2900000Y950000D03*
X3025000Y1150000D03*
X3000000Y1337500D03*
X2900000Y1600000D03*
X2925000Y2625000D03*
X2950000Y3000000D03*
X3050000Y150000D03*
X3100000Y950000D03*
X3125000Y1150000D03*
X3100000Y1300000D03*
X3050000Y1650000D03*
X3200000D03*
X3075000Y2450000D03*
X3150000Y2600000D03*
Y2800000D03*
Y3000000D03*
X3212500Y3225000D03*
Y3150000D03*
Y3725000D03*
Y4250000D03*
Y4175000D03*
X3250000Y150000D03*
X3275000Y1100000D03*
X3375000Y1025000D03*
X3400000Y1750000D03*
X3300000Y2625000D03*
Y2509500D03*
X3287500Y3225000D03*
X3362500D03*
Y3150000D03*
X3287500D03*
X3250000Y3650000D03*
X3325000D03*
X3400000D03*
X3287500Y3725000D03*
X3362500D03*
X3250000Y3800000D03*
X3325000D03*
X3400000D03*
X3362500Y4250000D03*
X3287500D03*
Y4175000D03*
X3362500D03*
X3450000Y150000D03*
X3575000Y1125000D03*
X3550000Y1400000D03*
Y1525000D03*
X3575000Y1650000D03*
X3437500Y3225000D03*
Y3150000D03*
Y3725000D03*
X3512500D03*
X3587500D03*
X3437500Y4250000D03*
Y4175000D03*
X3650000Y150000D03*
X3775000Y700000D03*
X3750000Y1400000D03*
X3800000Y1700000D03*
X3750000Y2025000D03*
X3650000Y2650000D03*
Y2750000D03*
X3662500Y3725000D03*
X3737500D03*
X3850000Y150000D03*
X3912500Y437500D03*
X3935610Y709850D03*
X3875000Y1100000D03*
X4000000Y1300000D03*
X3975000Y1175000D03*
X3850000Y2025000D03*
X3900000Y2150000D03*
X3950000Y2550000D03*
Y2850000D03*
X3850000Y3575000D03*
Y3675000D03*
Y3775000D03*
Y3875000D03*
X3900000Y4200000D03*
X4050000Y150000D03*
X4100000Y700000D03*
X4125000Y1125000D03*
Y1275000D03*
X4200000Y1800000D03*
X4100000Y1975000D03*
X4250000Y150000D03*
Y775000D03*
X4400000Y2150000D03*
X4496000Y150000D03*
Y703200D03*
X4425000Y1050000D03*
Y1175000D03*
X4475000Y1325000D03*
Y1425000D03*
X4500000Y2625000D03*
Y2775000D03*
X4623000Y150000D03*
X4750000D03*
X4623000Y703200D03*
X4750000D03*
Y950000D03*
Y2150000D03*
X4775000Y2700000D03*
X4925000Y400000D03*
X4950000Y950000D03*
Y2150000D03*
X4800000Y2450000D03*
Y2950000D03*
X5004000Y150000D03*
X5150000D03*
X5004000Y703200D03*
X5150000Y950000D03*
X5025000Y1225000D03*
X5075000D03*
X5125000D03*
X5025000Y1700000D03*
Y1875000D03*
X5075000D03*
X5125000D03*
X5150000Y2150000D03*
Y4350000D03*
X5350000Y150000D03*
Y350000D03*
Y550000D03*
Y750000D03*
Y950000D03*
Y1325000D03*
X5267400Y1543170D03*
Y1656840D03*
X5350000Y2150000D03*
Y2350000D03*
Y2550000D03*
Y2750000D03*
Y2950000D03*
Y3150000D03*
Y3350000D03*
Y3550000D03*
Y3750000D03*
Y3950000D03*
Y4150000D03*
Y4350000D03*
G54D13*
X2215000Y325000D03*
X2469000D03*
X2723000D03*
X2977000D03*
X3231000D03*
X3485000D03*
X4394000Y3923000D03*
Y4177000D03*
X4648000Y3923000D03*
Y4177000D03*
X4902000Y3923000D03*
Y4177000D03*
X5175000Y2571000D03*
Y2825000D03*
Y3079000D03*
X5156000Y3923000D03*
Y4177000D03*
G54D14*
X2300000Y3675000D03*
G54D15*
X4927500Y1118000D03*
Y1982000D03*
G54D16*
X5327500Y1118000D03*
Y1982000D03*
G54D17*
G01X225670Y-266670D02*
X239670Y-250670D01*
X256000Y-242670D01*
X274670Y-240000D01*
X298000Y-245330D01*
X314330Y-258670D01*
X319000Y-274660D01*
X316670Y-290670D01*
X307330Y-304000D01*
X260670Y-330670D01*
X239670Y-349330D01*
X225670Y-376010D01*
X221000Y-400000D01*
X319000D01*
G01X5442000Y-240000D02*
X5498000D01*
G01X5470000D02*
Y-400000D01*
G01X5442000D02*
X5498000D01*
G01X5626330D02*
Y-240000D01*
X5733670Y-400000D01*
Y-240000D01*
G01X5890000Y-400000D02*
Y-240000D01*
X5862000Y-272000D01*
G01Y-400000D02*
X5918000D01*
G01X6263330Y-240000D02*
Y-400000D01*
X6356670D01*
G01X6461660D02*
X6520000Y-240000D01*
X6578340Y-400000D01*
G01X6557330Y-344000D02*
X6482660D01*
G01X6730000Y-400000D02*
Y-328000D01*
X6683330Y-240000D01*
G01X6776670D02*
X6730000Y-328000D01*
G01X6986670Y-400000D02*
X6893330D01*
Y-240000D01*
X6986670D01*
G01X6949330Y-317330D02*
X6893330D01*
G01X7103330Y-400000D02*
Y-240000D01*
X7161670D01*
X7180330Y-248000D01*
X7192000Y-258670D01*
X7196670Y-280000D01*
X7192000Y-301330D01*
X7178000Y-314670D01*
X7161670Y-322670D01*
X7103330D01*
G01X7161670D02*
X7196670Y-400000D01*
M02*
