G04 ================== begin FILE IDENTIFICATION RECORD ==================*
G04 Layout Name:  Y:/Desktop/LynXLite/BOARD/lynx_lite.brd*
G04 Film Name:    LYNXLITE_04BOT.GBL*
G04 File Format:  Gerber RS274X*
G04 File Origin:  Cadence Allegro 25.1-S020*
G04 Origin Date:  Sun May 17 17:30:24 2026*
G04 *
G04 Layer:  BOARD GEOMETRY/DESIGN_OUTLINE*
G04 Layer:  BOARD GEOMETRY/CUTOUT*
G04 Layer:  VIA CLASS/BOTTOM*
G04 Layer:  PIN/BOTTOM*
G04 Layer:  ETCH/BOTTOM*
G04 *
G04 Offset:    (0.0000 0.0000)*
G04 Mirror:    No*
G04 Mode:      Positive*
G04 Rotation:  0*
G04 FullContactRelief:  No*
G04 UndefLineWidth:     0.0000*
G04 ================== end FILE IDENTIFICATION RECORD ====================*
%FSLAX35Y35*MOMM*%
%IR0*IPPOS*OFA0.00000B0.00000*MIA0B0*SFA1.00000B1.00000*%
%AMMACRO16*
4,1,8,1.2374,0.0,
.5657,.6718,
-.5657,.6718,
-1.2374,0.0,
-.7071,-.5303,
-.4243,-.2475,
.4243,-.2475,
.7071,-.5303,
1.2374,0.0,
0.0*
%
%ADD16MACRO16*%
%ADD30R,.3048X1.524*%
%ADD29R,1.524X.3048*%
%ADD33R,1.016X.6096*%
%ADD12C,.5842*%
%AMMACRO31*
21,1,.762,.762,0.0,0.0,45.*%
%ADD31MACRO31*%
%ADD21R,.889X1.27*%
%ADD36R,1.2192X.6096*%
%ADD13R,.762X.762*%
%AMMACRO23*
4,1,40,-.6985,-.0762,
-.6985,.0762,
-.697728,.085021,
-.695436,.093575,
-.691694,.1016,
-.686615,.108854,
-.680354,.115115,
-.6731,.120194,
-.665075,.123936,
-.656521,.126228,
-.6477,.127,
.6477,.127,
.656521,.126228,
.665075,.123936,
.6731,.120194,
.680354,.115115,
.686615,.108854,
.691694,.1016,
.695436,.093575,
.697728,.085021,
.6985,.0762,
.6985,-.0762,
.697728,-.085021,
.695436,-.093575,
.691694,-.1016,
.686615,-.108854,
.680354,-.115115,
.6731,-.120194,
.665075,-.123936,
.656521,-.126228,
.6477,-.127,
-.6477,-.127,
-.656521,-.126228,
-.665075,-.123936,
-.6731,-.120194,
-.680354,-.115115,
-.686615,-.108854,
-.691694,-.1016,
-.695436,-.093575,
-.697728,-.085021,
-.6985,-.0762,
0.0*
%
%ADD23MACRO23*%
%AMMACRO27*
4,1,40,-.0762,.6985,
.0762,.6985,
.085021,.697728,
.093575,.695436,
.1016,.691694,
.108854,.686615,
.115115,.680354,
.120194,.6731,
.123936,.665075,
.126228,.656521,
.127,.6477,
.127,-.6477,
.126228,-.656521,
.123936,-.665075,
.120194,-.6731,
.115115,-.680354,
.108854,-.686615,
.1016,-.691694,
.093575,-.695436,
.085021,-.697728,
.0762,-.6985,
-.0762,-.6985,
-.085021,-.697728,
-.093575,-.695436,
-.1016,-.691694,
-.108854,-.686615,
-.115115,-.680354,
-.120194,-.6731,
-.123936,-.665075,
-.126228,-.656521,
-.127,-.6477,
-.127,.6477,
-.126228,.656521,
-.123936,.665075,
-.120194,.6731,
-.115115,.680354,
-.108854,.686615,
-.1016,.691694,
-.093575,.695436,
-.085021,.697728,
-.0762,.6985,
0.0*
%
%ADD27MACRO27*%
%ADD34R,1.1938X.9144*%
%ADD20R,1.1X2.*%
%AMMACRO18*
4,1,8,0.0,-1.2374,
.6718,-.5657,
.6718,.5657,
0.0,1.2374,
-.5303,.7071,
-.2475,.4243,
-.2475,-.4243,
-.5303,-.7071,
0.0,-1.2374,
0.0*
%
%ADD18MACRO18*%
%AMMACRO15*
4,1,8,-1.2374,0.0,
-.5657,-.6718,
.5657,-.6718,
1.2374,0.0,
.7071,.5303,
.4243,.2475,
-.4243,.2475,
-.7071,.5303,
-1.2374,0.0,
0.0*
%
%ADD15MACRO15*%
%AMMACRO14*
4,1,8,0.0,1.2374,
-.6718,.5657,
-.6718,-.5657,
0.0,-1.2374,
.5303,-.7071,
.2475,-.4243,
.2475,.4243,
.5303,.7071,
0.0,1.2374,
0.0*
%
%ADD14MACRO14*%
%ADD19R,.8X.8*%
%ADD11C,1.9*%
%ADD37O,2.2098X1.016*%
%ADD17R,2.6162X1.0922*%
%ADD35O,1.8288X1.016*%
%ADD24C,1.6256*%
%ADD22R,3.302X1.5748*%
%ADD28R,4.0894X2.0066*%
%AMMACRO26*
4,1,40,-.381,-.3302,
-.381,.3302,
-.380228,.339021,
-.377936,.347575,
-.374194,.3556,
-.369115,.362854,
-.362854,.369115,
-.3556,.374194,
-.347575,.377936,
-.339021,.380228,
-.3302,.381,
.3302,.381,
.339021,.380228,
.347575,.377936,
.3556,.374194,
.362854,.369115,
.369115,.362854,
.374194,.3556,
.377936,.347575,
.380228,.339021,
.381,.3302,
.381,-.3302,
.380228,-.339021,
.377936,-.347575,
.374194,-.3556,
.369115,-.362854,
.362854,-.369115,
.3556,-.374194,
.347575,-.377936,
.339021,-.380228,
.3302,-.381,
-.3302,-.381,
-.339021,-.380228,
-.347575,-.377936,
-.3556,-.374194,
-.362854,-.369115,
-.369115,-.362854,
-.374194,-.3556,
-.377936,-.347575,
-.380228,-.339021,
-.381,-.3302,
0.0*
%
%ADD26MACRO26*%
%AMMACRO32*
21,1,.8636,.762,0.0,0.0,45.*%
%ADD32MACRO32*%
%ADD10C,2.9972*%
%AMMACRO25*
4,1,40,-1.1938,-.6477,
-1.1938,.6477,
-1.193028,.656521,
-1.190736,.665075,
-1.186994,.6731,
-1.181915,.680354,
-1.175654,.686615,
-1.1684,.691694,
-1.160375,.695436,
-1.151821,.697728,
-1.143,.6985,
1.143,.6985,
1.151821,.697728,
1.160375,.695436,
1.1684,.691694,
1.175654,.686615,
1.181915,.680354,
1.186994,.6731,
1.190736,.665075,
1.193028,.656521,
1.1938,.6477,
1.1938,-.6477,
1.193028,-.656521,
1.190736,-.665075,
1.186994,-.6731,
1.181915,-.680354,
1.175654,-.686615,
1.1684,-.691694,
1.160375,-.695436,
1.151821,-.697728,
1.143,-.6985,
-1.143,-.6985,
-1.151821,-.697728,
-1.160375,-.695436,
-1.1684,-.691694,
-1.175654,-.686615,
-1.181915,-.680354,
-1.186994,-.6731,
-1.190736,-.665075,
-1.193028,-.656521,
-1.1938,-.6477,
0.0*
%
%ADD25MACRO25*%
%ADD38C,.5*%
%ADD39C,.25*%
%ADD40C,.215*%
%ADD41C,.35*%
%ADD42C,.28*%
%ADD43C,.75*%
%ADD44C,1.*%
%ADD47C,6.0004*%
%ADD45C,2.7004*%
%ADD46C,2.426*%
G75*
%LPD*%
G75*
G36*
G01X150000Y3550000D02*
X1200000D01*
G02X1250000Y3500000I0J-50000D01*
G01Y1700000D01*
G02X1200000Y1650000I-50000J0D01*
G01X700000D01*
G03X651170Y1610740I0J-49996D01*
G02X634860Y1605020I-9923J2183D01*
G03X550000Y1635020I-84860J-105020D01*
G03Y1364980I0J-135020D01*
G03X633550Y1393940I-6J135018D01*
G02X650000Y1385960I6289J-7981D01*
G01Y1264040D01*
G02X633550Y1256060I-10161J1D01*
G03X550000Y1285020I-83556J-106058D01*
G03Y1014980I0J-135020D01*
G03X633550Y1043940I-6J135018D01*
G02X650000Y1035960I6289J-7981D01*
G01Y1000000D01*
G02X600000Y950000I-50000J0D01*
G01X150000D01*
G02X100000Y1000000I0J50000D01*
G01Y3500000D01*
G02X150000Y3550000I50000J0D01*
G37*
G36*
G01X2803620Y1075000D02*
X3025730D01*
X3062860Y1037860D01*
G03X3100000Y1022480I37140J37153D01*
G01X3150000D01*
G03X3187140Y1037860I0J52533D01*
G01X3206290Y1057010D01*
G02X3221350Y1056250I7187J-7181D01*
G03X3275000Y1030770I53650J43742D01*
G03X3287940Y1031990I0J69234D01*
G02X3300000Y1022010I1900J-9980D01*
G01Y900000D01*
X3350000Y850000D01*
X3515760D01*
G02X3522940Y832660I-5J-10158D01*
G01X3292810Y602520D01*
X2948000D01*
G03X2910860Y587140I0J-52533D01*
G01X2770030Y446300D01*
X2723000D01*
G03X2844300Y325000I0J-121300D01*
G01Y372030D01*
X2867420Y395150D01*
X2873760Y388800D01*
X2871830Y385430D01*
G03X2855700Y325000I105168J-60439D01*
G03X3098300I121300J0D01*
G01Y372030D01*
X3121420Y395150D01*
X3127760Y388800D01*
X3125830Y385430D01*
G03X3109700Y325000I105168J-60439D01*
G03X3352300I121300J0D01*
G01Y372030D01*
X3375420Y395150D01*
X3381760Y388800D01*
X3379830Y385430D01*
G03X3363700Y325000I105168J-60439D01*
G03X3485000Y446300I121300J0D01*
G03X3447910Y440490I0J-121293D01*
G02X3437620Y457350I-3106J9675D01*
G01X3532660Y552380D01*
G02X3550000Y545200I7182J-7185D01*
G01Y450000D01*
X3800000Y200000D01*
X4025000D01*
X4150000Y325000D01*
X4250000D01*
X4375000Y200000D01*
X4408910D01*
X4409640Y199780D01*
G03X4425000Y197480I15372J50218D01*
G03X4425780Y197490I-283J52516D01*
G02X4434900Y182550I153J-10160D01*
G03X4426770Y150000I61095J-32550D01*
G03X4436120Y115260I69229J4D01*
G02X4427330Y100000I-8788J-5100D01*
G01X850000D01*
G02X800020Y148590I0J50000D01*
G01Y400000D01*
G03X800000Y403970I-400020J-30D01*
G01Y575000D01*
X911880Y686880D01*
X911920D01*
Y763120D01*
X911900D01*
Y836880D01*
X911920D01*
Y913100D01*
X1338100D01*
X1400000Y975000D01*
X1575000D01*
X1675000Y1075000D01*
X2546380D01*
X2547270Y1074650D01*
G03X2561900Y1071880I14630J37250D01*
G01X2638100D01*
G03X2652730Y1074650I0J40020D01*
G01X2653620Y1075000D01*
X2696380D01*
X2697270Y1074650D01*
G03X2711900Y1071880I14630J37250D01*
G01X2788100D01*
G03X2802730Y1074650I0J40020D01*
G01X2803620Y1075000D01*
G37*
G36*
G01X850000Y4400000D02*
X2550000D01*
G02X2600000Y4350000I0J-50000D01*
G01Y4025000D01*
G02X2550000Y3975000I-50000J0D01*
G01X2026200D01*
X1955810Y4045390D01*
X1369190D01*
X1300000Y3976200D01*
Y3700000D01*
G02X1250000Y3650000I-50000J0D01*
G01X850000D01*
G02X800000Y3700000I0J50000D01*
G01Y4096030D01*
G03X800020Y4100000I-400000J4000D01*
G01Y4351410D01*
G02X850000Y4400000I49980J-1410D01*
G37*
G36*
G01X923250Y1142400D02*
X982840Y1082840D01*
X1052690Y1150000D01*
X982830Y1217160D01*
X923250Y1157600D01*
G03Y1142400I7600J-7600D01*
G37*
G36*
G01Y1492400D02*
X982840Y1432840D01*
X1052690Y1500000D01*
X982830Y1567160D01*
X923250Y1507600D01*
G03Y1492400I7600J-7600D01*
G37*
G36*
G01X1369190Y3854610D02*
X1955810D01*
Y3795390D01*
X1988500Y3762700D01*
X2075000D01*
Y3737300D01*
X2010230D01*
G03Y3712700I0J-12300D01*
G01X2075000D01*
Y3687300D01*
X2010230D01*
G03Y3662700I0J-12300D01*
G01X2075000D01*
Y3637300D01*
X1988640D01*
X1938100Y3586760D01*
Y3561920D01*
X1861880D01*
Y3560540D01*
X1790100Y3488760D01*
X1459900D01*
Y3654680D01*
X1369190Y3745390D01*
Y3854610D01*
G37*
G36*
G01X1775000Y2125000D02*
Y1800000D01*
X1750000Y1775000D01*
X1500000D01*
X1475000Y1800000D01*
Y2125000D01*
X1775000D01*
G37*
G36*
G01X4559160Y4400000D02*
X5350000D01*
G02X5400000Y4350000I0J-50000D01*
G01Y2150000D01*
G02X5350000Y2100000I-50000J0D01*
G01X4775000D01*
G03X4750000Y2075000I0J-25000D01*
G01Y1750000D01*
G02X4725000Y1725000I-25000J0D01*
G01X4706790D01*
X4270590Y2161200D01*
G03X4232390Y2177020I-38200J-38210D01*
G01X4055110D01*
G03X4016910Y2161200I0J-54030D01*
G01X3936800Y2081090D01*
G03X3925550Y2064650I38194J-38206D01*
G02X3907780Y2063140I-9297J4090D01*
G03X3850000Y2094230I-57780J-38146D01*
G03X3803420Y2076210I6J-69228D01*
G02X3796580I-3420J3762D01*
G03X3750000Y2094230I-46586J-51208D01*
G03X3739260Y2093390I12J-69229D01*
G02X3727520Y2103430I-1580J10037D01*
G01Y2250000D01*
G03X3712140Y2287140I-52533J0D01*
G01X3369060Y2630220D01*
X3368870Y2632020D01*
G03X3300000Y2694230I-68870J-7016D01*
G03X3230770Y2625000I0J-69230D01*
G03X3252500Y2574640I69220J0D01*
G02Y2559860I-6976J-7390D01*
G03X3230770Y2509500I47490J-50360D01*
G03X3292980Y2440630I69226J0D01*
G01X3294780Y2440440D01*
X3572480Y2162750D01*
Y2025000D01*
X3566090D01*
X3565360Y2025220D01*
G03X3550000Y2027520I-15372J-50218D01*
G01X2600000D01*
G03X2562860Y2012140I0J-52533D01*
G01X2344780Y1794060D01*
X2342980Y1793870D01*
G03X2280770Y1725000I7016J-68870D01*
G03X2350000Y1655770I69230J0D01*
G01Y1625000D01*
X2300000Y1575000D01*
X1815020D01*
Y1623070D01*
X1895980Y1704020D01*
G03X1915020Y1750000I-45983J45973D01*
G01Y2450000D01*
G03X1895980Y2495980I-65023J7D01*
G01X1845980Y2545980D01*
G03X1825000Y2560020I-45965J-45990D01*
G01Y3451200D01*
X1861880Y3488080D01*
X1938100D01*
Y3388100D01*
X2101200Y3225000D01*
X2450000D01*
X2500000Y3175000D01*
Y3100000D01*
X2550000Y3050000D01*
X3675000D01*
X3872480Y3247480D01*
X3925000D01*
G03X3979810Y3270190I-8J77517D01*
G01X4054810Y3345190D01*
G03X4077520Y3400000I-54807J54818D01*
G01Y4067890D01*
X4282110Y4272480D01*
X4442890D01*
X4527190Y4188180D01*
X4527020Y4185860D01*
G03X4526700Y4177000I120982J-8805D01*
G03X4557980Y4095700I121294J0D01*
G01Y4004300D01*
G03X4526700Y3923000I90014J-81300D01*
G03X4769300I121300J0D01*
G03X4738020Y4004300I-121294J0D01*
G01Y4095700D01*
G03X4769300Y4177000I-90014J81300D01*
G03X4648000Y4298300I-121300J0D01*
G03X4639140Y4297980I-55J-121302D01*
G01X4636820Y4297810D01*
X4551970Y4382660D01*
G02X4559160Y4400000I7188J7180D01*
G37*
G36*
G01X2525000Y3687300D02*
Y3712700D01*
X3062100D01*
X3104470Y3670330D01*
Y3469670D01*
X2695530D01*
Y3587300D01*
G03X2595530Y3687300I-100000J0D01*
G01X2525000D01*
G37*
G36*
G01Y3762700D02*
X2595530D01*
G03X2695530Y3862700I0J100000D01*
G01Y3980330D01*
X3104470D01*
Y3779670D01*
X3062100Y3737300D01*
X2525000D01*
Y3762700D01*
G37*
G36*
G01X2791780Y406280D02*
X2723000D01*
X2720790Y322790D01*
X2804280Y325000D01*
Y393780D01*
G03X2791780Y406280I-12500J0D01*
G37*
G36*
G01X3438120Y3388100D02*
X3786900D01*
X3800000Y3375000D01*
Y3250000D01*
X3650000Y3100000D01*
X2725200D01*
X2695530Y3129670D01*
Y3330330D01*
X3104470D01*
X3162240Y3388100D01*
X3211880D01*
Y3388080D01*
X3288120D01*
Y3388100D01*
X3361880D01*
Y3388080D01*
X3438120D01*
Y3388100D01*
G37*
G36*
G01X3425000Y4350000D02*
X3650000D01*
X3800000Y4200000D01*
Y4075000D01*
X3786900Y4061900D01*
X3438120D01*
Y4061920D01*
X3361880D01*
Y4061900D01*
X3288120D01*
Y4061920D01*
X3211880D01*
Y4061900D01*
X3162240D01*
X3104470Y4119670D01*
X2695530D01*
Y4320330D01*
X2725100Y4349900D01*
X3424900D01*
X3425000Y4350000D01*
G37*
G36*
G01X3045780Y406280D02*
X2977000D01*
X2974790Y322790D01*
X3058280Y325000D01*
Y393780D01*
G03X3045780Y406280I-12500J0D01*
G37*
G36*
G01X3681120Y4400000D02*
X4165840D01*
G02X4173030Y4382660I2J-10160D01*
G01X3945190Y4154810D01*
G03X3922480Y4100000I54807J-54818D01*
G01Y3432110D01*
X3892890Y3402520D01*
X3847480D01*
X3825000Y3425000D01*
Y3526200D01*
X3800600Y3550600D01*
X3526800D01*
X3438120Y3461920D01*
X3361880D01*
Y3461900D01*
X3288120D01*
Y3461920D01*
X3211880D01*
X3175000Y3498800D01*
Y3951200D01*
X3211880Y3988080D01*
X3288120D01*
Y3988100D01*
X3361880D01*
Y3988080D01*
X3438120D01*
X3526200Y3900000D01*
X3800000D01*
X3825000Y3925000D01*
Y4043400D01*
X3840020Y4058420D01*
Y4216580D01*
X3673940Y4382660D01*
G02X3681120Y4400000I7186J7181D01*
G37*
G36*
G01X3299780Y406280D02*
X3231000D01*
X3228790Y322790D01*
X3312280Y325000D01*
Y393780D01*
G03X3299780Y406280I-12500J0D01*
G37*
G36*
G01X3988450Y850000D02*
X4000000D01*
X4225000Y625000D01*
Y500000D01*
X4000000Y275000D01*
X3825000D01*
X3625000Y475000D01*
Y675000D01*
X3800000Y850000D01*
X3811690D01*
G02X3819360Y833180I-3J-10160D01*
G03X3812630Y815150I20787J-18030D01*
G01Y661990D01*
X3772060Y621420D01*
G03Y600180I10618J-10620D01*
G01X3779540Y592700D01*
X3746880Y560040D01*
X3741170Y565750D01*
G03X3719930I-10620J-10618D01*
G01X3666050Y511870D01*
G03Y490630I10618J-10620D01*
G01X3719930Y436750D01*
G03X3738130Y434400I10623J10618D01*
G01X3741510Y436380D01*
X3782730Y395160D01*
X3836640Y449070D01*
X3795420Y490290D01*
X3797400Y493670D01*
G03X3795050Y511870I-12968J7577D01*
G01X3785800Y521120D01*
X3818460Y553780D01*
X3825940Y546300D01*
G03X3847180I10620J10618D01*
G01X3908240Y607360D01*
G03Y628600I-10618J10620D01*
G01X3867670Y669180D01*
Y803750D01*
X3894460Y830540D01*
G03X3896100Y832340I-19502J19415D01*
G02X3903900I3900J-3262D01*
G03X3905540Y830540I21142J17615D01*
G01X3997480Y738600D01*
Y698360D01*
X3941760Y642640D01*
G03Y621400I10618J-10620D01*
G01X3995640Y567520D01*
G03X4016880I10620J10618D01*
G01X4033250Y583890D01*
X4062430Y554710D01*
X4054950Y547230D01*
G03X4052600Y529030I10618J-10623D01*
G01X4054580Y525650D01*
X4013360Y484430D01*
X4067270Y430520D01*
X4108490Y471740D01*
X4111870Y469760D01*
G03X4130070Y472110I7577J12968D01*
G01X4183950Y525990D01*
G03Y547230I-10618J10620D01*
G01X4130070Y601110D01*
G03X4108830I-10620J-10618D01*
G01X4101350Y593630D01*
X4072170Y622810D01*
X4077940Y628580D01*
G03Y649820I-10618J10620D01*
G01X4052520Y675250D01*
Y750000D01*
G03X4044460Y769460I-27522J0D01*
G01X3981260Y832660D01*
G02X3988450Y850000I7187J7181D01*
G37*
G36*
G01X4955040Y752150D02*
X4951450Y748550D01*
X4800000Y900000D01*
X4750000D01*
G02Y1000000I0J50000D01*
G01X5350000D01*
G02X5400000Y950000I0J-50000D01*
G01Y150000D01*
G02X5350000Y100000I-50000J0D01*
G01X4564670D01*
G02X4555880Y115260I-2J10160D01*
G03X4565230Y150000I-59879J34744D01*
G03X4557100Y182540I-69227J-11D01*
G02X4566070Y197480I8968J4779D01*
G01X4650000D01*
G03X4665360Y199780I-12J52518D01*
G01X4666090Y200000D01*
X4825000D01*
X4902660Y277660D01*
X4955180D01*
G03X4992320Y293040I0J52533D01*
G01X5041140Y341860D01*
G03X5056520Y379000I-37153J37140D01*
G01Y658100D01*
G03X5073230Y703200I-52507J45100D01*
G03X5004000Y772430I-69230J0D01*
G03X4955040Y752150I0J-69240D01*
G37*
%LPC*%
G75*
G36*
G01X2086880Y2213100D02*
G02X2095650Y2232120I25010J0D01*
G02X2080770Y2275000I54344J42880D01*
G02X2219230I69230J0D01*
G02X2204350Y2232120I-69224J0D01*
G02X2213120Y2213100I-16240J-19020D01*
G01Y2136900D01*
G02X2192340Y2112240I-25022J0D01*
G01X2188120Y2111520D01*
Y2063080D01*
X2111880D01*
Y2111520D01*
X2107660Y2112240D01*
G02X2086880Y2136900I4242J24660D01*
G01Y2213100D01*
G37*
G36*
G01Y2713100D02*
G02X2095650Y2732120I25010J0D01*
G02X2080770Y2775000I54344J42880D01*
G02X2219230I69230J0D01*
G02X2204350Y2732120I-69224J0D01*
G02X2213120Y2713100I-16240J-19020D01*
G01Y2636900D01*
G02X2192340Y2612240I-25022J0D01*
G01X2188120Y2611520D01*
Y2563080D01*
X2111880D01*
Y2611520D01*
X2107660Y2612240D01*
G02X2086880Y2636900I4242J24660D01*
G01Y2713100D01*
G37*
G36*
G01X4825000Y2900000D02*
X5078470D01*
X5088040Y2909560D01*
X5088060Y2909590D01*
G02X5175000Y2946300I86940J-84595D01*
G02Y2703700I0J-121300D01*
G01Y2692300D01*
G02Y2449700I0J-121300D01*
G02X5087530Y2486960I0J121300D01*
G01X5087490Y2487000D01*
X5074480Y2500000D01*
X4825000D01*
X4800000Y2525000D01*
X4016950D01*
X4012800Y2520850D01*
X4012420Y2520060D01*
G02X3887580I-62420J29938D01*
G01X3887200Y2520850D01*
X3883050Y2525000D01*
X3525000D01*
X3475000Y2575000D01*
Y2825000D01*
X3525000Y2875000D01*
X3869570D01*
G02X4030430I80430J-24994D01*
G01X4800000D01*
X4825000Y2900000D01*
G37*
G36*
G01X4811980Y4004300D02*
Y4095700D01*
G02X4780700Y4177000I90014J81300D01*
G02X5023300I121300J0D01*
G02X4992020Y4095700I-121294J0D01*
G01Y4004300D01*
G02X5023300Y3923000I-90014J-81300D01*
G02X4780700I-121300J0D01*
G02X4811980Y4004300I121294J0D01*
G37*
G36*
G01X5065980D02*
Y4095700D01*
G02X5034700Y4177000I90014J81300D01*
G02X5277300I121300J0D01*
G02X5246020Y4095700I-121294J0D01*
G01Y4004300D01*
G02X5277300Y3923000I-90014J-81300D01*
G02X5034700I-121300J0D01*
G02X5065980Y4004300I121294J0D01*
G37*
G54D47*
X4391160Y3299040D03*
G54D45*
X550000Y2650000D03*
X1050000D03*
X550000Y3000000D03*
X1050000D03*
G54D46*
X2469000Y325000D03*
%LPD*%
G75*
G36*
G01X5069950Y2561100D02*
X5117540Y2513550D01*
X5178500Y2571000D01*
X5117530Y2628460D01*
X5069950Y2580900D01*
G03Y2561100I9900J-9900D01*
G37*
G36*
G01Y2815100D02*
X5117540Y2767550D01*
X5178500Y2825000D01*
X5117530Y2882460D01*
X5069950Y2834900D01*
G03Y2815100I9900J-9900D01*
G37*
G54D10*
X400000Y400000D03*
Y4100000D03*
X4391160Y3299040D03*
G54D11*
X550000Y1150000D03*
Y1500000D03*
Y1850000D03*
Y2650000D03*
Y3000000D03*
Y3350000D03*
X1050000Y1150000D03*
Y1500000D03*
Y1850000D03*
Y2650000D03*
Y3000000D03*
Y3350000D03*
G54D20*
X1525000Y2265000D03*
Y2852500D03*
X1725000Y2265000D03*
Y2852500D03*
G54D21*
X1511970Y2500000D03*
X1738030D03*
G54D12*
X850000Y150000D03*
Y350000D03*
Y550000D03*
Y3700000D03*
Y3900000D03*
Y4150000D03*
Y4350000D03*
X1050000Y150000D03*
Y3700000D03*
Y4350000D03*
X1250000Y150000D03*
X1100000Y700000D03*
X1200000D03*
X1100000Y800000D03*
X1200000D03*
X1250000Y3700000D03*
Y3900000D03*
Y4350000D03*
X1450000Y150000D03*
X1400000Y900000D03*
X1437500Y4200000D03*
X1450000Y4350000D03*
X1650000Y150000D03*
X1550000Y900000D03*
X1525000Y1900000D03*
X1625000D03*
X1525000Y1825000D03*
X1625000D03*
X1525000Y1975000D03*
X1625000D03*
X1512500Y3800000D03*
X1587500D03*
X1662500D03*
X1512500Y4200000D03*
X1587500D03*
X1662500D03*
X1650000Y4350000D03*
X1850000Y150000D03*
X1700000Y1000000D03*
X1725000Y1900000D03*
Y1825000D03*
Y1975000D03*
X1737500Y3800000D03*
X1812500D03*
X1737500Y4200000D03*
X1812500D03*
X1850000Y4350000D03*
X2050000Y150000D03*
X1900000Y1000000D03*
X1975000Y1675000D03*
Y1850000D03*
Y2050000D03*
Y2250000D03*
Y2450000D03*
X1875000Y2600000D03*
Y2800000D03*
Y2700000D03*
Y2900000D03*
Y3000000D03*
Y3100000D03*
Y3350000D03*
X1887500Y4200000D03*
X2050000Y4350000D03*
X2250000Y150000D03*
X2100000Y1000000D03*
X2175000Y1675000D03*
X2150000Y2275000D03*
Y2775000D03*
X2250000Y3375000D03*
X2150000Y4025000D03*
X2250000Y4350000D03*
X2300000Y1000000D03*
X2350000Y1850000D03*
Y1725000D03*
X2400000Y2250000D03*
Y2450000D03*
X2375000Y2700000D03*
X2350000Y3375000D03*
Y4025000D03*
X2450000Y150000D03*
X2500000Y1000000D03*
X2600000Y1300000D03*
X2450000Y1150000D03*
X2600000Y1450000D03*
X2450000Y1600000D03*
X2475000Y1700000D03*
X2625000Y2250000D03*
Y2450000D03*
X2550000Y3000000D03*
X2500000Y3425000D03*
X2550000Y4025000D03*
X2450000Y4350000D03*
X2650000Y150000D03*
X2700000Y1000000D03*
X2750000Y1300000D03*
Y1450000D03*
X2825000Y1700000D03*
X2725000D03*
X2825000Y2250000D03*
X2750000Y2800000D03*
Y3000000D03*
X2850000Y150000D03*
X2900000Y950000D03*
X3025000Y1150000D03*
X3000000Y1337500D03*
X2900000Y1600000D03*
X2925000Y2625000D03*
X2950000Y3000000D03*
X3050000Y150000D03*
X3100000Y950000D03*
X3125000Y1150000D03*
X3100000Y1300000D03*
X3050000Y1650000D03*
X3200000D03*
X3075000Y2450000D03*
X3150000Y2600000D03*
Y2800000D03*
Y3000000D03*
X3212500Y3225000D03*
Y3150000D03*
Y3725000D03*
Y4250000D03*
Y4175000D03*
X3250000Y150000D03*
X3275000Y1100000D03*
X3375000Y1025000D03*
X3400000Y1750000D03*
X3300000Y2625000D03*
Y2509500D03*
X3287500Y3225000D03*
X3362500D03*
Y3150000D03*
X3287500D03*
X3250000Y3650000D03*
X3325000D03*
X3400000D03*
X3287500Y3725000D03*
X3362500D03*
X3250000Y3800000D03*
X3325000D03*
X3400000D03*
X3362500Y4250000D03*
X3287500D03*
Y4175000D03*
X3362500D03*
X3450000Y150000D03*
X3575000Y1125000D03*
X3550000Y1400000D03*
Y1525000D03*
X3575000Y1650000D03*
X3437500Y3225000D03*
Y3150000D03*
Y3725000D03*
X3512500D03*
X3587500D03*
X3437500Y4250000D03*
Y4175000D03*
X3650000Y150000D03*
X3775000Y700000D03*
X3750000Y1400000D03*
X3800000Y1700000D03*
X3750000Y2025000D03*
X3650000Y2650000D03*
Y2750000D03*
X3662500Y3725000D03*
X3737500D03*
X3850000Y150000D03*
X3912500Y437500D03*
X3935610Y709850D03*
X3875000Y1100000D03*
X4000000Y1300000D03*
X3975000Y1175000D03*
X3850000Y2025000D03*
X3900000Y2150000D03*
X3950000Y2550000D03*
Y2850000D03*
X3850000Y3575000D03*
Y3675000D03*
Y3775000D03*
Y3875000D03*
X3900000Y4200000D03*
X4050000Y150000D03*
X4100000Y700000D03*
X4125000Y1125000D03*
Y1275000D03*
X4200000Y1800000D03*
X4100000Y1975000D03*
X4250000Y150000D03*
Y775000D03*
X4400000Y2150000D03*
X4496000Y150000D03*
Y703200D03*
X4425000Y1050000D03*
Y1175000D03*
X4475000Y1325000D03*
Y1425000D03*
X4500000Y2625000D03*
Y2775000D03*
X4623000Y150000D03*
X4750000D03*
X4623000Y703200D03*
X4750000D03*
Y950000D03*
Y2150000D03*
X4775000Y2700000D03*
X4925000Y400000D03*
X4950000Y950000D03*
Y2150000D03*
X4800000Y2450000D03*
Y2950000D03*
X5004000Y150000D03*
X5150000D03*
X5004000Y703200D03*
X5150000Y950000D03*
X5025000Y1225000D03*
X5075000D03*
X5125000D03*
X5025000Y1700000D03*
Y1875000D03*
X5075000D03*
X5125000D03*
X5150000Y2150000D03*
Y4350000D03*
X5350000Y150000D03*
Y350000D03*
Y550000D03*
Y750000D03*
Y950000D03*
Y1325000D03*
X5267400Y1543170D03*
Y1656840D03*
X5350000Y2150000D03*
Y2350000D03*
Y2550000D03*
Y2750000D03*
Y2950000D03*
Y3150000D03*
Y3350000D03*
Y3550000D03*
Y3750000D03*
Y3950000D03*
Y4150000D03*
Y4350000D03*
G54D30*
X3575000Y960000D03*
Y1840000D03*
X3625000Y960000D03*
X3675000D03*
X3725000D03*
X3775000D03*
Y1840000D03*
X3725000D03*
X3675000D03*
X3625000D03*
X3825000Y960000D03*
X3875000D03*
X3925000D03*
X3975000D03*
Y1840000D03*
X3925000D03*
X3875000D03*
X3825000D03*
X4025000Y960000D03*
X4075000D03*
X4125000D03*
Y1840000D03*
X4075000D03*
X4025000D03*
G54D40*
G01X850000Y1100000D02*
X900000Y1150000D01*
X1050000D01*
G01X850000Y1550000D02*
X900000Y1500000D01*
X1050000D01*
G54D22*
X1625000Y3132500D03*
Y3567500D03*
G54D13*
X800000Y875000D03*
Y725000D03*
X850000Y1100000D03*
Y1250000D03*
Y1400000D03*
Y1550000D03*
X950000Y875000D03*
Y725000D03*
X1900000Y3450000D03*
Y3600000D03*
X2150000Y2025000D03*
Y2175000D03*
Y2525000D03*
Y2675000D03*
X2600000Y1300000D03*
X2450000D03*
X2600000Y1150000D03*
X2450000D03*
X2600000Y1450000D03*
X2450000D03*
X2600000Y1600000D03*
X2450000D03*
X2750000Y1300000D03*
Y1150000D03*
Y1450000D03*
Y1600000D03*
X2900000Y1300000D03*
Y1150000D03*
Y1450000D03*
Y1600000D03*
X3250000Y3350000D03*
X3400000D03*
X3250000Y3500000D03*
X3400000D03*
Y3950000D03*
X3250000D03*
X3400000Y4100000D03*
X3250000D03*
X3575000Y2625000D03*
Y2775000D03*
X3725000Y2625000D03*
Y2775000D03*
X3875000Y2625000D03*
Y2775000D03*
X4025000Y2625000D03*
X4200000D03*
X4025000Y2775000D03*
X4200000D03*
X4350000Y2625000D03*
Y2775000D03*
X4500000Y2625000D03*
Y2775000D03*
X4950000Y1325000D03*
X5100000D03*
G54D31*
X3730550Y501250D03*
X4013390Y430550D03*
X3836610Y395190D03*
X4119450Y536610D03*
G54D41*
G01X698000Y-400000D02*
Y-240000D01*
X611660Y-354670D01*
X728340D01*
G01X5488660Y-314670D02*
X5498000Y-306670D01*
X5505000Y-293340D01*
X5509670Y-274660D01*
X5505000Y-258670D01*
X5495670Y-248000D01*
X5479330Y-240000D01*
X5416330D01*
Y-400000D01*
X5493330D01*
X5509670Y-389340D01*
X5519000Y-373330D01*
X5523670Y-354670D01*
X5519000Y-336000D01*
X5505000Y-320000D01*
X5488660Y-314670D01*
X5416330D01*
G01X5680000Y-400000D02*
X5661330Y-397330D01*
X5645000Y-386670D01*
X5631000Y-370670D01*
X5621660Y-352000D01*
X5617000Y-330670D01*
Y-309330D01*
X5621660Y-288000D01*
X5631000Y-269330D01*
X5645000Y-253340D01*
X5661330Y-242670D01*
X5680000Y-240000D01*
X5698660Y-242670D01*
X5715000Y-253340D01*
X5729000Y-269330D01*
X5738340Y-288000D01*
X5743000Y-309330D01*
Y-330670D01*
X5738340Y-352000D01*
X5729000Y-370670D01*
X5715000Y-386670D01*
X5698660Y-397330D01*
X5680000Y-400000D01*
G01X5890000Y-240000D02*
Y-400000D01*
G01X5836330Y-240000D02*
X5943670D01*
G01X6100000D02*
Y-400000D01*
G01X6046330Y-240000D02*
X6153670D01*
G01X6310000Y-400000D02*
X6291330Y-397330D01*
X6275000Y-386670D01*
X6261000Y-370670D01*
X6251660Y-352000D01*
X6247000Y-330670D01*
Y-309330D01*
X6251660Y-288000D01*
X6261000Y-269330D01*
X6275000Y-253340D01*
X6291330Y-242670D01*
X6310000Y-240000D01*
X6328660Y-242670D01*
X6345000Y-253340D01*
X6359000Y-269330D01*
X6368340Y-288000D01*
X6373000Y-309330D01*
Y-330670D01*
X6368340Y-352000D01*
X6359000Y-370670D01*
X6345000Y-386670D01*
X6328660Y-397330D01*
X6310000Y-400000D01*
G01X6459330D02*
Y-240000D01*
X6520000Y-373330D01*
X6580670Y-240000D01*
Y-400000D01*
G54D32*
X3914390Y540150D03*
X4009850Y635610D03*
X3840150Y614390D03*
X3935610Y709850D03*
G54D14*
X1245190Y1325000D03*
G54D23*
X2075000Y3600000D03*
Y3650000D03*
Y3700000D03*
Y3750000D03*
X2525000Y3600000D03*
Y3650000D03*
Y3700000D03*
Y3750000D03*
G54D42*
G01X4910000Y1695000D02*
X4834500D01*
X4762500Y1623000D01*
X4732390D01*
X4232390Y2123000D01*
X4055110D01*
X3975000Y2042890D01*
Y1840000D01*
G01X4910000Y1505000D02*
X4832500D01*
X4762500Y1575000D01*
X4712500D01*
X4281000Y2006500D01*
G03X4256250I-12375J-12373D01*
G02X4231500Y2031250I-12375J12375D01*
G03Y2056000I-12373J12375D01*
G01X4212500Y2075000D01*
X4185000D01*
G03X4167500Y2057500I0J-17500D01*
G02X4132500I-17500J0D01*
G03X4115000Y2075000I-17500J0D01*
G01X4075000D01*
X4025000Y2025000D01*
Y1840000D01*
G01X4911760Y2598400D02*
X4897660Y2612500D01*
X4512500D01*
X4500000Y2625000D01*
G01X4911760Y2801600D02*
X4897660Y2787500D01*
X4512500D01*
X4500000Y2775000D01*
G01X4911760Y2598400D02*
X4939160Y2571000D01*
X5175000D01*
G01X4911760Y2801600D02*
X4935160Y2825000D01*
X5175000D01*
G01X5267400Y1543170D02*
X5229230Y1505000D01*
X5140000D01*
G01X5267400Y1656840D02*
X5229240Y1695000D01*
X5140000D01*
G54D24*
X2215000Y325000D03*
X2469000D03*
X2723000D03*
X2977000D03*
X3231000D03*
X3485000D03*
X4394000Y3923000D03*
Y4177000D03*
X4648000Y3923000D03*
Y4177000D03*
X4902000Y3923000D03*
Y4177000D03*
X5175000Y2571000D03*
Y2825000D03*
Y3079000D03*
X5156000Y3923000D03*
Y4177000D03*
G54D15*
X1475000Y1095190D03*
G54D33*
X4544200Y379900D03*
Y569900D03*
X4805800Y380100D03*
Y475100D03*
Y570100D03*
G54D43*
G01X3650000Y3325000D02*
X3925000D01*
X4000000Y3400000D01*
Y4100000D01*
X4250000Y4350000D01*
X4475000D01*
X4648000Y4177000D01*
G54D25*
X2300000Y3675000D03*
G54D34*
X4688240Y2700000D03*
X4911760Y2598400D03*
Y2801600D03*
G54D16*
X1475000Y1554810D03*
G54D44*
G01X1525000Y2852500D02*
Y2900000D01*
X1625000Y3000000D01*
G01D02*
X1725000Y2900000D01*
Y2852500D01*
G01X1625000Y3000000D02*
Y3132500D01*
G01X4648000Y4177000D02*
Y3923000D01*
G01X4902000Y4177000D02*
Y3923000D01*
G01X5156000Y4177000D02*
Y3923000D01*
G54D26*
X2100000Y3525000D03*
Y3825000D03*
X2500000Y3525000D03*
Y3825000D03*
G54D35*
X4927500Y1118000D03*
Y1982000D03*
G54D17*
X1500000Y3800000D03*
Y4100000D03*
X1825000Y3800000D03*
Y4100000D03*
X3650000Y3325000D03*
Y3625000D03*
Y3825000D03*
Y4125000D03*
G54D18*
X1704810Y1325000D03*
G54D27*
X2175000Y3500000D03*
Y3850000D03*
X2375000Y3500000D03*
X2325000D03*
X2275000D03*
X2225000D03*
X2375000Y3850000D03*
X2325000D03*
X2275000D03*
X2225000D03*
X2425000Y3500000D03*
Y3850000D03*
G54D36*
X4910000Y1600000D03*
Y1505000D03*
Y1695000D03*
X5140000Y1505000D03*
Y1600000D03*
Y1695000D03*
G54D28*
X2900000Y3230000D03*
Y3570000D03*
Y3880000D03*
Y4220000D03*
G54D37*
X5327500Y1118000D03*
Y1982000D03*
G54D19*
X1525000Y2075000D03*
Y2662500D03*
X1725000Y2075000D03*
Y2662500D03*
G54D38*
G01X800000Y725000D02*
Y875000D01*
G01D02*
X750000Y925000D01*
Y1200000D01*
X800000Y1250000D01*
X850000D01*
G01Y1400000D02*
Y1250000D01*
G01X1454810Y1075000D02*
X1275000D01*
X1200000Y1150000D01*
X1050000D01*
G01X1454810Y1575000D02*
X1275000D01*
X1200000Y1500000D01*
X1050000D01*
G01X1511970Y2500000D02*
X1450000D01*
X1400000Y2450000D01*
Y1775000D01*
X1475000Y1700000D01*
X1600000D01*
X1650000Y1650000D01*
Y1500000D01*
X1475000Y1325000D01*
X1245190D01*
G01X1511970Y2500000D02*
X1525000Y2486970D01*
Y2265000D01*
G01Y2662500D02*
Y2513030D01*
X1511970Y2500000D01*
G01X1704810Y1404800D02*
X1750000Y1449990D01*
Y1650000D01*
X1850000Y1750000D01*
Y2450000D01*
X1800000Y2500000D01*
X1738030D01*
G01D02*
X1725000Y2486970D01*
Y2265000D01*
G01Y2662500D02*
Y2513030D01*
X1738030Y2500000D01*
G01X2600000Y1150000D02*
Y1300000D01*
G01X2450000D02*
Y1150000D01*
G01X2600000Y1600000D02*
Y1450000D01*
G01X2450000D02*
Y1600000D01*
G01X2750000Y1150000D02*
Y1300000D01*
G01Y1600000D02*
Y1450000D01*
G01X2900000Y1150000D02*
Y1300000D01*
G01D02*
X2962500D01*
X3000000Y1337500D01*
G01X2900000Y1450000D02*
Y1600000D01*
G01X3650000Y2650000D02*
X3625000Y2625000D01*
X3575000D01*
G01Y2775000D02*
X3625000D01*
X3650000Y2750000D01*
G01X3725000Y2625000D02*
X3675000D01*
X3650000Y2650000D01*
G01Y2750000D02*
X3675000Y2775000D01*
X3725000D01*
G01X3875000Y2625000D02*
X3950000Y2550000D01*
G01D02*
X4025000Y2625000D01*
G01X3875000Y2775000D02*
X3950000Y2850000D01*
G01D02*
X4025000Y2775000D01*
G01X4688240Y2700000D02*
X4775000D01*
G01X4805800Y475100D02*
X4849900D01*
X4925000Y400000D01*
G01X4950000Y1325000D02*
Y1300000D01*
X5025000Y1225000D01*
G01X5075000D02*
X5125000D01*
G01X5025000D02*
X5075000D01*
G01X5100000Y1325000D02*
X5350000D01*
G01X5025000Y1875000D02*
X5075000D01*
G01D02*
X5125000D01*
G54D29*
X3410000Y1275000D03*
Y1225000D03*
Y1175000D03*
Y1125000D03*
Y1475000D03*
Y1425000D03*
Y1375000D03*
Y1325000D03*
Y1675000D03*
Y1625000D03*
Y1575000D03*
Y1525000D03*
X4290000Y1125000D03*
Y1175000D03*
Y1225000D03*
Y1275000D03*
Y1325000D03*
Y1375000D03*
Y1425000D03*
Y1475000D03*
Y1525000D03*
Y1575000D03*
Y1625000D03*
Y1675000D03*
G54D39*
G01X1475000Y1095190D02*
X1454810Y1075000D01*
G01X1475000Y1554810D02*
X1454810Y1575000D01*
G01X1704810Y1325000D02*
Y1404800D01*
G01X2175000Y3425000D02*
X2025000D01*
X2000000Y3450000D01*
Y3575000D01*
X2025000Y3600000D01*
X2075000D01*
G01X2150000Y2175000D02*
Y2275000D01*
G01Y2675000D02*
Y2775000D01*
G01X2175000Y3500000D02*
Y3425000D01*
G01X2425000Y3350000D02*
X2375000Y3300000D01*
X2225000D01*
X2175000Y3350000D01*
Y3425000D01*
G01X2350000Y1725000D02*
X2600000Y1975000D01*
X3550000D01*
X3575000Y1950000D01*
Y1840000D01*
G01X2225000Y3500000D02*
Y3400000D01*
X2250000Y3375000D01*
G01X2375000Y3500000D02*
Y3400000D01*
X2350000Y3375000D01*
G01X2300000Y3675000D02*
X2325000D01*
X2375000Y3725000D01*
Y3850000D01*
G01X3410000Y1575000D02*
X3325000D01*
X3275000Y1625000D01*
Y1675000D01*
X3100000Y1850000D01*
X2700000D01*
X2550000Y1700000D01*
X2475000D01*
G01X2500000Y3425000D02*
X2550000D01*
X2600000Y3475000D01*
Y3575000D01*
X2575000Y3600000D01*
X2525000D01*
G01X2425000Y3500000D02*
Y3350000D01*
G01X2525000Y3650000D02*
X2600000D01*
X2650000Y3600000D01*
Y3425000D01*
X2575000Y3350000D01*
X2425000D01*
G01X3625000Y960000D02*
Y860440D01*
X3314560Y550000D01*
X2948000D01*
X2723000Y325000D01*
G01X2725000Y1700000D02*
X2800000Y1775000D01*
X3025000D01*
X3125000Y1675000D01*
Y1550000D01*
X3300000Y1375000D01*
X3410000D01*
G01X3675000Y960000D02*
Y839720D01*
X3335280Y500000D01*
X3152000D01*
X2977000Y325000D01*
G01X3410000Y1325000D02*
X3275000D01*
X2987500Y1612500D01*
Y1662500D01*
X2950000Y1700000D01*
X2825000D01*
G01X3025000Y1150000D02*
X3100000Y1075000D01*
X3150000D01*
X3250000Y1175000D01*
X3410000D01*
G01X3125000Y1150000D02*
X3200000Y1225000D01*
X3410000D01*
G01X3100000Y1300000D02*
X3125000Y1275000D01*
X3410000D01*
G01X3231000Y325000D02*
X3725000Y819000D01*
Y960000D01*
G01X3575000D02*
Y1025000D01*
X3550000Y1050000D01*
X3500000D01*
X3475000Y1025000D01*
X3375000D01*
G01X3275000Y1100000D02*
X3300000Y1125000D01*
X3410000D01*
G01X3625000Y1840000D02*
Y2184500D01*
X3300000Y2509500D01*
G01Y2625000D02*
X3675000Y2250000D01*
Y1840000D01*
G01X3550000Y1525000D02*
Y1500000D01*
X3525000Y1475000D01*
X3410000D01*
G01Y1425000D02*
X3525000D01*
X3550000Y1400000D01*
G01X3410000Y1525000D02*
X3550000D01*
G01X3575000Y1650000D02*
X3550000Y1625000D01*
X3410000D01*
G01X3400000Y1750000D02*
X3500000D01*
X3525000Y1725000D01*
Y1700000D01*
X3500000Y1675000D01*
X3410000D01*
G01X3730550Y501250D02*
Y504790D01*
X3840150Y614390D01*
G01X4000000Y1300000D02*
X3875000D01*
X3775000Y1200000D01*
Y960000D01*
G01X3850000Y2025000D02*
X3775000Y1950000D01*
Y1840000D01*
G01X3750000Y2025000D02*
X3725000Y2000000D01*
Y1840000D01*
G01X3840150Y614390D02*
Y815150D01*
X3875000Y850000D01*
Y960000D01*
G01X4009850Y635610D02*
X4025000Y650760D01*
Y750000D01*
X3925000Y850000D01*
Y960000D01*
G01X3825000D02*
Y1050000D01*
X3875000Y1100000D01*
G01X3975000Y1175000D02*
X4075000Y1075000D01*
Y960000D01*
G01X4290000Y1375000D02*
X4125000D01*
X3875000Y1625000D01*
Y1840000D01*
G01X4290000Y1475000D02*
X4100000D01*
X3925000Y1650000D01*
Y1840000D01*
G01X3825000D02*
Y1725000D01*
X3800000Y1700000D01*
G01X4119450Y536610D02*
X4020450Y635610D01*
X4009850D01*
G01X4125000Y960000D02*
Y1125000D01*
G01X4290000D02*
X4125000D01*
G01X4290000Y1275000D02*
X4125000D01*
G01X4200000Y1800000D02*
Y1750000D01*
X4175000Y1725000D01*
X4150000D01*
X4125000Y1750000D01*
Y1840000D01*
G01X4075000D02*
Y1950000D01*
X4100000Y1975000D01*
G01X4200000Y2775000D02*
X4025000D01*
G01X4290000Y1525000D02*
X4475000D01*
X4550000Y1450000D01*
Y1016440D01*
X4325000Y791440D01*
Y425000D01*
X4450000Y300000D01*
X4600000D01*
X4700000Y400000D01*
Y500000D01*
X4770100Y570100D01*
X4805800D01*
G01X4250000Y775000D02*
X4275000Y750000D01*
Y400000D01*
X4425000Y250000D01*
X4650000D01*
X4780100Y380100D01*
X4805800D01*
G01X4290000Y1175000D02*
X4425000D01*
G01X4290000Y1375000D02*
X4425000D01*
X4475000Y1325000D01*
G01X4290000Y1625000D02*
X4445720D01*
X4600000Y1470720D01*
Y995720D01*
X4375000Y770720D01*
Y475000D01*
X4470100Y379900D01*
X4544200D01*
G01X4475000Y1425000D02*
X4425000Y1475000D01*
X4290000D01*
G01Y1675000D02*
X4466440D01*
X4650000Y1491440D01*
Y975000D01*
X4631260Y956260D01*
G03Y917360I19440J-19450D01*
G01X4704890Y843730D01*
G02X4665990Y804830I-19450J-19450D01*
G01X4592360Y878460D01*
G03X4553460Y839560I-19450J-19450D01*
G01X4577820Y815200D01*
G02X4538920Y776300I-19450J-19450D01*
G01X4514560Y800660D01*
G03X4475660I-19450J-19440D01*
G01X4425000Y750000D01*
Y600000D01*
X4455100Y569900D01*
X4544200D01*
G01X4350000Y2625000D02*
Y2675000D01*
X4325000Y2700000D01*
G01D02*
X4275000D01*
X4200000Y2625000D01*
G01X4350000Y2775000D02*
Y2725000D01*
X4325000Y2700000D01*
G01X4544200Y379900D02*
X4604900D01*
X4650000Y425000D01*
Y676200D01*
X4623000Y703200D01*
G01X4544200Y569900D02*
Y655000D01*
X4496000Y703200D01*
G01X4750000D02*
X4800000Y653200D01*
Y575900D01*
X4805800Y570100D01*
G01X5004000Y703200D02*
Y379000D01*
X4955180Y330180D01*
X4869820D01*
X4819900Y380100D01*
X4805800D01*
G01X5025000Y1700000D02*
Y1637500D01*
X4987500Y1600000D01*
X4910000D01*
G01X5140000D02*
X5062500D01*
X5025000Y1562500D01*
Y1400000D01*
X5100000Y1325000D01*
M02*
