G04 ================== begin FILE IDENTIFICATION RECORD ==================*
G04 Layout Name:  Y:/Desktop/LynXLite/BOARD/lynx_lite.brd*
G04 Film Name:    LYNXLITE_08SMB.GBS*
G04 File Format:  Gerber RS274X*
G04 File Origin:  Cadence Allegro 25.1-S020*
G04 Origin Date:  Sun May 17 17:30:24 2026*
G04 *
G04 Layer:  VIA CLASS/SOLDERMASK_BOTTOM*
G04 Layer:  PIN/SOLDERMASK_BOTTOM*
G04 Layer:  PACKAGE GEOMETRY/SOLDERMASK_BOTTOM*
G04 Layer:  BOARD GEOMETRY/SOLDERMASK_BOTTOM*
G04 *
G04 Offset:    (0.0000 0.0000)*
G04 Mirror:    No*
G04 Mode:      Positive*
G04 Rotation:  0*
G04 FullContactRelief:  No*
G04 UndefLineWidth:     0.0000*
G04 ================== end FILE IDENTIFICATION RECORD ====================*
%FSLAX35Y35*MOMM*%
%IR0*IPPOS*OFA0.00000B0.00000*MIA0B0*SFA1.00000B1.00000*%
%AMMACRO17*
4,1,8,.7217,.5864,
0.0,1.3081,
-.601,.7071,
-.2975,.4035,
-.2975,-.4035,
-.601,-.7071,
0.0,-1.3081,
.7217,-.5864,
.7217,.5864,
0.0*
%
%ADD17MACRO17*%
%AMMACRO14*
4,1,8,.5864,-.7217,
1.3081,0.0,
.7071,.601,
.4035,.2975,
-.4035,.2975,
-.7071,.601,
-1.3081,0.0,
-.5864,-.7217,
.5864,-.7217,
0.0*
%
%ADD14MACRO14*%
%AMMACRO13*
4,1,8,-.7217,-.5864,
0.0,-1.3081,
.601,-.7071,
.2975,-.4035,
.2975,.4035,
.601,.7071,
0.0,1.3081,
-.7217,.5864,
-.7217,-.5864,
0.0*
%
%ADD13MACRO13*%
%ADD35R,1.3716X.7112*%
%AMMACRO22*
4,1,40,-.7366,-.0889,
-.7366,.0889,
-.735442,.102132,
-.732005,.114962,
-.726391,.127,
-.718773,.13788,
-.70938,.147273,
-.6985,.154891,
-.686462,.160505,
-.673632,.163942,
-.6604,.1651,
.6604,.1651,
.673632,.163942,
.686462,.160505,
.6985,.154891,
.70938,.147273,
.718773,.13788,
.726391,.127,
.732005,.114962,
.735442,.102132,
.7366,.0889,
.7366,-.0889,
.735442,-.102132,
.732005,-.114962,
.726391,-.127,
.718773,-.13788,
.70938,-.147273,
.6985,-.154891,
.686462,-.160505,
.673632,-.163942,
.6604,-.1651,
-.6604,-.1651,
-.673632,-.163942,
-.686462,-.160505,
-.6985,-.154891,
-.70938,-.147273,
-.718773,-.13788,
-.726391,-.127,
-.732005,-.114962,
-.735442,-.102132,
-.7366,-.0889,
0.0*
%
%ADD22MACRO22*%
%AMMACRO26*
4,1,40,-.0889,.7366,
.0889,.7366,
.102132,.735442,
.114962,.732005,
.127,.726391,
.13788,.718773,
.147273,.70938,
.154891,.6985,
.160505,.686462,
.163942,.673632,
.1651,.6604,
.1651,-.6604,
.163942,-.673632,
.160505,-.686462,
.154891,-.6985,
.147273,-.70938,
.13788,-.718773,
.127,-.726391,
.114962,-.732005,
.102132,-.735442,
.0889,-.7366,
-.0889,-.7366,
-.102132,-.735442,
-.114962,-.732005,
-.127,-.726391,
-.13788,-.718773,
-.147273,-.70938,
-.154891,-.6985,
-.160505,-.686462,
-.163942,-.673632,
-.1651,-.6604,
-.1651,.6604,
-.163942,.673632,
-.160505,.686462,
-.154891,.6985,
-.147273,.70938,
-.13788,.718773,
-.127,.726391,
-.114962,.732005,
-.102132,.735442,
-.0889,.7366,
0.0*
%
%ADD26MACRO26*%
%ADD32R,1.1684X.762*%
%ADD29R,.4572X1.6764*%
%ADD20R,.9906X1.3716*%
%AMMACRO30*
21,1,.8636,.8636,0.0,0.0,45.*%
%ADD30MACRO30*%
%ADD28R,1.6764X.4572*%
%ADD12R,.8636X.8636*%
%ADD19R,1.2X2.1*%
%AMMACRO15*
4,1,8,-.5864,.7217,
-1.3081,0.0,
-.7071,-.601,
-.4035,-.2975,
.4035,-.2975,
.7071,-.601,
1.3081,0.0,
.5864,.7217,
-.5864,.7217,
0.0*
%
%ADD15MACRO15*%
%ADD11C,2.*%
%ADD18R,.9X.9*%
%ADD36O,2.3622X1.1684*%
%ADD23C,1.778*%
%ADD33R,1.3462X1.0668*%
%ADD34O,1.9812X1.1684*%
%ADD21R,3.4544X1.7272*%
%ADD27R,4.1656X2.0828*%
%ADD10C,2.9972*%
%ADD16R,2.7686X1.2192*%
%AMMACRO24*
4,1,40,-1.2319,-.6604,
-1.2319,.6604,
-1.230742,.673632,
-1.227305,.686462,
-1.221691,.6985,
-1.214073,.70938,
-1.20468,.718773,
-1.1938,.726391,
-1.181762,.732005,
-1.168932,.735442,
-1.1557,.7366,
1.1557,.7366,
1.168932,.735442,
1.181762,.732005,
1.1938,.726391,
1.20468,.718773,
1.214073,.70938,
1.221691,.6985,
1.227305,.686462,
1.230742,.673632,
1.2319,.6604,
1.2319,-.6604,
1.230742,-.673632,
1.227305,-.686462,
1.221691,-.6985,
1.214073,-.70938,
1.20468,-.718773,
1.1938,-.726391,
1.181762,-.732005,
1.168932,-.735442,
1.1557,-.7366,
-1.1557,-.7366,
-1.168932,-.735442,
-1.181762,-.732005,
-1.1938,-.726391,
-1.20468,-.718773,
-1.214073,-.70938,
-1.221691,-.6985,
-1.227305,-.686462,
-1.230742,-.673632,
-1.2319,-.6604,
0.0*
%
%ADD24MACRO24*%
%AMMACRO31*
21,1,.9398,.8382,0.0,0.0,45.*%
%ADD31MACRO31*%
%AMMACRO25*
4,1,40,-.4191,-.3429,
-.4191,.3429,
-.417942,.356132,
-.414505,.368962,
-.408891,.381,
-.401273,.39188,
-.39188,.401273,
-.381,.408891,
-.368962,.414505,
-.356132,.417942,
-.3429,.4191,
.3429,.4191,
.356132,.417942,
.368962,.414505,
.381,.408891,
.39188,.401273,
.401273,.39188,
.408891,.381,
.414505,.368962,
.417942,.356132,
.4191,.3429,
.4191,-.3429,
.417942,-.356132,
.414505,-.368962,
.408891,-.381,
.401273,-.39188,
.39188,-.401273,
.381,-.408891,
.368962,-.414505,
.356132,-.417942,
.3429,-.4191,
-.3429,-.4191,
-.356132,-.417942,
-.368962,-.414505,
-.381,-.408891,
-.39188,-.401273,
-.401273,-.39188,
-.408891,-.381,
-.414505,-.368962,
-.417942,-.356132,
-.4191,-.3429,
0.0*
%
%ADD25MACRO25*%
%ADD37C,.35*%
G75*
%LPD*%
G75*
G54D10*
X400000Y400000D03*
Y4100000D03*
X4391160Y3299040D03*
G54D11*
X550000Y1150000D03*
Y1500000D03*
Y1850000D03*
Y2650000D03*
Y3000000D03*
Y3350000D03*
X1050000Y1150000D03*
Y1500000D03*
Y1850000D03*
Y2650000D03*
Y3000000D03*
Y3350000D03*
G54D20*
X1511970Y2500000D03*
X1738030D03*
G54D21*
X1625000Y3132500D03*
Y3567500D03*
G54D12*
X800000Y875000D03*
Y725000D03*
X850000Y1100000D03*
Y1250000D03*
Y1400000D03*
Y1550000D03*
X950000Y875000D03*
Y725000D03*
X1900000Y3450000D03*
Y3600000D03*
X2150000Y2025000D03*
Y2175000D03*
Y2525000D03*
Y2675000D03*
X2600000Y1300000D03*
X2450000D03*
X2600000Y1150000D03*
X2450000D03*
X2600000Y1450000D03*
X2450000D03*
X2600000Y1600000D03*
X2450000D03*
X2750000Y1300000D03*
Y1150000D03*
Y1450000D03*
Y1600000D03*
X2900000Y1300000D03*
Y1150000D03*
Y1450000D03*
Y1600000D03*
X3250000Y3350000D03*
X3400000D03*
X3250000Y3500000D03*
X3400000D03*
Y3950000D03*
X3250000D03*
X3400000Y4100000D03*
X3250000D03*
X3575000Y2625000D03*
Y2775000D03*
X3725000Y2625000D03*
Y2775000D03*
X3875000Y2625000D03*
Y2775000D03*
X4025000Y2625000D03*
X4200000D03*
X4025000Y2775000D03*
X4200000D03*
X4350000Y2625000D03*
Y2775000D03*
X4500000Y2625000D03*
Y2775000D03*
X4950000Y1325000D03*
X5100000D03*
G54D30*
X3730550Y501250D03*
X4013390Y430550D03*
X3836610Y395190D03*
X4119450Y536610D03*
G54D31*
X3914390Y540150D03*
X4009850Y635610D03*
X3840150Y614390D03*
X3935610Y709850D03*
G54D22*
X2075000Y3600000D03*
Y3650000D03*
Y3700000D03*
Y3750000D03*
X2525000Y3600000D03*
Y3650000D03*
Y3700000D03*
Y3750000D03*
G54D13*
X1245190Y1325000D03*
G54D23*
X2215000Y325000D03*
X2469000D03*
X2723000D03*
X2977000D03*
X3231000D03*
X3485000D03*
X4394000Y3923000D03*
Y4177000D03*
X4648000Y3923000D03*
Y4177000D03*
X4902000Y3923000D03*
Y4177000D03*
X5175000Y2571000D03*
Y2825000D03*
Y3079000D03*
X5156000Y3923000D03*
Y4177000D03*
G54D32*
X4544200Y379900D03*
Y569900D03*
X4805800Y380100D03*
Y475100D03*
Y570100D03*
G54D14*
X1475000Y1095190D03*
G54D24*
X2300000Y3675000D03*
G54D33*
X4688240Y2700000D03*
X4911760Y2598400D03*
Y2801600D03*
G54D15*
X1475000Y1554810D03*
G54D25*
X2100000Y3525000D03*
Y3825000D03*
X2500000Y3525000D03*
Y3825000D03*
G54D16*
X1500000Y3800000D03*
Y4100000D03*
X1825000Y3800000D03*
Y4100000D03*
X3650000Y3325000D03*
Y3625000D03*
Y3825000D03*
Y4125000D03*
G54D34*
X4927500Y1118000D03*
Y1982000D03*
G54D26*
X2175000Y3500000D03*
Y3850000D03*
X2375000Y3500000D03*
X2325000D03*
X2275000D03*
X2225000D03*
X2375000Y3850000D03*
X2325000D03*
X2275000D03*
X2225000D03*
X2425000Y3500000D03*
Y3850000D03*
G54D35*
X4910000Y1600000D03*
Y1505000D03*
Y1695000D03*
X5140000Y1505000D03*
Y1600000D03*
Y1695000D03*
G54D17*
X1704810Y1325000D03*
G54D27*
X2900000Y3230000D03*
Y3570000D03*
Y3880000D03*
Y4220000D03*
G54D36*
X5327500Y1118000D03*
Y1982000D03*
G54D18*
X1525000Y2075000D03*
Y2662500D03*
X1725000Y2075000D03*
Y2662500D03*
G54D37*
G01X5421000Y-578670D02*
X5439670Y-592000D01*
X5460670Y-600000D01*
X5479330D01*
X5498000Y-592000D01*
X5512000Y-578670D01*
X5519000Y-560000D01*
X5514330Y-541340D01*
X5502670Y-525330D01*
X5481670Y-514670D01*
X5453670Y-509330D01*
X5437330Y-498670D01*
X5430330Y-480000D01*
X5435000Y-461330D01*
X5446670Y-448000D01*
X5463000Y-440000D01*
X5479330D01*
X5495670Y-445330D01*
X5509670Y-458670D01*
G01X5680000Y-600000D02*
X5661330Y-597330D01*
X5645000Y-586670D01*
X5631000Y-570670D01*
X5621660Y-552000D01*
X5617000Y-530670D01*
Y-509330D01*
X5621660Y-488000D01*
X5631000Y-469330D01*
X5645000Y-453340D01*
X5661330Y-442670D01*
X5680000Y-440000D01*
X5698660Y-442670D01*
X5715000Y-453340D01*
X5729000Y-469330D01*
X5738340Y-488000D01*
X5743000Y-509330D01*
Y-530670D01*
X5738340Y-552000D01*
X5729000Y-570670D01*
X5715000Y-586670D01*
X5698660Y-597330D01*
X5680000Y-600000D01*
G01X5843330Y-440000D02*
Y-600000D01*
X5936670D01*
G01X6048670D02*
Y-440000D01*
X6095330D01*
X6114000Y-448000D01*
X6128000Y-458670D01*
X6139670Y-474660D01*
X6149000Y-493340D01*
X6151330Y-520000D01*
X6149000Y-546670D01*
X6139670Y-565340D01*
X6128000Y-581340D01*
X6114000Y-592000D01*
X6095330Y-600000D01*
X6048670D01*
G01X6356670D02*
X6263330D01*
Y-440000D01*
X6356670D01*
G01X6319330Y-517330D02*
X6263330D01*
G01X6473330Y-600000D02*
Y-440000D01*
X6531670D01*
X6550330Y-448000D01*
X6562000Y-458670D01*
X6566670Y-480000D01*
X6562000Y-501330D01*
X6548000Y-514670D01*
X6531670Y-522670D01*
X6473330D01*
G01X6531670D02*
X6566670Y-600000D01*
G01X6879330D02*
Y-440000D01*
X6940000Y-573330D01*
X7000670Y-440000D01*
Y-600000D01*
G01X7091660D02*
X7150000Y-440000D01*
X7208340Y-600000D01*
G01X7187330Y-544000D02*
X7112660D01*
G01X7311000Y-578670D02*
X7329670Y-592000D01*
X7350670Y-600000D01*
X7369330D01*
X7388000Y-592000D01*
X7402000Y-578670D01*
X7409000Y-560000D01*
X7404330Y-541340D01*
X7392670Y-525330D01*
X7371670Y-514670D01*
X7343670Y-509330D01*
X7327330Y-498670D01*
X7320330Y-480000D01*
X7325000Y-461330D01*
X7336670Y-448000D01*
X7353000Y-440000D01*
X7369330D01*
X7385670Y-445330D01*
X7399670Y-458670D01*
G01X7518670Y-600000D02*
Y-440000D01*
G01X7607330D02*
X7518670Y-538670D01*
G01X7621330Y-600000D02*
X7558330Y-493340D01*
G01X8008660Y-514670D02*
X8018000Y-506670D01*
X8025000Y-493340D01*
X8029670Y-474660D01*
X8025000Y-458670D01*
X8015670Y-448000D01*
X7999330Y-440000D01*
X7936330D01*
Y-600000D01*
X8013330D01*
X8029670Y-589340D01*
X8039000Y-573330D01*
X8043670Y-554670D01*
X8039000Y-536000D01*
X8025000Y-520000D01*
X8008660Y-514670D01*
X7936330D01*
G01X8200000Y-600000D02*
X8181330Y-597330D01*
X8165000Y-586670D01*
X8151000Y-570670D01*
X8141660Y-552000D01*
X8137000Y-530670D01*
Y-509330D01*
X8141660Y-488000D01*
X8151000Y-469330D01*
X8165000Y-453340D01*
X8181330Y-442670D01*
X8200000Y-440000D01*
X8218660Y-442670D01*
X8235000Y-453340D01*
X8249000Y-469330D01*
X8258340Y-488000D01*
X8263000Y-509330D01*
Y-530670D01*
X8258340Y-552000D01*
X8249000Y-570670D01*
X8235000Y-586670D01*
X8218660Y-597330D01*
X8200000Y-600000D01*
G01X8410000Y-440000D02*
Y-600000D01*
G01X8356330Y-440000D02*
X8463670D01*
G01X8620000D02*
Y-600000D01*
G01X8566330Y-440000D02*
X8673670D01*
G01X8830000Y-600000D02*
X8811330Y-597330D01*
X8795000Y-586670D01*
X8781000Y-570670D01*
X8771660Y-552000D01*
X8767000Y-530670D01*
Y-509330D01*
X8771660Y-488000D01*
X8781000Y-469330D01*
X8795000Y-453340D01*
X8811330Y-442670D01*
X8830000Y-440000D01*
X8848660Y-442670D01*
X8865000Y-453340D01*
X8879000Y-469330D01*
X8888340Y-488000D01*
X8893000Y-509330D01*
Y-530670D01*
X8888340Y-552000D01*
X8879000Y-570670D01*
X8865000Y-586670D01*
X8848660Y-597330D01*
X8830000Y-600000D01*
G01X8979330D02*
Y-440000D01*
X9040000Y-573330D01*
X9100670Y-440000D01*
Y-600000D01*
G54D19*
X1525000Y2265000D03*
Y2852500D03*
X1725000Y2265000D03*
Y2852500D03*
G54D28*
X3410000Y1275000D03*
Y1225000D03*
Y1175000D03*
Y1125000D03*
Y1475000D03*
Y1425000D03*
Y1375000D03*
Y1325000D03*
Y1675000D03*
Y1625000D03*
Y1575000D03*
Y1525000D03*
X4290000Y1125000D03*
Y1175000D03*
Y1225000D03*
Y1275000D03*
Y1325000D03*
Y1375000D03*
Y1425000D03*
Y1475000D03*
Y1525000D03*
Y1575000D03*
Y1625000D03*
Y1675000D03*
G54D29*
X3575000Y960000D03*
Y1840000D03*
X3625000Y960000D03*
X3675000D03*
X3725000D03*
X3775000D03*
Y1840000D03*
X3725000D03*
X3675000D03*
X3625000D03*
X3825000Y960000D03*
X3875000D03*
X3925000D03*
X3975000D03*
Y1840000D03*
X3925000D03*
X3875000D03*
X3825000D03*
X4025000Y960000D03*
X4075000D03*
X4125000D03*
Y1840000D03*
X4075000D03*
X4025000D03*
M02*
