G04 ================== begin FILE IDENTIFICATION RECORD ==================*
G04 Layout Name:  Y:/Desktop/LynXLite/BOARD/lynx_lite.brd*
G04 Film Name:    LYNXLITE_07SMT.GTS*
G04 File Format:  Gerber RS274X*
G04 File Origin:  Cadence Allegro 25.1-S020*
G04 Origin Date:  Sun May 17 17:30:24 2026*
G04 *
G04 Layer:  VIA CLASS/SOLDERMASK_TOP*
G04 Layer:  PIN/SOLDERMASK_TOP*
G04 Layer:  PACKAGE GEOMETRY/SOLDERMASK_TOP*
G04 Layer:  BOARD GEOMETRY/SOLDERMASK_TOP*
G04 *
G04 Offset:    (0.0000 0.0000)*
G04 Mirror:    No*
G04 Mode:      Positive*
G04 Rotation:  0*
G04 FullContactRelief:  No*
G04 UndefLineWidth:     0.0000*
G04 ================== end FILE IDENTIFICATION RECORD ====================*
%FSLAX35Y35*MOMM*%
%IR0*IPPOS*OFA0.00000B0.00000*MIA0B0*SFA1.00000B1.00000*%
%AMMACRO19*
4,1,40,-.35,.075,
-.35,-.075,
-.348481,-.092365,
-.343969,-.109202,
-.336603,-.125,
-.326604,-.139279,
-.314279,-.151604,
-.3,-.161603,
-.284202,-.168969,
-.267365,-.173481,
-.25,-.175,
.25,-.175,
.267365,-.173481,
.284202,-.168969,
.3,-.161603,
.314279,-.151604,
.326604,-.139279,
.336603,-.125,
.343969,-.109202,
.348481,-.092365,
.35,-.075,
.35,.075,
.348481,.092365,
.343969,.109202,
.336603,.125,
.326604,.139279,
.314279,.151604,
.3,.161603,
.284202,.168969,
.267365,.173481,
.25,.175,
-.25,.175,
-.267365,.173481,
-.284202,.168969,
-.3,.161603,
-.314279,.151604,
-.326604,.139279,
-.336603,.125,
-.343969,.109202,
-.348481,.092365,
-.35,.075,
0.0*
%
%ADD19MACRO19*%
%ADD27R,1.27X.4318*%
%ADD26R,1.27X.7366*%
%ADD21R,2.0828X.762*%
%ADD22R,.8128X2.8702*%
%ADD14R,.8128X1.397*%
%ADD12R,1.3716X.9906*%
%ADD13R,.8636X.8636*%
%ADD23R,1.2X2.1*%
%AMMACRO20*
4,1,40,.35,-.075,
.35,.075,
.348481,.092365,
.343969,.109202,
.336603,.125,
.326604,.139279,
.314279,.151604,
.3,.161603,
.284202,.168969,
.267365,.173481,
.25,.175,
-.25,.175,
-.267365,.173481,
-.284202,.168969,
-.3,.161603,
-.314279,.151604,
-.326604,.139279,
-.336603,.125,
-.343969,.109202,
-.348481,.092365,
-.35,.075,
-.35,-.075,
-.348481,-.092365,
-.343969,-.109202,
-.336603,-.125,
-.326604,-.139279,
-.314279,-.151604,
-.3,-.161603,
-.284202,-.168969,
-.267365,-.173481,
-.25,-.175,
.25,-.175,
.267365,-.173481,
.284202,-.168969,
.3,-.161603,
.314279,-.151604,
.326604,-.139279,
.336603,-.125,
.343969,-.109202,
.348481,-.092365,
.35,-.075,
0.0*
%
%ADD20MACRO20*%
%AMMACRO18*
4,1,40,-.075,-.35,
.075,-.35,
.092365,-.348481,
.109202,-.343969,
.125,-.336603,
.139279,-.326604,
.151604,-.314279,
.161603,-.3,
.168969,-.284202,
.173481,-.267365,
.175,-.25,
.175,.25,
.173481,.267365,
.168969,.284202,
.161603,.3,
.151604,.314279,
.139279,.326604,
.125,.336603,
.109202,.343969,
.092365,.348481,
.075,.35,
-.075,.35,
-.092365,.348481,
-.109202,.343969,
-.125,.336603,
-.139279,.326604,
-.151604,.314279,
-.161603,.3,
-.168969,.284202,
-.173481,.267365,
-.175,.25,
-.175,-.25,
-.173481,-.267365,
-.168969,-.284202,
-.161603,-.3,
-.151604,-.314279,
-.139279,-.326604,
-.125,-.336603,
-.109202,-.343969,
-.092365,-.348481,
-.075,-.35,
0.0*
%
%ADD18MACRO18*%
%AMMACRO17*
4,1,40,-1.15,-1.3,
1.15,-1.3,
1.176047,-1.297721,
1.201303,-1.290954,
1.225,-1.279904,
1.246418,-1.264907,
1.264907,-1.246418,
1.279904,-1.225,
1.290954,-1.201303,
1.297721,-1.176047,
1.3,-1.15,
1.3,1.15,
1.297721,1.176047,
1.290954,1.201303,
1.279904,1.225,
1.264907,1.246418,
1.246418,1.264907,
1.225,1.279904,
1.201303,1.290954,
1.176047,1.297721,
1.15,1.3,
-1.15,1.3,
-1.176047,1.297721,
-1.201303,1.290954,
-1.225,1.279904,
-1.246418,1.264907,
-1.264907,1.246418,
-1.279904,1.225,
-1.290954,1.201303,
-1.297721,1.176047,
-1.3,1.15,
-1.3,-1.15,
-1.297721,-1.176047,
-1.290954,-1.201303,
-1.279904,-1.225,
-1.264907,-1.246418,
-1.246418,-1.264907,
-1.225,-1.279904,
-1.201303,-1.290954,
-1.176047,-1.297721,
-1.15,-1.3,
0.0*
%
%ADD17MACRO17*%
%ADD11C,2.*%
%ADD24R,.9X.9*%
%ADD28O,2.3622X1.1684*%
%ADD15C,1.778*%
%ADD25O,1.9812X1.1684*%
%ADD10C,2.9972*%
%AMMACRO16*
4,1,40,-1.2319,-.6604,
-1.2319,.6604,
-1.230742,.673632,
-1.227305,.686462,
-1.221691,.6985,
-1.214073,.70938,
-1.20468,.718773,
-1.1938,.726391,
-1.181762,.732005,
-1.168932,.735442,
-1.1557,.7366,
1.1557,.7366,
1.168932,.735442,
1.181762,.732005,
1.1938,.726391,
1.20468,.718773,
1.214073,.70938,
1.221691,.6985,
1.227305,.686462,
1.230742,.673632,
1.2319,.6604,
1.2319,-.6604,
1.230742,-.673632,
1.227305,-.686462,
1.221691,-.6985,
1.214073,-.70938,
1.20468,-.718773,
1.1938,-.726391,
1.181762,-.732005,
1.168932,-.735442,
1.1557,-.7366,
-1.1557,-.7366,
-1.168932,-.735442,
-1.181762,-.732005,
-1.1938,-.726391,
-1.20468,-.718773,
-1.214073,-.70938,
-1.221691,-.6985,
-1.227305,-.686462,
-1.230742,-.673632,
-1.2319,-.6604,
0.0*
%
%ADD16MACRO16*%
%ADD29C,.35*%
G75*
%LPD*%
G75*
G54D10*
X400000Y400000D03*
Y4100000D03*
X4391160Y3299040D03*
G54D11*
X550000Y1150000D03*
Y1500000D03*
Y1850000D03*
Y2650000D03*
Y3000000D03*
Y3350000D03*
X1050000Y1150000D03*
Y1500000D03*
Y1850000D03*
Y2650000D03*
Y3000000D03*
Y3350000D03*
G54D20*
X2865000Y1250000D03*
Y1450000D03*
Y1400000D03*
Y1350000D03*
Y1300000D03*
Y1500000D03*
G54D12*
X1675000Y2636970D03*
Y2863030D03*
G54D21*
X3500000Y2509500D03*
Y2636500D03*
Y2763500D03*
Y2890500D03*
X4100000Y2509500D03*
Y2636500D03*
Y2763500D03*
Y2890500D03*
G54D13*
X1675000Y1250000D03*
X1825000D03*
X1675000Y1400000D03*
X1825000D03*
X2150000Y2025000D03*
Y2175000D03*
Y2525000D03*
Y2675000D03*
X2825000Y3350000D03*
Y3500000D03*
Y3950000D03*
Y4100000D03*
X2975000Y3350000D03*
Y3500000D03*
Y3950000D03*
Y4100000D03*
X3200000Y1500000D03*
X3050000D03*
X3200000Y1650000D03*
X3050000D03*
X3475000Y1400000D03*
Y1550000D03*
Y1750000D03*
X3625000Y1400000D03*
Y1550000D03*
Y1750000D03*
X3850000Y1400000D03*
X4000000D03*
Y1550000D03*
X3850000D03*
X4200000Y900000D03*
X4050000D03*
X4200000Y1050000D03*
X4050000D03*
X4200000Y1200000D03*
Y1350000D03*
X4150000Y1550000D03*
X4100000Y1750000D03*
Y1900000D03*
X4350000Y900000D03*
Y1050000D03*
Y1200000D03*
Y1350000D03*
X4300000Y1550000D03*
G54D22*
X4496000Y196800D03*
Y603200D03*
X4750000Y196800D03*
X4623000D03*
X4750000Y603200D03*
X4623000D03*
X4877000Y196800D03*
Y603200D03*
X5004000Y196800D03*
Y603200D03*
G54D23*
X4600000Y1990000D03*
G54D14*
X1984000Y1246500D03*
Y1403500D03*
X2266000Y1246500D03*
Y1403500D03*
X4334000Y2621500D03*
Y2778500D03*
X4616000Y2621500D03*
Y2778500D03*
G54D15*
X2215000Y325000D03*
X2469000D03*
X2723000D03*
X2977000D03*
X3231000D03*
X3485000D03*
X4394000Y3923000D03*
Y4177000D03*
X4648000Y3923000D03*
Y4177000D03*
X4902000Y3923000D03*
Y4177000D03*
X5175000Y2571000D03*
Y2825000D03*
Y3079000D03*
X5156000Y3923000D03*
Y4177000D03*
G54D24*
X4600000Y1800000D03*
G54D16*
X2300000Y3675000D03*
G54D25*
X4927500Y1118000D03*
Y1982000D03*
G54D17*
X2675000Y1375000D03*
G54D26*
X4870000Y1230000D03*
Y1310000D03*
Y1870000D03*
Y1790000D03*
G54D18*
X2600000Y1185000D03*
X2550000D03*
Y1565000D03*
X2600000D03*
X2800000Y1185000D03*
X2750000D03*
X2700000D03*
X2650000D03*
Y1565000D03*
X2700000D03*
X2750000D03*
X2800000D03*
G54D27*
X4870000Y1375000D03*
Y1425000D03*
Y1475000D03*
Y1675000D03*
Y1625000D03*
Y1525000D03*
Y1575000D03*
Y1725000D03*
G54D28*
X5327500Y1118000D03*
Y1982000D03*
G54D19*
X2485000Y1250000D03*
Y1300000D03*
Y1350000D03*
Y1400000D03*
Y1450000D03*
Y1500000D03*
G54D29*
G01X5421000Y-578670D02*
X5439670Y-592000D01*
X5460670Y-600000D01*
X5479330D01*
X5498000Y-592000D01*
X5512000Y-578670D01*
X5519000Y-560000D01*
X5514330Y-541340D01*
X5502670Y-525330D01*
X5481670Y-514670D01*
X5453670Y-509330D01*
X5437330Y-498670D01*
X5430330Y-480000D01*
X5435000Y-461330D01*
X5446670Y-448000D01*
X5463000Y-440000D01*
X5479330D01*
X5495670Y-445330D01*
X5509670Y-458670D01*
G01X5680000Y-600000D02*
X5661330Y-597330D01*
X5645000Y-586670D01*
X5631000Y-570670D01*
X5621660Y-552000D01*
X5617000Y-530670D01*
Y-509330D01*
X5621660Y-488000D01*
X5631000Y-469330D01*
X5645000Y-453340D01*
X5661330Y-442670D01*
X5680000Y-440000D01*
X5698660Y-442670D01*
X5715000Y-453340D01*
X5729000Y-469330D01*
X5738340Y-488000D01*
X5743000Y-509330D01*
Y-530670D01*
X5738340Y-552000D01*
X5729000Y-570670D01*
X5715000Y-586670D01*
X5698660Y-597330D01*
X5680000Y-600000D01*
G01X5843330Y-440000D02*
Y-600000D01*
X5936670D01*
G01X6048670D02*
Y-440000D01*
X6095330D01*
X6114000Y-448000D01*
X6128000Y-458670D01*
X6139670Y-474660D01*
X6149000Y-493340D01*
X6151330Y-520000D01*
X6149000Y-546670D01*
X6139670Y-565340D01*
X6128000Y-581340D01*
X6114000Y-592000D01*
X6095330Y-600000D01*
X6048670D01*
G01X6356670D02*
X6263330D01*
Y-440000D01*
X6356670D01*
G01X6319330Y-517330D02*
X6263330D01*
G01X6473330Y-600000D02*
Y-440000D01*
X6531670D01*
X6550330Y-448000D01*
X6562000Y-458670D01*
X6566670Y-480000D01*
X6562000Y-501330D01*
X6548000Y-514670D01*
X6531670Y-522670D01*
X6473330D01*
G01X6531670D02*
X6566670Y-600000D01*
G01X6879330D02*
Y-440000D01*
X6940000Y-573330D01*
X7000670Y-440000D01*
Y-600000D01*
G01X7091660D02*
X7150000Y-440000D01*
X7208340Y-600000D01*
G01X7187330Y-544000D02*
X7112660D01*
G01X7311000Y-578670D02*
X7329670Y-592000D01*
X7350670Y-600000D01*
X7369330D01*
X7388000Y-592000D01*
X7402000Y-578670D01*
X7409000Y-560000D01*
X7404330Y-541340D01*
X7392670Y-525330D01*
X7371670Y-514670D01*
X7343670Y-509330D01*
X7327330Y-498670D01*
X7320330Y-480000D01*
X7325000Y-461330D01*
X7336670Y-448000D01*
X7353000Y-440000D01*
X7369330D01*
X7385670Y-445330D01*
X7399670Y-458670D01*
G01X7518670Y-600000D02*
Y-440000D01*
G01X7607330D02*
X7518670Y-538670D01*
G01X7621330Y-600000D02*
X7558330Y-493340D01*
G01X7990000Y-440000D02*
Y-600000D01*
G01X7936330Y-440000D02*
X8043670D01*
G01X8200000Y-600000D02*
X8181330Y-597330D01*
X8165000Y-586670D01*
X8151000Y-570670D01*
X8141660Y-552000D01*
X8137000Y-530670D01*
Y-509330D01*
X8141660Y-488000D01*
X8151000Y-469330D01*
X8165000Y-453340D01*
X8181330Y-442670D01*
X8200000Y-440000D01*
X8218660Y-442670D01*
X8235000Y-453340D01*
X8249000Y-469330D01*
X8258340Y-488000D01*
X8263000Y-509330D01*
Y-530670D01*
X8258340Y-552000D01*
X8249000Y-570670D01*
X8235000Y-586670D01*
X8218660Y-597330D01*
X8200000Y-600000D01*
G01X8363330D02*
Y-440000D01*
X8419330D01*
X8438000Y-448000D01*
X8452000Y-466670D01*
X8456670Y-488000D01*
X8452000Y-509330D01*
X8440330Y-525330D01*
X8419330Y-533340D01*
X8363330D01*
M02*
