G04 ================== begin FILE IDENTIFICATION RECORD ==================*
G04 Layout Name:  Y:/Desktop/LynXLite/BOARD/lynx_lite.brd*
G04 Film Name:    LYNXLITE_05SST.GTO*
G04 File Format:  Gerber RS274X*
G04 File Origin:  Cadence Allegro 25.1-S020*
G04 Origin Date:  Sun May 17 17:30:24 2026*
G04 *
G04 Layer:  REF DES/SILKSCREEN_TOP*
G04 Layer:  PACKAGE GEOMETRY/SILKSCREEN_TOP*
G04 Layer:  DRAWING FORMAT/LOGO_DYNAMIS*
G04 Layer:  BOARD GEOMETRY/SILKSCREEN_TOP*
G04 *
G04 Offset:    (0.0000 0.0000)*
G04 Mirror:    No*
G04 Mode:      Positive*
G04 Rotation:  0*
G04 FullContactRelief:  No*
G04 UndefLineWidth:     0.1500*
G04 ================== end FILE IDENTIFICATION RECORD ====================*
%FSLAX35Y35*MOMM*%
%IR0*IPPOS*OFA0.00000B0.00000*MIA0B0*SFA1.00000B1.00000*%
%ADD10C,.2*%
%ADD11C,.15*%
%ADD12C,.35*%
%ADD13C,.1524*%
G75*
%LPD*%
G75*
G36*
G01X100000Y800000D02*
X200000D01*
G02X250000Y750000I0J-50000D01*
G01Y700000D01*
G02X200000Y650000I-50000J0D01*
G01X100000D01*
G02X50000Y700000I0J50000D01*
G01Y750000D01*
G02X100000Y800000I50000J0D01*
G37*
G36*
G01Y3850000D02*
X200000D01*
G02X250000Y3800000I0J-50000D01*
G01Y3750000D01*
G02X200000Y3700000I-50000J0D01*
G01X100000D01*
G02X50000Y3750000I0J50000D01*
G01Y3800000D01*
G02X100000Y3850000I50000J0D01*
G37*
G36*
G01X2021000Y500000D02*
Y150000D01*
X2096000D01*
Y500000D01*
X2021000D01*
G37*
G36*
G01X2087500Y2105000D02*
X2212500D01*
Y2130000D01*
X2087500D01*
Y2105000D01*
G37*
G36*
G01Y2605000D02*
X2212500D01*
Y2630000D01*
X2087500D01*
Y2605000D01*
G37*
G36*
G01X2892680Y1175000D02*
G03I-17680J0D01*
G37*
G36*
G01X2905000Y3562500D02*
Y3437500D01*
X2930000D01*
Y3562500D01*
X2905000D01*
G37*
G36*
G01Y4012500D02*
Y3887500D01*
X2930000D01*
Y4012500D01*
X2905000D01*
G37*
G36*
G01X3200000Y3575000D02*
X3400000D01*
G02X3450000Y3525000I0J-50000D01*
G01Y3425000D01*
G02X3400000Y3375000I-50000J0D01*
G01X3200000D01*
G02X3150000Y3425000I0J50000D01*
G01Y3525000D01*
G02X3200000Y3575000I50000J0D01*
G37*
G36*
G01Y4075000D02*
X3350000D01*
G02X3400000Y4025000I0J-50000D01*
G01Y3925000D01*
G02X3350000Y3875000I-50000J0D01*
G01X3200000D01*
G02X3150000Y3925000I0J50000D01*
G01Y4025000D01*
G02X3200000Y4075000I50000J0D01*
G37*
G36*
G01X4200000Y4350000D02*
Y3750000D01*
X4275000D01*
Y4350000D01*
X4200000D01*
G37*
G36*
G01X4425000Y125000D02*
G03I-25000J0D01*
G37*
G36*
G01X5350000Y3275000D02*
X5000000D01*
Y3200000D01*
X5350000D01*
Y3275000D01*
G37*
%LPC*%
G75*
G36*
G01X92500Y709270D02*
Y763170D01*
X207500D01*
Y717790D01*
X200890Y705430D01*
X191780Y698160D01*
X178470Y694600D01*
X164170Y697880D01*
X156700Y701460D01*
X156350Y700470D01*
X143350Y690070D01*
X128330Y686640D01*
X114020Y689910D01*
X101590Y696540D01*
X92500Y709270D01*
G37*
G36*
G01X97630Y3801210D02*
G02X92500Y3808330I2376J7120D01*
G02X100000Y3815830I7500J0D01*
G02X102370Y3815450I13J-7502D01*
G01X202370Y3782120D01*
G02X207500Y3775000I-2376J-7120D01*
G02X202370Y3767880I-7506J0D01*
G01X102370Y3734550D01*
G02X100000Y3734170I-2357J7122D01*
G02X92500Y3741670I0J7500D01*
G02X97630Y3748790I7506J0D01*
G01X127500Y3758740D01*
Y3791260D01*
X97630Y3801210D01*
G37*
G36*
G01X3300000Y3461430D02*
X3317060Y3516620D01*
G02X3324340Y3521990I7280J-2250D01*
G02X3331960Y3514370I0J-7620D01*
G02X3331620Y3512120I-7615J0D01*
G01X3307280Y3433380D01*
G02X3300000Y3428010I-7280J2250D01*
G02X3292720Y3433380I0J7620D01*
G01X3268380Y3512120D01*
G02X3268040Y3514370I7275J2250D01*
G02X3275660Y3521990I7620J0D01*
G02X3282940Y3516620I0J-7620D01*
G01X3300000Y3461430D01*
G37*
G36*
G01X3203710Y3514350D02*
X3213770Y3520370D01*
X3226230Y3522240D01*
X3238850Y3516570D01*
X3245820Y3507180D01*
X3248580Y3496000D01*
X3245820Y3484810D01*
X3241600Y3479120D01*
X3248680Y3472310D01*
X3251370Y3459580D01*
X3250040Y3448790D01*
X3243650Y3438460D01*
X3233340Y3429770D01*
X3222300Y3427910D01*
X3210640Y3429660D01*
X3200100Y3436760D01*
X3193410Y3447290D01*
G02X3192220Y3451380I6434J4090D01*
G02X3199840Y3459000I7620J0D01*
G02X3206270Y3455470I0J-7621D01*
G01X3211260Y3447620D01*
X3216300Y3444220D01*
X3222160Y3443350D01*
X3226700Y3444110D01*
X3231970Y3448540D01*
X3235320Y3453970D01*
X3235930Y3458920D01*
X3234740Y3464570D01*
X3230710Y3468440D01*
X3226660Y3470010D01*
X3219310D01*
G02Y3485250I0J7620D01*
G01X3225750D01*
X3228580Y3487150D01*
X3231760Y3491430D01*
X3232880Y3496000D01*
X3231760Y3500560D01*
X3228990Y3504290D01*
X3224070Y3506500D01*
X3219010Y3505750D01*
X3211550Y3501270D01*
G02X3207630Y3500190I-3911J6542D01*
G02X3200010Y3507810I0J7620D01*
G02X3203710Y3514350I7630J0D01*
G37*
G36*
G01X3361190D02*
X3371250Y3520370D01*
X3383710Y3522240D01*
X3396330Y3516570D01*
X3403300Y3507180D01*
X3406060Y3496000D01*
X3403300Y3484810D01*
X3399080Y3479120D01*
X3406160Y3472310D01*
X3408850Y3459580D01*
X3407520Y3448790D01*
X3401130Y3438460D01*
X3390820Y3429770D01*
X3379780Y3427910D01*
X3368120Y3429660D01*
X3357580Y3436760D01*
X3350890Y3447290D01*
G02X3349700Y3451380I6434J4090D01*
G02X3357320Y3459000I7620J0D01*
G02X3363750Y3455470I0J-7621D01*
G01X3368740Y3447620D01*
X3373780Y3444220D01*
X3379640Y3443350D01*
X3384180Y3444110D01*
X3389450Y3448540D01*
X3392800Y3453970D01*
X3393410Y3458920D01*
X3392220Y3464570D01*
X3388190Y3468440D01*
X3384140Y3470010D01*
X3376790D01*
G02Y3485250I0J7620D01*
G01X3383230D01*
X3386060Y3487150D01*
X3389240Y3491430D01*
X3390360Y3496000D01*
X3389240Y3500560D01*
X3386470Y3504290D01*
X3381550Y3506500D01*
X3376490Y3505750D01*
X3369030Y3501270D01*
G02X3365110Y3500190I-3911J6542D01*
G02X3357490Y3507810I0J7620D01*
G02X3361190Y3514350I7630J0D01*
G37*
G36*
G01X3213440Y3980900D02*
X3216950Y4021990D01*
X3250230D01*
G02Y4006750I0J-7620D01*
G01X3230950D01*
X3229790Y3993260D01*
X3235160Y3994290D01*
G02X3236600Y3994430I1454J-7479D01*
G02X3238040Y3994290I-14J-7619D01*
G01X3246640Y3992640D01*
X3255720Y3985640D01*
X3262270Y3976820D01*
X3264730Y3963540D01*
X3263530Y3950470D01*
X3257170Y3938470D01*
X3247920Y3931350D01*
X3236180Y3927840D01*
X3224310Y3929620D01*
X3215180Y3934900D01*
X3208520Y3942370D01*
G02X3206590Y3947440I5694J5070D01*
G02X3214210Y3955060I7620J0D01*
G02X3219900Y3952510I0J-7623D01*
G01X3224920Y3946860D01*
X3229430Y3944260D01*
X3235080Y3943420D01*
X3240860Y3945150D01*
X3245250Y3948530D01*
X3248630Y3954910D01*
X3249370Y3962840D01*
X3247930Y3970560D01*
X3244740Y3974860D01*
X3240200Y3978360D01*
X3236600Y3979050D01*
X3232550Y3978270D01*
X3224950Y3973710D01*
G02X3221030Y3972630I-3911J6542D01*
G02X3213410Y3980250I0J7620D01*
G02X3213440Y3980900I7619J-26D01*
G37*
G36*
G01X3314370Y3961430D02*
X3331430Y4016620D01*
G02X3338710Y4021990I7280J-2250D01*
G02X3346330Y4014370I0J-7620D01*
G02X3345990Y4012120I-7615J0D01*
G01X3321650Y3933380D01*
G02X3314370Y3928010I-7280J2250D01*
G02X3307090Y3933380I0J7620D01*
G01X3282750Y4012120D01*
G02X3282410Y4014370I7275J2250D01*
G02X3290030Y4021990I7620J0D01*
G02X3297310Y4016620I0J-7620D01*
G01X3314370Y3961430D01*
G37*
%LPD*%
G75*
G36*
G01X107500Y748170D02*
X145830D01*
Y715630D01*
X143650Y709530D01*
X136650Y703930D01*
X128330Y702020D01*
X119320Y704090D01*
X111750Y708120D01*
X107500Y714070D01*
Y748170D01*
G37*
G36*
G01X160830D02*
X192500D01*
Y721550D01*
X189110Y715230D01*
X184880Y711840D01*
X178190Y710060D01*
X169150Y712120D01*
X162840Y715150D01*
X160830Y717300D01*
Y748170D01*
G37*
G36*
G01X142500Y3763740D02*
Y3786260D01*
X176280Y3775000D01*
X142500Y3763740D01*
G37*
G54D10*
G01X575000Y400000D02*
G03I-175000J0D01*
G01Y4100000D02*
G03I-175000J0D01*
G01X4566160Y3299040D02*
G03I-175000J0D01*
G54D11*
G01X0Y2150000D02*
X1525000D01*
Y850000D01*
X0D01*
G01Y3650000D02*
X1525000D01*
Y2350000D01*
X0D01*
G01X1048880Y350000D02*
Y250000D01*
G01X1018210Y350000D02*
X1079550D01*
G01X1149200Y250000D02*
Y350000D01*
X1133200Y330000D01*
G01Y250000D02*
X1165200D01*
G01X1221520Y263330D02*
X1232190Y255000D01*
X1244190Y250000D01*
X1254850D01*
X1265520Y255000D01*
X1273520Y263330D01*
X1277520Y275000D01*
X1274850Y286660D01*
X1268190Y296670D01*
X1256190Y303330D01*
X1240190Y306670D01*
X1230850Y313330D01*
X1226850Y325000D01*
X1229520Y336670D01*
X1236190Y345000D01*
X1245520Y350000D01*
X1254850D01*
X1264190Y346670D01*
X1272190Y338330D01*
G01X1332510Y283330D02*
X1367170D01*
G01X1423490Y250000D02*
Y350000D01*
X1455490D01*
X1466160Y345000D01*
X1474160Y333330D01*
X1476830Y320000D01*
X1474160Y306670D01*
X1467490Y296670D01*
X1455490Y291660D01*
X1423490D01*
G01X1550480Y250000D02*
X1542480Y251670D01*
X1534480Y258330D01*
X1529150Y270000D01*
X1526480Y283330D01*
X1529150Y296670D01*
X1534480Y308330D01*
X1542480Y315000D01*
X1550480Y316660D01*
X1558480Y315000D01*
X1566480Y308330D01*
X1571810Y296670D01*
X1573150Y283330D01*
X1571810Y270000D01*
X1566480Y258330D01*
X1558480Y251670D01*
X1550480Y250000D01*
G01X1621470D02*
Y350000D01*
X1648130D01*
X1658800Y345000D01*
X1666800Y338330D01*
X1673470Y328330D01*
X1678800Y316660D01*
X1680130Y300000D01*
X1678800Y283330D01*
X1673470Y271670D01*
X1666800Y261660D01*
X1658800Y255000D01*
X1648130Y250000D01*
X1621470D01*
G01X1724450Y350000D02*
Y250000D01*
X1777790D01*
G01X972850Y600000D02*
Y500000D01*
X1026190D01*
G01X1099840D02*
Y545000D01*
X1073170Y600000D01*
G01X1126510D02*
X1099840Y545000D01*
G01X1169490Y500000D02*
Y600000D01*
X1230830Y500000D01*
Y600000D01*
G01X1272480Y500000D02*
X1328480Y600000D01*
G01X1272480D02*
X1328480Y500000D01*
G01X1175000Y1850000D02*
G03I-125000J0D01*
G01Y3350000D02*
G03I-125000J0D01*
G01X1472850Y600000D02*
Y500000D01*
X1526190D01*
G01X1583840Y600000D02*
X1615840D01*
G01X1599840D02*
Y500000D01*
G01X1583840D02*
X1615840D01*
G01X1700160Y600000D02*
Y500000D01*
G01X1669490Y600000D02*
X1730830D01*
G01X1827150Y500000D02*
X1773810D01*
Y600000D01*
X1827150D01*
G01X1805810Y551670D02*
X1773810D01*
G01X1887500Y1212500D02*
Y1187500D01*
X1612500D01*
Y1212500D01*
G01X1887500Y1437500D02*
Y1462500D01*
X1612500D01*
Y1437500D01*
G01X1887500Y1362500D02*
Y1337500D01*
X1612500D01*
Y1362500D01*
G01X1887500Y1287500D02*
Y1312500D01*
X1612500D01*
Y1287500D01*
G01X2012500Y1162500D02*
X1925000D01*
Y1300000D01*
G01X2012500Y1487500D02*
X1925000D01*
Y1350000D01*
G01X2021000Y150000D02*
Y500000D01*
G01X2221000Y150000D02*
X2021000D01*
G01X2265000Y550000D02*
X2165000D01*
G01X2225500Y600000D02*
X2200500D01*
G01X2244250Y575000D02*
X2181750D01*
G01X2021000Y500000D02*
X2100000D01*
G01X2075000Y2300000D02*
X2550000D01*
G02X2600000Y2250000I0J-50000D01*
G01Y1950000D01*
G02X2550000Y1900000I-50000J0D01*
G01X2075000D01*
G02X2025000Y1950000I0J50000D01*
G01Y2250000D01*
G02X2075000Y2300000I50000J0D01*
G01X2112500Y2237500D02*
X2087500D01*
Y1962500D01*
X2112500D01*
G01X2187500Y2237500D02*
X2212500D01*
Y1962500D01*
X2187500D01*
G01X2075000Y2800000D02*
X2550000D01*
G02X2600000Y2750000I0J-50000D01*
G01Y2450000D01*
G02X2550000Y2400000I-50000J0D01*
G01X2075000D01*
G02X2025000Y2450000I0J50000D01*
G01Y2750000D01*
G02X2075000Y2800000I50000J0D01*
G01X2112500Y2737500D02*
X2087500D01*
Y2462500D01*
X2112500D01*
G01X2187500Y2737500D02*
X2212500D01*
Y2462500D01*
X2187500D01*
G01X2215000Y450000D02*
Y550000D01*
G01X2237500Y1162500D02*
X2325000D01*
Y1300000D01*
G01X2237500Y1487500D02*
X2325000D01*
Y1350000D01*
G01X2487500Y2037500D02*
X2312500D01*
G01D02*
X2350000Y2000000D01*
G01X2312500Y2037500D02*
X2350000Y2075000D01*
G01X2312500Y2162500D02*
X2487500D01*
G01X2500000Y2625000D02*
G03X2400000I-50000J0D01*
G01Y2562500D02*
X2425000D01*
G01X2300000Y2625000D02*
G03X2317680Y2582320I60355J0D01*
G01D02*
X2400000Y2500000D01*
G01Y2625000D02*
G03X2300000I-50000J0D01*
G01X2512500Y1137500D02*
X2437500D01*
Y1212500D01*
G01Y1537500D02*
Y1612500D01*
X2512500D01*
G01X2450000Y2200000D02*
X2487500Y2162500D01*
G01D02*
X2450000Y2125000D01*
G01X2475000Y2525000D02*
X2500000Y2562500D01*
G01D02*
X2525000D01*
G01X2450000Y2600000D02*
X2475000Y2525000D01*
G01X2425000Y2562500D02*
X2450000Y2600000D01*
G01X3037500Y3387500D02*
Y3412500D01*
X2762500D01*
Y3387500D01*
G01X3037500Y3312500D02*
Y3287500D01*
X2762500D01*
Y3312500D01*
G01X3037500Y3537500D02*
Y3562500D01*
X2762500D01*
Y3537500D01*
G01X3037500Y3462500D02*
Y3437500D01*
X2762500D01*
Y3462500D01*
G01X3037500Y3987500D02*
Y4012500D01*
X2762500D01*
Y3987500D01*
G01X3037500Y3912500D02*
Y3887500D01*
X2762500D01*
Y3912500D01*
G01X3037500Y4137500D02*
Y4162500D01*
X2762500D01*
Y4137500D01*
G01X3037500Y4062500D02*
Y4037500D01*
X2762500D01*
Y4062500D01*
G01X2912500Y1212500D02*
Y1137500D01*
X2837500D01*
G01X3012500Y1437500D02*
X2987500D01*
Y1712500D01*
X3012500D01*
G01X2837500Y1612500D02*
X2912500D01*
Y1537500D01*
G01X3162500Y1437500D02*
X3137500D01*
Y1712500D01*
X3162500D01*
G01X3087500Y1437500D02*
X3112500D01*
Y1712500D01*
X3087500D01*
G01X3237500Y1437500D02*
X3262500D01*
Y1712500D01*
X3237500D01*
G01X3679000Y150000D02*
X3479000D01*
G01X3437500Y1612500D02*
X3412500D01*
Y1337500D01*
X3437500D01*
G01X3512500Y1612500D02*
X3537500D01*
Y1337500D01*
X3512500D01*
G01X3587500Y1612500D02*
X3562500D01*
Y1337500D01*
X3587500D01*
G01X3412500Y1712500D02*
Y1687500D01*
X3687500D01*
Y1712500D01*
G01X3412500Y1787500D02*
Y1812500D01*
X3687500D01*
Y1787500D01*
G01X3580000Y2460000D02*
Y2430000D01*
X4020000D01*
Y2460000D01*
G01Y2940000D02*
Y2970000D01*
X3580000D01*
Y2940000D01*
G01X3679000Y500000D02*
Y150000D01*
G01X3600000Y500000D02*
X3679000D01*
G01X3662500Y1612500D02*
X3687500D01*
Y1337500D01*
X3662500D01*
G01X3688280Y2890000D02*
G03I-28280J0D01*
G01X4062500Y1437500D02*
Y1462500D01*
X3787500D01*
Y1437500D01*
G01X4062500Y1362500D02*
Y1337500D01*
X3787500D01*
Y1362500D01*
G01Y1512500D02*
Y1487500D01*
X4062500D01*
Y1512500D01*
G01X3787500Y1587500D02*
Y1612500D01*
X4062500D01*
Y1587500D01*
G01X4137500Y862500D02*
Y837500D01*
X4412500D01*
Y862500D01*
G01X4087500Y837500D02*
X4112500D01*
Y1112500D01*
X4087500D01*
G01X4012500Y837500D02*
X3987500D01*
Y1112500D01*
X4012500D01*
G01X4137500Y1012500D02*
Y987500D01*
X4412500D01*
Y1012500D01*
G01X4137500Y937500D02*
Y962500D01*
X4412500D01*
Y937500D01*
G01X4137500Y1087500D02*
Y1112500D01*
X4412500D01*
Y1087500D01*
G01X4137500Y1162500D02*
Y1137500D01*
X4412500D01*
Y1162500D01*
G01X4137500Y1237500D02*
Y1262500D01*
X4412500D01*
Y1237500D01*
G01X4137500Y1312500D02*
Y1287500D01*
X4412500D01*
Y1312500D01*
G01X4137500Y1387500D02*
Y1412500D01*
X4412500D01*
Y1387500D01*
G01X4087500Y1512500D02*
Y1487500D01*
X4362500D01*
Y1512500D01*
G01X4087500Y1587500D02*
Y1612500D01*
X4362500D01*
Y1587500D01*
G01X4137500Y1687500D02*
X4162500D01*
Y1962500D01*
X4137500D01*
G01X4062500Y1687500D02*
X4037500D01*
Y1962500D01*
X4062500D01*
G01X4200000Y550000D02*
Y250000D01*
G01D02*
G03X4250000Y200000I50000J0D01*
G01D02*
X4400000D01*
G01Y600000D02*
X4250000D01*
G01D02*
G03X4200000Y550000I0J-50000D01*
G01X4362500Y2537500D02*
X4275000D01*
Y2675000D01*
G01X4362500Y2862500D02*
X4275000D01*
Y2725000D01*
G01X4344000Y3698000D02*
X4444000D01*
G01X4275000Y3750000D02*
X4200000D01*
Y4350000D01*
X4400000D01*
G01Y675000D02*
Y200000D01*
G01X4537500Y2112500D02*
X4512500D01*
Y1750000D01*
X4537500D01*
G01X4383500Y3648000D02*
X4408500D01*
G01X4364750Y3673000D02*
X4427250D01*
G01X4394000Y3798000D02*
Y3698000D01*
G01X4662500Y2112500D02*
X4687500D01*
Y1750000D01*
X4662500D01*
G01X4587500Y2537500D02*
X4675000D01*
Y2675000D01*
G01X4587500Y2862500D02*
X4675000D01*
Y2725000D01*
G01X5450000Y1025000D02*
X4775000D01*
Y2075000D01*
X5450000D01*
G01X4950000Y3127000D02*
Y3027000D01*
G01X5050000Y3077000D02*
X4950000D01*
G01X4925000Y3106250D02*
Y3043750D01*
G01X4900000Y3087500D02*
Y3062500D01*
G01X5250000Y200000D02*
X5100000D01*
G01Y125000D02*
Y675000D01*
G01Y600000D02*
X5250000D01*
G01X5350000Y2575000D02*
Y2375000D01*
X5000000D01*
Y2450000D01*
G01Y3200000D02*
Y3275000D01*
X5350000D01*
Y3075000D01*
G01X5300000Y550000D02*
Y250000D01*
G01D02*
G02X5250000Y200000I-50000J0D01*
G01Y600000D02*
G02X5300000Y550000I0J-50000D01*
G01X5275000Y3750000D02*
X5350000D01*
Y4350000D01*
X5150000D01*
G54D12*
G01X5421000Y-778670D02*
X5439670Y-792000D01*
X5460670Y-800000D01*
X5479330D01*
X5498000Y-792000D01*
X5512000Y-778670D01*
X5519000Y-760000D01*
X5514330Y-741340D01*
X5502670Y-725330D01*
X5481670Y-714670D01*
X5453670Y-709330D01*
X5437330Y-698670D01*
X5430330Y-680000D01*
X5435000Y-661330D01*
X5446670Y-648000D01*
X5463000Y-640000D01*
X5479330D01*
X5495670Y-645330D01*
X5509670Y-658670D01*
G01X5652000Y-640000D02*
X5708000D01*
G01X5680000D02*
Y-800000D01*
G01X5652000D02*
X5708000D01*
G01X5843330Y-640000D02*
Y-800000D01*
X5936670D01*
G01X6048670D02*
Y-640000D01*
G01X6137330D02*
X6048670Y-738670D01*
G01X6151330Y-800000D02*
X6088330Y-693340D01*
G01X6261000Y-778670D02*
X6279670Y-792000D01*
X6300670Y-800000D01*
X6319330D01*
X6338000Y-792000D01*
X6352000Y-778670D01*
X6359000Y-760000D01*
X6354330Y-741340D01*
X6342670Y-725330D01*
X6321670Y-714670D01*
X6293670Y-709330D01*
X6277330Y-698670D01*
X6270330Y-680000D01*
X6275000Y-661330D01*
X6286670Y-648000D01*
X6303000Y-640000D01*
X6319330D01*
X6335670Y-645330D01*
X6349670Y-658670D01*
G01X6571330Y-653340D02*
X6557330Y-645330D01*
X6541000Y-640000D01*
X6522330D01*
X6501330Y-648000D01*
X6485000Y-661330D01*
X6473330Y-677340D01*
X6464000Y-704000D01*
X6461660Y-728000D01*
X6466330Y-752000D01*
X6473330Y-768000D01*
X6487330Y-784000D01*
X6503670Y-794670D01*
X6520000Y-800000D01*
X6536330D01*
X6552670Y-794670D01*
X6566670Y-786670D01*
X6578340Y-776010D01*
G01X6683330Y-800000D02*
Y-640000D01*
X6741670D01*
X6760330Y-648000D01*
X6772000Y-658670D01*
X6776670Y-680000D01*
X6772000Y-701330D01*
X6758000Y-714670D01*
X6741670Y-722670D01*
X6683330D01*
G01X6741670D02*
X6776670Y-800000D01*
G01X6986670D02*
X6893330D01*
Y-640000D01*
X6986670D01*
G01X6949330Y-717330D02*
X6893330D01*
G01X7196670Y-800000D02*
X7103330D01*
Y-640000D01*
X7196670D01*
G01X7159330Y-717330D02*
X7103330D01*
G01X7306330Y-800000D02*
Y-640000D01*
X7413670Y-800000D01*
Y-640000D01*
G01X7780000D02*
Y-800000D01*
G01X7726330Y-640000D02*
X7833670D01*
G01X7990000Y-800000D02*
X7971330Y-797330D01*
X7955000Y-786670D01*
X7941000Y-770670D01*
X7931660Y-752000D01*
X7927000Y-730670D01*
Y-709330D01*
X7931660Y-688000D01*
X7941000Y-669330D01*
X7955000Y-653340D01*
X7971330Y-642670D01*
X7990000Y-640000D01*
X8008660Y-642670D01*
X8025000Y-653340D01*
X8039000Y-669330D01*
X8048340Y-688000D01*
X8053000Y-709330D01*
Y-730670D01*
X8048340Y-752000D01*
X8039000Y-770670D01*
X8025000Y-786670D01*
X8008660Y-797330D01*
X7990000Y-800000D01*
G01X8153330D02*
Y-640000D01*
X8209330D01*
X8228000Y-648000D01*
X8242000Y-666670D01*
X8246670Y-688000D01*
X8242000Y-709330D01*
X8230330Y-725330D01*
X8209330Y-733340D01*
X8153330D01*
G54D13*
G01X1351380Y2058840D02*
X1343500Y2053970D01*
X1338250Y2048130D01*
X1335630Y2041320D01*
X1338250Y2033530D01*
X1343500Y2027690D01*
X1351380Y2021840D01*
X1361880Y2019900D01*
X1414370D01*
G01X1401250Y1979130D02*
X1409120Y1973290D01*
X1413060Y1966470D01*
X1414370Y1958680D01*
X1411750Y1948950D01*
X1405180Y1942130D01*
X1397310Y1940180D01*
X1389430Y1941160D01*
X1382870Y1945050D01*
X1369750Y1964520D01*
X1360560Y1973290D01*
X1347440Y1979130D01*
X1335630Y1981080D01*
Y1940180D01*
G01X1351380Y3558840D02*
X1343500Y3553970D01*
X1338250Y3548130D01*
X1335630Y3541320D01*
X1338250Y3533530D01*
X1343500Y3527690D01*
X1351380Y3521840D01*
X1361880Y3519900D01*
X1414370D01*
G01X1351380Y3482050D02*
X1342190Y3476210D01*
X1336940Y3468420D01*
X1335630Y3459660D01*
X1336940Y3451870D01*
X1343500Y3444080D01*
X1351380Y3439210D01*
X1359250Y3438240D01*
X1368440Y3440180D01*
X1375000Y3447000D01*
X1377630Y3453810D01*
Y3462580D01*
G01Y3453810D02*
X1381560Y3447970D01*
X1388120Y3443100D01*
X1396000Y3441160D01*
X1403870Y3443100D01*
X1410430Y3447970D01*
X1414370Y3456740D01*
X1413060Y3465500D01*
X1407810Y3474260D01*
G01X1616160Y2435630D02*
Y2514370D01*
X1640500D01*
X1648290Y2510430D01*
X1653160Y2505180D01*
X1655100Y2494680D01*
X1653160Y2484190D01*
X1647310Y2477630D01*
X1640500Y2473690D01*
X1616160D01*
G01X1640500D02*
X1655100Y2435630D01*
G01X1714370D02*
Y2514370D01*
X1702690Y2498620D01*
G01Y2435630D02*
X1726050D01*
G01X1636900Y2934150D02*
X1586100D01*
Y2565850D01*
X1636900D01*
G01X1692680Y1132810D02*
X1686840Y1136750D01*
X1680020Y1139370D01*
X1672230D01*
X1663470Y1135430D01*
X1656660Y1128870D01*
X1651790Y1121000D01*
X1647890Y1107870D01*
X1646920Y1096060D01*
X1648870Y1084250D01*
X1651790Y1076380D01*
X1657630Y1068500D01*
X1664440Y1063250D01*
X1671260Y1060630D01*
X1678080D01*
X1684890Y1063250D01*
X1690730Y1067190D01*
X1695600Y1072440D01*
G01X1728580Y1076380D02*
X1734420Y1067190D01*
X1742210Y1061940D01*
X1750970Y1060630D01*
X1758760Y1061940D01*
X1766550Y1068500D01*
X1771420Y1076380D01*
X1772390Y1084250D01*
X1770450Y1093440D01*
X1763630Y1100000D01*
X1756820Y1102630D01*
X1748050D01*
G01X1756820D02*
X1762660Y1106560D01*
X1767530Y1113120D01*
X1769470Y1121000D01*
X1767530Y1128870D01*
X1762660Y1135430D01*
X1753890Y1139370D01*
X1745130Y1138060D01*
X1736370Y1132810D01*
G01X1828740Y1060630D02*
Y1139370D01*
X1817060Y1123620D01*
G01Y1060630D02*
X1840420D01*
G01X1692680Y1582810D02*
X1686840Y1586750D01*
X1680020Y1589370D01*
X1672230D01*
X1663470Y1585430D01*
X1656660Y1578870D01*
X1651790Y1571000D01*
X1647890Y1557870D01*
X1646920Y1546060D01*
X1648870Y1534250D01*
X1651790Y1526380D01*
X1657630Y1518500D01*
X1664440Y1513250D01*
X1671260Y1510630D01*
X1678080D01*
X1684890Y1513250D01*
X1690730Y1517190D01*
X1695600Y1522440D01*
G01X1728580Y1526380D02*
X1734420Y1517190D01*
X1742210Y1511940D01*
X1750970Y1510630D01*
X1758760Y1511940D01*
X1766550Y1518500D01*
X1771420Y1526380D01*
X1772390Y1534250D01*
X1770450Y1543440D01*
X1763630Y1550000D01*
X1756820Y1552630D01*
X1748050D01*
G01X1756820D02*
X1762660Y1556560D01*
X1767530Y1563120D01*
X1769470Y1571000D01*
X1767530Y1578870D01*
X1762660Y1585430D01*
X1753890Y1589370D01*
X1745130Y1588060D01*
X1736370Y1582810D01*
G01X1828740Y1589370D02*
X1820950Y1586750D01*
X1815110Y1580180D01*
X1811210Y1572310D01*
X1808290Y1561810D01*
X1807320Y1550000D01*
X1808290Y1538190D01*
X1811210Y1527690D01*
X1815110Y1519810D01*
X1820950Y1513250D01*
X1828740Y1510630D01*
X1836530Y1513250D01*
X1842370Y1519810D01*
X1846270Y1527690D01*
X1849190Y1538190D01*
X1850160Y1550000D01*
X1849190Y1561810D01*
X1846270Y1572310D01*
X1842370Y1580180D01*
X1836530Y1586750D01*
X1828740Y1589370D01*
G01X1713100Y2565850D02*
X1763900D01*
Y2934150D01*
X1713100D01*
G01X2191160Y1114370D02*
Y1035630D01*
X2230100D01*
G01X2267950Y1051380D02*
X2273790Y1042190D01*
X2281580Y1036940D01*
X2290340Y1035630D01*
X2298130Y1036940D01*
X2305920Y1043500D01*
X2310790Y1051380D01*
X2311760Y1059250D01*
X2309820Y1068440D01*
X2303000Y1075000D01*
X2296190Y1077630D01*
X2287420D01*
G01X2296190D02*
X2302030Y1081560D01*
X2306900Y1088120D01*
X2308840Y1096000D01*
X2306900Y1103870D01*
X2302030Y1110430D01*
X2293260Y1114370D01*
X2284500Y1113060D01*
X2275740Y1107810D01*
G01X2445380Y708110D02*
X2436190Y702270D01*
X2430940Y694480D01*
X2429630Y685720D01*
X2430940Y677930D01*
X2437500Y670140D01*
X2445380Y665270D01*
X2453250Y664300D01*
X2462440Y666240D01*
X2469000Y673060D01*
X2471630Y679870D01*
Y688640D01*
G01Y679870D02*
X2475560Y674030D01*
X2482120Y669160D01*
X2490000Y667220D01*
X2497870Y669160D01*
X2504430Y674030D01*
X2508370Y682800D01*
X2507060Y691560D01*
X2501810Y700320D01*
G01X2508370Y632290D02*
X2429630Y607950D01*
X2508370Y583610D01*
G01X2445380Y550630D02*
X2436190Y544790D01*
X2430940Y537000D01*
X2429630Y528240D01*
X2430940Y520450D01*
X2437500Y512660D01*
X2445380Y507790D01*
X2453250Y506820D01*
X2462440Y508760D01*
X2469000Y515580D01*
X2471630Y522390D01*
Y531160D01*
G01Y522390D02*
X2475560Y516550D01*
X2482120Y511680D01*
X2490000Y509740D01*
X2497870Y511680D01*
X2504430Y516550D01*
X2508370Y525320D01*
X2507060Y534080D01*
X2501810Y542840D01*
G01X2683630Y632290D02*
X2762370Y607950D01*
X2683630Y583610D01*
G01X2711190Y592370D02*
Y623530D01*
G01X2683630Y529210D02*
X2762370D01*
X2746620Y540890D01*
G01X2683630D02*
Y517530D01*
G01X2789210Y1089370D02*
Y1032940D01*
X2793100Y1021130D01*
X2800890Y1013250D01*
X2810630Y1010630D01*
X2820370Y1013250D01*
X2828160Y1021130D01*
X2832050Y1032940D01*
Y1089370D01*
G01X2867950Y1026380D02*
X2873790Y1017190D01*
X2881580Y1011940D01*
X2890340Y1010630D01*
X2898130Y1011940D01*
X2905920Y1018500D01*
X2910790Y1026380D01*
X2911760Y1034250D01*
X2909820Y1043440D01*
X2903000Y1050000D01*
X2896190Y1052630D01*
X2887420D01*
G01X2896190D02*
X2902030Y1056560D01*
X2906900Y1063120D01*
X2908840Y1071000D01*
X2906900Y1078870D01*
X2902030Y1085430D01*
X2893260Y1089370D01*
X2884500Y1088060D01*
X2875740Y1082810D01*
G01X2766160Y3160630D02*
Y3239370D01*
X2790500D01*
X2798290Y3235430D01*
X2803160Y3230180D01*
X2805100Y3219680D01*
X2803160Y3209190D01*
X2797310Y3202630D01*
X2790500Y3198690D01*
X2766160D01*
G01X2790500D02*
X2805100Y3160630D01*
G01X2847820Y3169810D02*
X2854630Y3163250D01*
X2862420Y3160630D01*
X2870210Y3163250D01*
X2877030Y3171130D01*
X2881900Y3182940D01*
X2883840Y3194750D01*
Y3209190D01*
X2881900Y3221000D01*
X2877030Y3231500D01*
X2871190Y3236750D01*
X2864370Y3239370D01*
X2856580Y3236750D01*
X2850740Y3231500D01*
X2846840Y3223620D01*
X2844900Y3213120D01*
X2846840Y3203940D01*
X2851710Y3194750D01*
X2857550Y3189500D01*
X2864370Y3188190D01*
X2872160Y3190810D01*
X2878000Y3197370D01*
X2883840Y3209190D01*
G01X2766160Y4210630D02*
Y4289370D01*
X2790500D01*
X2798290Y4285430D01*
X2803160Y4280180D01*
X2805100Y4269680D01*
X2803160Y4259190D01*
X2797310Y4252630D01*
X2790500Y4248690D01*
X2766160D01*
G01X2790500D02*
X2805100Y4210630D01*
G01X2864370D02*
X2871190Y4211940D01*
X2878970Y4215880D01*
X2883840Y4222440D01*
X2885790Y4231630D01*
X2883840Y4240810D01*
X2878000Y4248690D01*
X2869240Y4252630D01*
X2859500D01*
X2853660Y4255250D01*
X2848790Y4261810D01*
X2846840Y4271000D01*
X2849770Y4280180D01*
X2856580Y4286750D01*
X2864370Y4289370D01*
X2872160Y4286750D01*
X2878970Y4280180D01*
X2881900Y4271000D01*
X2879950Y4261810D01*
X2875080Y4255250D01*
X2869240Y4252630D01*
X2859500D01*
X2850740Y4248690D01*
X2844900Y4240810D01*
X2842950Y4231630D01*
X2844900Y4222440D01*
X2849770Y4215880D01*
X2857550Y4211940D01*
X2864370Y4210630D01*
G01X2937630Y632290D02*
X3016370Y607950D01*
X2937630Y583610D01*
G01X2965190Y592370D02*
Y623530D01*
G01X3003250Y547710D02*
X3011120Y541870D01*
X3015060Y535050D01*
X3016370Y527260D01*
X3013750Y517530D01*
X3007180Y510710D01*
X2999310Y508760D01*
X2991430Y509740D01*
X2984870Y513630D01*
X2971750Y533100D01*
X2962560Y541870D01*
X2949440Y547710D01*
X2937630Y549660D01*
Y508760D01*
G01X3082810Y1932320D02*
X3086750Y1938160D01*
X3089370Y1944980D01*
Y1952770D01*
X3085430Y1961530D01*
X3078870Y1968340D01*
X3071000Y1973210D01*
X3057870Y1977110D01*
X3046060Y1978080D01*
X3034250Y1976130D01*
X3026380Y1973210D01*
X3018500Y1967370D01*
X3013250Y1960560D01*
X3010630Y1953740D01*
Y1946920D01*
X3013250Y1940110D01*
X3017190Y1934270D01*
X3022440Y1929400D01*
G01X3076250Y1893500D02*
X3084120Y1887660D01*
X3088060Y1880840D01*
X3089370Y1873050D01*
X3086750Y1863320D01*
X3080180Y1856500D01*
X3072310Y1854550D01*
X3064430Y1855530D01*
X3057870Y1859420D01*
X3044750Y1878890D01*
X3035560Y1887660D01*
X3022440Y1893500D01*
X3010630Y1895450D01*
Y1854550D01*
G01Y1798210D02*
X3027690Y1796260D01*
X3042120Y1793340D01*
X3055250Y1789440D01*
X3069680Y1784580D01*
X3089370Y1776790D01*
Y1815730D01*
G01X3191630Y632290D02*
X3270370Y607950D01*
X3191630Y583610D01*
G01X3219190Y592370D02*
Y623530D01*
G01X3207380Y550630D02*
X3198190Y544790D01*
X3192940Y537000D01*
X3191630Y528240D01*
X3192940Y520450D01*
X3199500Y512660D01*
X3207380Y507790D01*
X3215250Y506820D01*
X3224440Y508760D01*
X3231000Y515580D01*
X3233630Y522390D01*
Y531160D01*
G01Y522390D02*
X3237560Y516550D01*
X3244120Y511680D01*
X3252000Y509740D01*
X3259870Y511680D01*
X3266430Y516550D01*
X3270370Y525320D01*
X3269060Y534080D01*
X3263810Y542840D01*
G01X3232810Y1932320D02*
X3236750Y1938160D01*
X3239370Y1944980D01*
Y1952770D01*
X3235430Y1961530D01*
X3228870Y1968340D01*
X3221000Y1973210D01*
X3207870Y1977110D01*
X3196060Y1978080D01*
X3184250Y1976130D01*
X3176380Y1973210D01*
X3168500Y1967370D01*
X3163250Y1960560D01*
X3160630Y1953740D01*
Y1946920D01*
X3163250Y1940110D01*
X3167190Y1934270D01*
X3172440Y1929400D01*
G01X3226250Y1893500D02*
X3234120Y1887660D01*
X3238060Y1880840D01*
X3239370Y1873050D01*
X3236750Y1863320D01*
X3230180Y1856500D01*
X3222310Y1854550D01*
X3214430Y1855530D01*
X3207870Y1859420D01*
X3194750Y1878890D01*
X3185560Y1887660D01*
X3172440Y1893500D01*
X3160630Y1895450D01*
Y1854550D01*
G01X3193440Y1814760D02*
X3202630Y1807940D01*
X3207870Y1802100D01*
X3210500Y1794310D01*
X3207870Y1787500D01*
X3202630Y1782630D01*
X3194750Y1778730D01*
X3185560Y1777760D01*
X3177690Y1778730D01*
X3169810Y1782630D01*
X3163250Y1788470D01*
X3160630Y1795290D01*
X3163250Y1803080D01*
X3171130Y1809890D01*
X3182940Y1813790D01*
X3196060Y1814760D01*
X3213120Y1812810D01*
X3222310Y1809890D01*
X3231500Y1805020D01*
X3238060Y1798210D01*
X3239370Y1791390D01*
X3236750Y1784580D01*
X3230180Y1779710D01*
G01X3445630Y632290D02*
X3524370Y607950D01*
X3445630Y583610D01*
G01X3473190Y592370D02*
Y623530D01*
G01X3445630Y517530D02*
X3524370D01*
X3467940Y553550D01*
Y504870D01*
G01X3507810Y1242950D02*
X3511750Y1248790D01*
X3514370Y1255610D01*
Y1263400D01*
X3510430Y1272160D01*
X3503870Y1278970D01*
X3496000Y1283840D01*
X3482870Y1287740D01*
X3471060Y1288710D01*
X3459250Y1286760D01*
X3451380Y1283840D01*
X3443500Y1278000D01*
X3438250Y1271190D01*
X3435630Y1264370D01*
Y1257550D01*
X3438250Y1250740D01*
X3442190Y1244900D01*
X3447440Y1240030D01*
G01Y1207050D02*
X3440880Y1201210D01*
X3436940Y1194390D01*
X3435630Y1185630D01*
X3438250Y1176870D01*
X3443500Y1170050D01*
X3452690Y1165180D01*
X3463190Y1164210D01*
X3473690Y1166160D01*
X3480250Y1171030D01*
X3485500Y1177840D01*
X3486810Y1184660D01*
X3485500Y1191470D01*
X3480250Y1200230D01*
X3514370Y1197310D01*
Y1171030D01*
G01X3657810Y1242950D02*
X3661750Y1248790D01*
X3664370Y1255610D01*
Y1263400D01*
X3660430Y1272160D01*
X3653870Y1278970D01*
X3646000Y1283840D01*
X3632870Y1287740D01*
X3621060Y1288710D01*
X3609250Y1286760D01*
X3601380Y1283840D01*
X3593500Y1278000D01*
X3588250Y1271190D01*
X3585630Y1264370D01*
Y1257550D01*
X3588250Y1250740D01*
X3592190Y1244900D01*
X3597440Y1240030D01*
G01X3618440Y1204130D02*
X3627630Y1197310D01*
X3632870Y1191470D01*
X3635500Y1183680D01*
X3632870Y1176870D01*
X3627630Y1172000D01*
X3619750Y1168100D01*
X3610560Y1167130D01*
X3602690Y1168100D01*
X3594810Y1172000D01*
X3588250Y1177840D01*
X3585630Y1184660D01*
X3588250Y1192450D01*
X3596130Y1199260D01*
X3607940Y1203160D01*
X3621060Y1204130D01*
X3638120Y1202180D01*
X3647310Y1199260D01*
X3656500Y1194390D01*
X3663060Y1187580D01*
X3664370Y1180760D01*
X3661750Y1173950D01*
X3655180Y1169080D01*
G01X3457050Y1932810D02*
X3451210Y1936750D01*
X3444390Y1939370D01*
X3436600D01*
X3427840Y1935430D01*
X3421030Y1928870D01*
X3416160Y1921000D01*
X3412260Y1907870D01*
X3411290Y1896060D01*
X3413240Y1884250D01*
X3416160Y1876380D01*
X3422000Y1868500D01*
X3428810Y1863250D01*
X3435630Y1860630D01*
X3442450D01*
X3449260Y1863250D01*
X3455100Y1867190D01*
X3459970Y1872440D01*
G01X3514370Y1860630D02*
Y1939370D01*
X3502690Y1923620D01*
G01Y1860630D02*
X3526050D01*
G01X3741160Y176380D02*
X3746030Y168500D01*
X3751870Y163250D01*
X3758680Y160630D01*
X3766470Y163250D01*
X3772310Y168500D01*
X3778160Y176380D01*
X3780100Y186880D01*
Y239370D01*
G01X3851050Y160630D02*
Y239370D01*
X3815030Y182940D01*
X3863710D01*
G01X3589210Y3114370D02*
Y3057940D01*
X3593100Y3046130D01*
X3600890Y3038250D01*
X3610630Y3035630D01*
X3620370Y3038250D01*
X3628160Y3046130D01*
X3632050Y3057940D01*
Y3114370D01*
G01X3701050Y3035630D02*
Y3114370D01*
X3665030Y3057940D01*
X3713710D01*
G01X3860630Y958840D02*
X3939370D01*
Y934500D01*
X3935430Y926710D01*
X3930180Y921840D01*
X3919680Y919900D01*
X3909190Y921840D01*
X3902630Y927690D01*
X3898690Y934500D01*
Y958840D01*
G01Y934500D02*
X3860630Y919900D01*
G01X3876380Y882050D02*
X3867190Y876210D01*
X3861940Y868420D01*
X3860630Y859660D01*
X3861940Y851870D01*
X3868500Y844080D01*
X3876380Y839210D01*
X3884250Y838240D01*
X3893440Y840180D01*
X3900000Y847000D01*
X3902630Y853810D01*
Y862580D01*
G01Y853810D02*
X3906560Y847970D01*
X3913120Y843100D01*
X3921000Y841160D01*
X3928870Y843100D01*
X3935430Y847970D01*
X3939370Y856740D01*
X3938060Y865500D01*
X3932810Y874260D01*
G01X3867680Y1282810D02*
X3861840Y1286750D01*
X3855020Y1289370D01*
X3847230D01*
X3838470Y1285430D01*
X3831660Y1278870D01*
X3826790Y1271000D01*
X3822890Y1257870D01*
X3821920Y1246060D01*
X3823870Y1234250D01*
X3826790Y1226380D01*
X3832630Y1218500D01*
X3839440Y1213250D01*
X3846260Y1210630D01*
X3853080D01*
X3859890Y1213250D01*
X3865730Y1217190D01*
X3870600Y1222440D01*
G01X3925000Y1210630D02*
Y1289370D01*
X3913320Y1273620D01*
G01Y1210630D02*
X3936680D01*
G01X3982320Y1226380D02*
X3988160Y1217190D01*
X3995950Y1211940D01*
X4004710Y1210630D01*
X4012500Y1211940D01*
X4020290Y1218500D01*
X4025160Y1226380D01*
X4026130Y1234250D01*
X4024190Y1243440D01*
X4017370Y1250000D01*
X4010560Y1252630D01*
X4001790D01*
G01X4010560D02*
X4016400Y1256560D01*
X4021270Y1263120D01*
X4023210Y1271000D01*
X4021270Y1278870D01*
X4016400Y1285430D01*
X4007630Y1289370D01*
X3998870Y1288060D01*
X3990110Y1282810D01*
G01X3866160Y1660630D02*
Y1739370D01*
X3890500D01*
X3898290Y1735430D01*
X3903160Y1730180D01*
X3905100Y1719680D01*
X3903160Y1709190D01*
X3897310Y1702630D01*
X3890500Y1698690D01*
X3866160D01*
G01X3890500D02*
X3905100Y1660630D01*
G01X3962420D02*
X3964370Y1677690D01*
X3967290Y1692120D01*
X3971190Y1705250D01*
X3976050Y1719680D01*
X3983840Y1739370D01*
X3944900D01*
G01X4016160Y4276380D02*
X4021030Y4268500D01*
X4026870Y4263250D01*
X4033680Y4260630D01*
X4041470Y4263250D01*
X4047310Y4268500D01*
X4053160Y4276380D01*
X4055100Y4286880D01*
Y4339370D01*
G01X4095870Y4293440D02*
X4102690Y4302630D01*
X4108530Y4307870D01*
X4116320Y4310500D01*
X4123130Y4307870D01*
X4128000Y4302630D01*
X4131900Y4294750D01*
X4132870Y4285560D01*
X4131900Y4277690D01*
X4128000Y4269810D01*
X4122160Y4263250D01*
X4115340Y4260630D01*
X4107550Y4263250D01*
X4100740Y4271130D01*
X4096840Y4282940D01*
X4095870Y4296060D01*
X4097820Y4313120D01*
X4100740Y4322310D01*
X4105610Y4331500D01*
X4112420Y4338060D01*
X4119240Y4339370D01*
X4126050Y4336750D01*
X4130920Y4330180D01*
G01X4282810Y1917950D02*
X4286750Y1923790D01*
X4289370Y1930610D01*
Y1938400D01*
X4285430Y1947160D01*
X4278870Y1953970D01*
X4271000Y1958840D01*
X4257870Y1962740D01*
X4246060Y1963710D01*
X4234250Y1961760D01*
X4226380Y1958840D01*
X4218500Y1953000D01*
X4213250Y1946190D01*
X4210630Y1939370D01*
Y1932550D01*
X4213250Y1925740D01*
X4217190Y1919900D01*
X4222440Y1915030D01*
G01X4276250Y1879130D02*
X4284120Y1873290D01*
X4288060Y1866470D01*
X4289370Y1858680D01*
X4286750Y1848950D01*
X4280180Y1842130D01*
X4272310Y1840180D01*
X4264430Y1841160D01*
X4257870Y1845050D01*
X4244750Y1864520D01*
X4235560Y1873290D01*
X4222440Y1879130D01*
X4210630Y1881080D01*
Y1840180D01*
G01X4507050Y932810D02*
X4501210Y936750D01*
X4494390Y939370D01*
X4486600D01*
X4477840Y935430D01*
X4471030Y928870D01*
X4466160Y921000D01*
X4462260Y907870D01*
X4461290Y896060D01*
X4463240Y884250D01*
X4466160Y876380D01*
X4472000Y868500D01*
X4478810Y863250D01*
X4485630Y860630D01*
X4492450D01*
X4499260Y863250D01*
X4505100Y867190D01*
X4509970Y872440D01*
G01X4547820Y869810D02*
X4554630Y863250D01*
X4562420Y860630D01*
X4570210Y863250D01*
X4577030Y871130D01*
X4581900Y882940D01*
X4583840Y894750D01*
Y909190D01*
X4581900Y921000D01*
X4577030Y931500D01*
X4571190Y936750D01*
X4564370Y939370D01*
X4556580Y936750D01*
X4550740Y931500D01*
X4546840Y923620D01*
X4544900Y913120D01*
X4546840Y903940D01*
X4551710Y894750D01*
X4557550Y889500D01*
X4564370Y888190D01*
X4572160Y890810D01*
X4578000Y897370D01*
X4583840Y909190D01*
G01X4507050Y1082810D02*
X4501210Y1086750D01*
X4494390Y1089370D01*
X4486600D01*
X4477840Y1085430D01*
X4471030Y1078870D01*
X4466160Y1071000D01*
X4462260Y1057870D01*
X4461290Y1046060D01*
X4463240Y1034250D01*
X4466160Y1026380D01*
X4472000Y1018500D01*
X4478810Y1013250D01*
X4485630Y1010630D01*
X4492450D01*
X4499260Y1013250D01*
X4505100Y1017190D01*
X4509970Y1022440D01*
G01X4576050Y1010630D02*
Y1089370D01*
X4540030Y1032940D01*
X4588710D01*
G01X4507050Y1232810D02*
X4501210Y1236750D01*
X4494390Y1239370D01*
X4486600D01*
X4477840Y1235430D01*
X4471030Y1228870D01*
X4466160Y1221000D01*
X4462260Y1207870D01*
X4461290Y1196060D01*
X4463240Y1184250D01*
X4466160Y1176380D01*
X4472000Y1168500D01*
X4478810Y1163250D01*
X4485630Y1160630D01*
X4492450D01*
X4499260Y1163250D01*
X4505100Y1167190D01*
X4509970Y1172440D01*
G01X4542950Y1176380D02*
X4548790Y1167190D01*
X4556580Y1161940D01*
X4565340Y1160630D01*
X4573130Y1161940D01*
X4580920Y1168500D01*
X4585790Y1176380D01*
X4586760Y1184250D01*
X4584820Y1193440D01*
X4578000Y1200000D01*
X4571190Y1202630D01*
X4562420D01*
G01X4571190D02*
X4577030Y1206560D01*
X4581900Y1213120D01*
X4583840Y1221000D01*
X4581900Y1228870D01*
X4577030Y1235430D01*
X4568260Y1239370D01*
X4559500Y1238060D01*
X4550740Y1232810D01*
G01X4466160Y1310630D02*
Y1389370D01*
X4490500D01*
X4498290Y1385430D01*
X4503160Y1380180D01*
X4505100Y1369680D01*
X4503160Y1359190D01*
X4497310Y1352630D01*
X4490500Y1348690D01*
X4466160D01*
G01X4490500D02*
X4505100Y1310630D01*
G01X4545870Y1376250D02*
X4551710Y1384120D01*
X4558530Y1388060D01*
X4566320Y1389370D01*
X4576050Y1386750D01*
X4582870Y1380180D01*
X4584820Y1372310D01*
X4583840Y1364430D01*
X4579950Y1357870D01*
X4560480Y1344750D01*
X4551710Y1335560D01*
X4545870Y1322440D01*
X4543920Y1310630D01*
X4584820D01*
G01X4416160Y1510630D02*
Y1589370D01*
X4440500D01*
X4448290Y1585430D01*
X4453160Y1580180D01*
X4455100Y1569680D01*
X4453160Y1559190D01*
X4447310Y1552630D01*
X4440500Y1548690D01*
X4416160D01*
G01X4440500D02*
X4455100Y1510630D01*
G01X4495870Y1543440D02*
X4502690Y1552630D01*
X4508530Y1557870D01*
X4516320Y1560500D01*
X4523130Y1557870D01*
X4528000Y1552630D01*
X4531900Y1544750D01*
X4532870Y1535560D01*
X4531900Y1527690D01*
X4528000Y1519810D01*
X4522160Y1513250D01*
X4515340Y1510630D01*
X4507550Y1513250D01*
X4500740Y1521130D01*
X4496840Y1532940D01*
X4495870Y1546060D01*
X4497820Y1563120D01*
X4500740Y1572310D01*
X4505610Y1581500D01*
X4512420Y1588060D01*
X4519240Y1589370D01*
X4526050Y1586750D01*
X4530920Y1580180D01*
G01X4560630Y2285790D02*
X4639370D01*
Y2266320D01*
X4635430Y2258530D01*
X4630180Y2252690D01*
X4622310Y2247820D01*
X4613120Y2243920D01*
X4600000Y2242950D01*
X4586880Y2243920D01*
X4577690Y2247820D01*
X4569810Y2252690D01*
X4564570Y2258530D01*
X4560630Y2266320D01*
Y2285790D01*
G01X4626250Y2204130D02*
X4634120Y2198290D01*
X4638060Y2191470D01*
X4639370Y2183680D01*
X4636750Y2173950D01*
X4630180Y2167130D01*
X4622310Y2165180D01*
X4614430Y2166160D01*
X4607870Y2170050D01*
X4594750Y2189520D01*
X4585560Y2198290D01*
X4572440Y2204130D01*
X4560630Y2206080D01*
Y2165180D01*
G01X4416160Y2739370D02*
Y2660630D01*
X4455100D01*
G01X4492950Y2672440D02*
X4498790Y2665880D01*
X4505610Y2661940D01*
X4514370Y2660630D01*
X4523130Y2663250D01*
X4529950Y2668500D01*
X4534820Y2677690D01*
X4535790Y2688190D01*
X4533840Y2698690D01*
X4528970Y2705250D01*
X4522160Y2710500D01*
X4515340Y2711810D01*
X4508530Y2710500D01*
X4499770Y2705250D01*
X4502690Y2739370D01*
X4528970D01*
G01X4691160Y376380D02*
X4696030Y368500D01*
X4701870Y363250D01*
X4708680Y360630D01*
X4716470Y363250D01*
X4722310Y368500D01*
X4728160Y376380D01*
X4730100Y386880D01*
Y439370D01*
G01X4789370Y360630D02*
Y439370D01*
X4777690Y423620D01*
G01Y360630D02*
X4801050D01*
G01X4624380Y3742210D02*
X4615190Y3736370D01*
X4609940Y3728580D01*
X4608630Y3719820D01*
X4609940Y3712030D01*
X4616500Y3704240D01*
X4624380Y3699370D01*
X4632250Y3698400D01*
X4641440Y3700340D01*
X4648000Y3707160D01*
X4650630Y3713970D01*
Y3722740D01*
G01Y3713970D02*
X4654560Y3708130D01*
X4661120Y3703260D01*
X4669000Y3701320D01*
X4676870Y3703260D01*
X4683430Y3708130D01*
X4687370Y3716900D01*
X4686060Y3725660D01*
X4680810Y3734420D01*
G01X4687370Y3666390D02*
X4608630Y3642050D01*
X4687370Y3617710D01*
G01X4624380Y3584730D02*
X4615190Y3578890D01*
X4609940Y3571100D01*
X4608630Y3562340D01*
X4609940Y3554550D01*
X4616500Y3546760D01*
X4624380Y3541890D01*
X4632250Y3540920D01*
X4641440Y3542860D01*
X4648000Y3549680D01*
X4650630Y3556490D01*
Y3565260D01*
G01Y3556490D02*
X4654560Y3550650D01*
X4661120Y3545780D01*
X4669000Y3543840D01*
X4676870Y3545780D01*
X4683430Y3550650D01*
X4687370Y3559420D01*
X4686060Y3568180D01*
X4680810Y3576940D01*
G01X4989370Y2590470D02*
X4910630D01*
Y2551530D01*
G01Y2845450D02*
X4989370D01*
G01Y2804550D02*
X4910630D01*
G01X4950000D02*
Y2845450D01*
G01X4874440Y3742210D02*
X4867880Y3736370D01*
X4863940Y3729550D01*
X4862630Y3720790D01*
X4865250Y3712030D01*
X4870500Y3705210D01*
X4879690Y3700340D01*
X4890190Y3699370D01*
X4900690Y3701320D01*
X4907250Y3706190D01*
X4912500Y3713000D01*
X4913810Y3719820D01*
X4912500Y3726630D01*
X4907250Y3735390D01*
X4941370Y3732470D01*
Y3706190D01*
G01Y3666390D02*
X4862630Y3642050D01*
X4941370Y3617710D01*
G01X5171130Y499190D02*
X5164570Y491400D01*
X5160630Y482630D01*
Y474850D01*
X5164570Y467060D01*
X5171130Y461210D01*
X5180320Y458290D01*
X5189500Y460240D01*
X5197370Y465110D01*
X5202630Y473870D01*
X5205250Y485560D01*
X5210500Y492370D01*
X5219680Y495290D01*
X5228870Y493340D01*
X5235430Y488480D01*
X5239370Y481660D01*
Y474850D01*
X5236750Y468030D01*
X5230180Y462190D01*
G01X5239370Y429210D02*
X5160630Y415580D01*
X5239370Y400000D01*
X5160630Y384420D01*
X5239370Y370790D01*
G01X5160630Y342680D02*
X5239370D01*
Y323210D01*
X5235430Y315420D01*
X5230180Y309580D01*
X5222310Y304710D01*
X5213120Y300810D01*
X5200000Y299840D01*
X5186880Y300810D01*
X5177690Y304710D01*
X5169810Y309580D01*
X5164570Y315420D01*
X5160630Y323210D01*
Y342680D01*
G01X5126380Y1608840D02*
X5118500Y1603970D01*
X5113250Y1598130D01*
X5110630Y1591320D01*
X5113250Y1583530D01*
X5118500Y1577690D01*
X5126380Y1571840D01*
X5136880Y1569900D01*
X5189370D01*
G01X5110630Y1512580D02*
X5127690Y1510630D01*
X5142120Y1507710D01*
X5155250Y1503810D01*
X5169680Y1498950D01*
X5189370Y1491160D01*
Y1530100D01*
G01X5195370Y3745130D02*
X5116630Y3720790D01*
X5195370Y3696450D01*
G01Y3653730D02*
Y3630370D01*
G01Y3642050D02*
X5116630D01*
G01Y3653730D02*
Y3630370D01*
G01Y3585700D02*
X5195370D01*
X5116630Y3540920D01*
X5195370D01*
G01X5301380Y2308840D02*
X5293500Y2303970D01*
X5288250Y2298130D01*
X5285630Y2291320D01*
X5288250Y2283530D01*
X5293500Y2277690D01*
X5301380Y2271840D01*
X5311880Y2269900D01*
X5364370D01*
G01X5297440Y2232050D02*
X5290880Y2226210D01*
X5286940Y2219390D01*
X5285630Y2210630D01*
X5288250Y2201870D01*
X5293500Y2195050D01*
X5302690Y2190180D01*
X5313190Y2189210D01*
X5323690Y2191160D01*
X5330250Y2196030D01*
X5335500Y2202840D01*
X5336810Y2209660D01*
X5335500Y2216470D01*
X5330250Y2225230D01*
X5364370Y2222310D01*
Y2196030D01*
M02*
