G04 ================== begin FILE IDENTIFICATION RECORD ==================*
G04 Layout Name:  Y:/Desktop/LynXLite/BOARD/lynx_lite.brd*
G04 Film Name:    LYNXLITE_03IN2.GL3*
G04 File Format:  Gerber RS274X*
G04 File Origin:  Cadence Allegro 25.1-S020*
G04 Origin Date:  Sun May 17 17:30:24 2026*
G04 *
G04 Layer:  BOARD GEOMETRY/DESIGN_OUTLINE*
G04 Layer:  BOARD GEOMETRY/CUTOUT*
G04 Layer:  ETCH/IN2_POWER_PLANE*
G04 Layer:  PIN/IN2_POWER_PLANE*
G04 Layer:  VIA CLASS/IN2_POWER_PLANE*
G04 *
G04 Offset:    (0.0000 0.0000)*
G04 Mirror:    No*
G04 Mode:      Positive*
G04 Rotation:  0*
G04 FullContactRelief:  No*
G04 UndefLineWidth:     0.0000*
G04 ================== end FILE IDENTIFICATION RECORD ====================*
%FSLAX35Y35*MOMM*%
%IR0*IPPOS*OFA0.00000B0.00000*MIA0B0*SFA1.00000B1.00000*%
%ADD12C,.5842*%
%ADD11C,1.9*%
%ADD15O,2.2098X1.016*%
%ADD14O,1.8288X1.016*%
%ADD13C,1.6256*%
%ADD10C,2.9972*%
%ADD16C,.5*%
%ADD17C,.35*%
%ADD18C,1.*%
%ADD20C,2.126*%
%ADD21C,1.0846*%
%ADD19C,3.7976*%
G75*
%LPD*%
G75*
G36*
G01X3125000Y3725000D02*
X3158070D01*
X3158470Y3720360D01*
G03X3195340Y3673560I54029J4642D01*
G02X3198550Y3667130I-1610J-4820D01*
G03X3195770Y3650000I51448J-17140D01*
G03X3250000Y3595770I54230J0D01*
G03X3287500Y3610830I0J54218D01*
G03X3362500I37500J39158D01*
G03X3400000Y3595770I37500J39158D01*
G03X3454230Y3650000I0J54230D01*
G03X3451450Y3667130I-54228J-10D01*
G02X3454660Y3673560I4820J1610D01*
G03X3475000Y3685830I-17161J51441D01*
G03X3550000I37500J39158D01*
G03X3625000I37500J39158D01*
G03X3700000I37500J39158D01*
G03X3737500Y3670770I37500J39158D01*
G03X3769080Y3680920I-8J54227D01*
G01X3804490Y3645510D01*
G03X3820090Y3629760I45517J29483D01*
G01X3820520Y3629480D01*
X3825110Y3624890D01*
X3821130Y3620910D01*
X3820670Y3620620D01*
G03X3795770Y3575000I29341J-45620D01*
G03X3850000Y3520770I54230J0D01*
G03X3892560Y3541390I0J54232D01*
G02X3907720Y3542280I7976J-6293D01*
G01X3964630Y3485370D01*
X3714630Y3235370D01*
G03X3699980Y3200000I35373J-35370D01*
G01Y2800600D01*
G02X3683540Y2792620I-10158J3D01*
G03X3650000Y2804230I-33533J-42622D01*
G03X3595770Y2750000I0J-54230D01*
G03X3615830Y2707890I54229J0D01*
G02Y2692110I-6401J-7890D01*
G03X3595770Y2650000I34169J-42110D01*
G03X3650000Y2595770I54230J0D01*
G03X3670070Y2599620I0J54237D01*
G01X3670970Y2599980D01*
X3700000D01*
G03X3735370Y2614630I0J50023D01*
G01X3785370Y2664630D01*
G03X3800020Y2700000I-35373J35370D01*
G01Y3179280D01*
X4045740Y3425000D01*
X4228050D01*
G02X4236330Y3408960I-4J-10159D01*
G03X4201280Y3299040I154835J-109920D01*
G03X4581040I189880J0D01*
G03X4545990Y3408960I-189885J0D01*
G02X4554270Y3425000I8284J5881D01*
G01X4575000D01*
X4775000Y3225000D01*
Y2998120D01*
G03Y2901880I24994J-48120D01*
G01Y2754230D01*
G03Y2645770I0J-54230D01*
G01Y2498120D01*
G03Y2401880I24994J-48120D01*
G01Y2212660D01*
G02X4762500Y2202770I-10160J-4D01*
G03X4750000Y2204230I-12500J-52780D01*
G03Y2095770I0J-54230D01*
G03X4770700Y2099880I-9J54228D01*
G01X4773830Y2101170D01*
X4836290Y2038710D01*
X4832760Y2035120D01*
G03X4811040Y1982000I54097J-53120D01*
G03X4886860Y1906180I75820J0D01*
G01X4964140D01*
G02X4973740Y1892700I-2J-10160D01*
G03X4970770Y1875000I51257J-17700D01*
G03X5025000Y1820770I54230J0D01*
G03X5050000Y1826880I-7J54228D01*
G03X5075000Y1820770I25007J48118D01*
G03X5100000Y1826880I-7J54228D01*
G03X5125000Y1820770I25007J48118D01*
G03X5159920Y1833510I0J54227D01*
G01X5163490Y1836510D01*
X5273490Y1726510D01*
G02X5265240Y1711030I-8649J-5329D01*
G03X5213170Y1656840I2163J-54190D01*
G03X5241910Y1608970I54237J0D01*
G02Y1591040I-4772J-8965D01*
G03X5213170Y1543170I25497J-47870D01*
G03X5265240Y1488980I54233J0D01*
G02X5275000Y1478830I-399J-10151D01*
G01Y1212500D01*
X5276340Y1211160D01*
G02X5269150Y1193820I-7188J-7180D01*
G01X5267810D01*
G03Y1042180I0J-75820D01*
G01X5357820D01*
X5400000Y1000000D01*
Y983650D01*
X5392590D01*
X5391070Y985410D01*
G03X5350000Y1004230I-41070J-35403D01*
G03Y895770I0J-54230D01*
G03X5383550Y907400I-7J54228D01*
G02X5400000Y899420I6289J-7982D01*
G01Y800580D01*
G02X5383550Y792600I-10161J2D01*
G03X5350000Y804230I-33557J-42598D01*
G03Y695770I0J-54230D01*
G03X5383550Y707400I-7J54228D01*
G02X5400000Y699420I6289J-7982D01*
G01Y600580D01*
G02X5383550Y592600I-10161J2D01*
G03X5350000Y604230I-33557J-42598D01*
G03Y495770I0J-54230D01*
G03X5383550Y507400I-7J54228D01*
G02X5400000Y499420I6289J-7982D01*
G01Y400580D01*
G02X5383550Y392600I-10161J2D01*
G03X5350000Y404230I-33557J-42598D01*
G03Y295770I0J-54230D01*
G03X5383550Y307400I-7J54228D01*
G02X5400000Y299420I6289J-7982D01*
G01Y200580D01*
G02X5383550Y192600I-10161J2D01*
G03X5350000Y204230I-33557J-42598D01*
G03X5295770Y150000I0J-54230D01*
G03X5307400Y116450I54228J7D01*
G02X5299420Y100000I-7982J-6289D01*
G01X5200580D01*
G02X5192600Y116450I2J10161D01*
G03X5204230Y150000I-42598J33557D01*
G03X5095770I-54230J0D01*
G03X5107400Y116450I54228J7D01*
G02X5099420Y100000I-7982J-6289D01*
G01X5054580D01*
G02X5046600Y116450I2J10161D01*
G03X5058230Y150000I-42598J33557D01*
G03X4949770I-54230J0D01*
G03X4961400Y116450I54228J7D01*
G02X4953420Y100000I-7982J-6289D01*
G01X4800580D01*
G02X4792600Y116450I2J10161D01*
G03X4804230Y150000I-42598J33557D01*
G03X4695770I-54230J0D01*
G03X4707400Y116450I54228J7D01*
G02X4699420Y100000I-7982J-6289D01*
G01X4673580D01*
G02X4665600Y116450I2J10161D01*
G03X4677230Y150000I-42598J33557D01*
G03X4568770I-54230J0D01*
G03X4580400Y116450I54228J7D01*
G02X4572420Y100000I-7982J-6289D01*
G01X4300580D01*
G02X4292600Y116450I2J10161D01*
G03X4304230Y150000I-42598J33557D01*
G03X4195770I-54230J0D01*
G03X4207400Y116450I54228J7D01*
G02X4199420Y100000I-7982J-6289D01*
G01X4100580D01*
G02X4092600Y116450I2J10161D01*
G03X4104230Y150000I-42598J33557D01*
G03X3995770I-54230J0D01*
G03X4007400Y116450I54228J7D01*
G02X3999420Y100000I-7982J-6289D01*
G01X3900580D01*
G02X3892600Y116450I2J10161D01*
G03X3904230Y150000I-42598J33557D01*
G03X3795770I-54230J0D01*
G03X3807400Y116450I54228J7D01*
G02X3799420Y100000I-7982J-6289D01*
G01X3700580D01*
G02X3692600Y116450I2J10161D01*
G03X3704230Y150000I-42598J33557D01*
G03X3595770I-54230J0D01*
G03X3607400Y116450I54228J7D01*
G02X3599420Y100000I-7982J-6289D01*
G01X3500580D01*
G02X3492600Y116450I2J10161D01*
G03X3504230Y150000I-42598J33557D01*
G03X3395770I-54230J0D01*
G03X3407400Y116450I54228J7D01*
G02X3399420Y100000I-7982J-6289D01*
G01X3300580D01*
G02X3292600Y116450I2J10161D01*
G03X3304230Y150000I-42598J33557D01*
G03X3195770I-54230J0D01*
G03X3207400Y116450I54228J7D01*
G02X3199420Y100000I-7982J-6289D01*
G01X3100580D01*
G02X3092600Y116450I2J10161D01*
G03X3104230Y150000I-42598J33557D01*
G03X2995770I-54230J0D01*
G03X3007400Y116450I54228J7D01*
G02X2999420Y100000I-7982J-6289D01*
G01X2900580D01*
G02X2892600Y116450I2J10161D01*
G03X2904230Y150000I-42598J33557D01*
G03X2795770I-54230J0D01*
G03X2807400Y116450I54228J7D01*
G02X2799420Y100000I-7982J-6289D01*
G01X2700580D01*
G02X2692600Y116450I2J10161D01*
G03X2704230Y150000I-42598J33557D01*
G03X2595770I-54230J0D01*
G03X2607400Y116450I54228J7D01*
G02X2599420Y100000I-7982J-6289D01*
G01X2500580D01*
G02X2492600Y116450I2J10161D01*
G03X2504230Y150000I-42598J33557D01*
G03X2395770I-54230J0D01*
G03X2407400Y116450I54228J7D01*
G02X2399420Y100000I-7982J-6289D01*
G01X2300580D01*
G02X2292600Y116450I2J10161D01*
G03X2304230Y150000I-42598J33557D01*
G03X2195770I-54230J0D01*
G03X2207400Y116450I54228J7D01*
G02X2199420Y100000I-7982J-6289D01*
G01X2100580D01*
G02X2092600Y116450I2J10161D01*
G03X2104230Y150000I-42598J33557D01*
G03X1995770I-54230J0D01*
G03X2007400Y116450I54228J7D01*
G02X1999420Y100000I-7982J-6289D01*
G01X1900580D01*
G02X1892600Y116450I2J10161D01*
G03X1904230Y150000I-42598J33557D01*
G03X1795770I-54230J0D01*
G03X1807400Y116450I54228J7D01*
G02X1799420Y100000I-7982J-6289D01*
G01X1700580D01*
G02X1692600Y116450I2J10161D01*
G03X1704230Y150000I-42598J33557D01*
G03X1595770I-54230J0D01*
G03X1607400Y116450I54228J7D01*
G02X1599420Y100000I-7982J-6289D01*
G01X1500580D01*
G02X1492600Y116450I2J10161D01*
G03X1504230Y150000I-42598J33557D01*
G03X1395770I-54230J0D01*
G03X1407400Y116450I54228J7D01*
G02X1399420Y100000I-7982J-6289D01*
G01X1300580D01*
G02X1292600Y116450I2J10161D01*
G03X1304230Y150000I-42598J33557D01*
G03X1195770I-54230J0D01*
G03X1207400Y116450I54228J7D01*
G02X1199420Y100000I-7982J-6289D01*
G01X1100580D01*
G02X1092600Y116450I2J10161D01*
G03X1104230Y150000I-42598J33557D01*
G03X995770I-54230J0D01*
G03X1007400Y116450I54228J7D01*
G02X999420Y100000I-7982J-6289D01*
G01X900580D01*
G02X892600Y116450I2J10161D01*
G03X904230Y150000I-42598J33557D01*
G03X795770I-54230J0D01*
G03X807400Y116450I54228J7D01*
G02X799420Y100000I-7982J-6289D01*
G01X400000D01*
G02X100000Y400000I0J300000D01*
G01Y800000D01*
G02X150000Y850000I50000J0D01*
G01X1049420D01*
G02X1057400Y833550I-2J-10161D01*
G03X1045770Y800000I42598J-33557D01*
G03X1065830Y757890I54229J0D01*
G02Y742110I-6401J-7890D01*
G03X1045770Y700000I34169J-42110D01*
G03X1100000Y645770I54230J0D01*
G03X1142110Y665830I0J54229D01*
G02X1157890I7890J-6401D01*
G03X1200000Y645770I42110J34169D01*
G03X1254230Y700000I0J54230D01*
G03X1234170Y742110I-54229J0D01*
G02Y757890I6401J7890D01*
G03X1254230Y800000I-34169J42110D01*
G03X1242600Y833550I-54228J-7D01*
G02X1250580Y850000I7982J6289D01*
G01X1275000D01*
X1328530Y903530D01*
G02X1345860Y896920I7186J-7183D01*
G03X1400000Y845770I54140J3077D01*
G03X1454230Y900000I0J54230D01*
G03X1403080Y954140I-54227J0D01*
G02X1396470Y971470I573J10144D01*
G01X1400000Y975000D01*
X1575000D01*
X1675000Y1075000D01*
X2300000D01*
X2350000Y1125000D01*
X2375000D01*
X2450020Y1049980D01*
G02X2457400Y1033550I-602J-10143D01*
G03X2445770Y1000000I42598J-33557D01*
G03X2554230I54230J0D01*
G03X2542600Y1033550I-54228J-7D01*
G02X2550580Y1050000I7982J6289D01*
G01X2625000D01*
X2675000Y1100000D01*
Y1575000D01*
X2525000Y1725000D01*
Y2937340D01*
G02X2537500Y2947230I10160J4D01*
G03X2550000Y2945770I12500J52780D01*
G03Y3054230I0J54230D01*
G03X2537500Y3052770I0J-54240D01*
G02X2525000Y3062660I-2340J9886D01*
G01Y3125000D01*
X3125000Y3725000D01*
G37*
G36*
G01X5200580Y4400000D02*
X5299420D01*
G02X5307400Y4383550I-2J-10161D01*
G03X5295770Y4350000I42598J-33557D01*
G03X5350000Y4295770I54230J0D01*
G03X5383550Y4307400I-7J54228D01*
G02X5400000Y4299420I6289J-7982D01*
G01Y4200580D01*
G02X5383550Y4192600I-10161J2D01*
G03X5350000Y4204230I-33557J-42598D01*
G03Y4095770I0J-54230D01*
G03X5383550Y4107400I-7J54228D01*
G02X5400000Y4099420I6289J-7982D01*
G01Y4000580D01*
G02X5383550Y3992600I-10161J2D01*
G03X5350000Y4004230I-33557J-42598D01*
G03Y3895770I0J-54230D01*
G03X5383550Y3907400I-7J54228D01*
G02X5400000Y3899420I6289J-7982D01*
G01Y3800580D01*
G02X5383550Y3792600I-10161J2D01*
G03X5350000Y3804230I-33557J-42598D01*
G03Y3695770I0J-54230D01*
G03X5383550Y3707400I-7J54228D01*
G02X5400000Y3699420I6289J-7982D01*
G01Y3600580D01*
G02X5383550Y3592600I-10161J2D01*
G03X5350000Y3604230I-33557J-42598D01*
G03Y3495770I0J-54230D01*
G03X5383550Y3507400I-7J54228D01*
G02X5400000Y3499420I6289J-7982D01*
G01Y3400580D01*
G02X5383550Y3392600I-10161J2D01*
G03X5350000Y3404230I-33557J-42598D01*
G03Y3295770I0J-54230D01*
G03X5383550Y3307400I-7J54228D01*
G02X5400000Y3299420I6289J-7982D01*
G01Y3200580D01*
G02X5383550Y3192600I-10161J2D01*
G03X5350000Y3204230I-33557J-42598D01*
G03Y3095770I0J-54230D01*
G03X5383550Y3107400I-7J54228D01*
G02X5400000Y3099420I6289J-7982D01*
G01Y3000580D01*
G02X5383550Y2992600I-10161J2D01*
G03X5350000Y3004230I-33557J-42598D01*
G03Y2895770I0J-54230D01*
G03X5383550Y2907400I-7J54228D01*
G02X5400000Y2899420I6289J-7982D01*
G01Y2800580D01*
G02X5383550Y2792600I-10161J2D01*
G03X5350000Y2804230I-33557J-42598D01*
G03Y2695770I0J-54230D01*
G03X5383550Y2707400I-7J54228D01*
G02X5400000Y2699420I6289J-7982D01*
G01Y2600580D01*
G02X5383550Y2592600I-10161J2D01*
G03X5350000Y2604230I-33557J-42598D01*
G03Y2495770I0J-54230D01*
G03X5383550Y2507400I-7J54228D01*
G02X5400000Y2499420I6289J-7982D01*
G01Y2400580D01*
G02X5383550Y2392600I-10161J2D01*
G03X5350000Y2404230I-33557J-42598D01*
G03Y2295770I0J-54230D01*
G03X5383550Y2307400I-7J54228D01*
G02X5400000Y2299420I6289J-7982D01*
G01Y2200580D01*
G02X5383550Y2192600I-10161J2D01*
G03X5350000Y2204230I-33557J-42598D01*
G03Y2095770I0J-54230D01*
G03X5383550Y2107400I-7J54228D01*
G02X5400000Y2099420I6289J-7982D01*
G01Y2057820D01*
X5267810D01*
G03Y1906180I0J-75820D01*
G01X5400000D01*
Y1225000D01*
X5375000Y1200000D01*
X5325000D01*
X5300020Y1224980D01*
Y1499850D01*
G03Y1586490I-32615J43320D01*
G01Y1613520D01*
G03Y1700160I-32615J43320D01*
G01Y1735360D01*
X5176770Y1858610D01*
X5177500Y1861420D01*
G03X5179230Y1875000I-52499J13588D01*
G03X5125000Y1929230I-54230J0D01*
G03X5100000Y1923120I7J-54228D01*
G03X5075000Y1929230I-25007J-48118D01*
G03X5050000Y1923120I7J-54228D01*
G03X5033170Y1928610I-25007J-48119D01*
G01X5031520Y1928860D01*
X5026720Y1933670D01*
X5029290Y1937180D01*
G03X5043960Y1982000I-61148J44825D01*
G03X4968140Y2057820I-75820J0D01*
G01X4886860D01*
G03X4861170Y2053340I-13J-75822D01*
G01X4858140Y2052240D01*
X4800020Y2110360D01*
Y2129030D01*
X4800380Y2129930D01*
G03Y2170070I-50387J20070D01*
G01X4800020Y2170970D01*
Y2395770D01*
G03Y2504230I-20J54230D01*
G01Y2651890D01*
G03Y2748110I-25015J48110D01*
G01Y2895770D01*
G03Y3004230I-20J54230D01*
G01Y3235360D01*
X4585360Y3450020D01*
X4506310D01*
G03X4276010I-115150J-150981D01*
G01X4035360D01*
X3903860Y3581520D01*
X3903610Y3583170D01*
G03X3884170Y3617110I-53611J-8169D01*
G02Y3632890I6401J7890D01*
G03Y3717110I-34169J42110D01*
G02Y3732890I6401J7890D01*
G03Y3817110I-34169J42110D01*
G02Y3832890I6401J7890D01*
G03X3904230Y3875000I-34169J42110D01*
G03X3795770I-54230J0D01*
G03X3815830Y3832890I54229J0D01*
G02Y3817110I-6401J-7890D01*
G03Y3732890I34169J-42110D01*
G02Y3717110I-6401J-7890D01*
G03X3799810Y3695540I34169J-42111D01*
G01X3799420Y3694590D01*
X3795110Y3690280D01*
X3785620Y3699760D01*
X3787040Y3702950D01*
G03X3791730Y3725000I-49538J22060D01*
G03X3737500Y3779230I-54230J0D01*
G03X3700000Y3764170I0J-54218D01*
G03X3625000I-37500J-39158D01*
G03X3550000I-37500J-39158D01*
G03X3475000I-37500J-39158D01*
G03X3454660Y3776440I-37501J-39171D01*
G02X3451450Y3782870I1610J4820D01*
G03X3454230Y3800000I-51448J17140D01*
G03X3400000Y3854230I-54230J0D01*
G03X3362500Y3839170I0J-54218D01*
G03X3287500I-37500J-39158D01*
G03X3250000Y3854230I-37500J-39158D01*
G03X3195770Y3800000I0J-54230D01*
G03X3198550Y3782870I54228J10D01*
G02X3195340Y3776440I-4820J-1610D01*
G03X3164390Y3750020I17160J-51441D01*
G01X3114640D01*
X2499980Y3135360D01*
Y3020970D01*
X2499620Y3020070D01*
G03Y2979930I50387J-20070D01*
G01X2499980Y2979030D01*
Y1762660D01*
G02X2487480Y1752770I-10161J-2D01*
G03X2475000Y1754230I-12499J-52768D01*
G03Y1645770I0J-54230D01*
G03X2522480Y1673790I0J54238D01*
G02X2538550Y1676060I8889J-4913D01*
G01X2649980Y1564640D01*
Y1500600D01*
G02X2633540Y1492620I-10158J3D01*
G03X2600000Y1504230I-33533J-42622D01*
G03Y1395770I0J-54230D01*
G03X2633540Y1407380I7J54232D01*
G02X2649980Y1399400I6282J-7983D01*
G01Y1350600D01*
G02X2633540Y1342620I-10158J3D01*
G03X2600000Y1354230I-33533J-42622D01*
G03Y1245770I0J-54230D01*
G03X2633540Y1257380I7J54232D01*
G02X2649980Y1249400I6282J-7983D01*
G01Y1110360D01*
X2614640Y1075020D01*
X2460360D01*
X2400000Y1135380D01*
Y1475000D01*
X2300000Y1575000D01*
X1675000D01*
X1575000Y1675000D01*
X1400000D01*
X1350000Y1725000D01*
Y3500000D01*
G03X1271070Y3632090I-149992J0D01*
G02X1271800Y3650340I4813J8947D01*
G03X1304230Y3700000I-21807J49660D01*
G03X1195770I-54230J0D01*
G03X1215070Y3658520I54225J0D01*
G02X1211410Y3649570I-3270J-3886D01*
G03X1200000Y3650000I-11350J-149572D01*
G01X1100580D01*
G02X1092600Y3666450I2J10161D01*
G03X1104230Y3700000I-42598J33557D01*
G03X995770I-54230J0D01*
G03X1007400Y3666450I54228J7D01*
G02X999420Y3650000I-7982J-6289D01*
G01X900580D01*
G02X892600Y3666450I2J10161D01*
G03X904230Y3700000I-42598J33557D01*
G03X795770I-54230J0D01*
G03X807400Y3666450I54228J7D01*
G02X799420Y3650000I-7982J-6289D01*
G01X150000D01*
G02X100000Y3700000I0J50000D01*
G01Y4100000D01*
G02X400000Y4400000I300000J0D01*
G01X799420D01*
G02X807400Y4383550I-2J-10161D01*
G03X795770Y4350000I42598J-33557D01*
G03X904230I54230J0D01*
G03X892600Y4383550I-54228J-7D01*
G02X900580Y4400000I7982J6289D01*
G01X999420D01*
G02X1007400Y4383550I-2J-10161D01*
G03X995770Y4350000I42598J-33557D01*
G03X1104230I54230J0D01*
G03X1092600Y4383550I-54228J-7D01*
G02X1100580Y4400000I7982J6289D01*
G01X1199420D01*
G02X1207400Y4383550I-2J-10161D01*
G03X1195770Y4350000I42598J-33557D01*
G03X1304230I54230J0D01*
G03X1292600Y4383550I-54228J-7D01*
G02X1300580Y4400000I7982J6289D01*
G01X1399420D01*
G02X1407400Y4383550I-2J-10161D01*
G03X1395770Y4350000I42598J-33557D01*
G03X1504230I54230J0D01*
G03X1492600Y4383550I-54228J-7D01*
G02X1500580Y4400000I7982J6289D01*
G01X1599420D01*
G02X1607400Y4383550I-2J-10161D01*
G03X1595770Y4350000I42598J-33557D01*
G03X1704230I54230J0D01*
G03X1692600Y4383550I-54228J-7D01*
G02X1700580Y4400000I7982J6289D01*
G01X1799420D01*
G02X1807400Y4383550I-2J-10161D01*
G03X1795770Y4350000I42598J-33557D01*
G03X1904230I54230J0D01*
G03X1892600Y4383550I-54228J-7D01*
G02X1900580Y4400000I7982J6289D01*
G01X1999420D01*
G02X2007400Y4383550I-2J-10161D01*
G03X1995770Y4350000I42598J-33557D01*
G03X2104230I54230J0D01*
G03X2092600Y4383550I-54228J-7D01*
G02X2100580Y4400000I7982J6289D01*
G01X2199420D01*
G02X2207400Y4383550I-2J-10161D01*
G03X2195770Y4350000I42598J-33557D01*
G03X2304230I54230J0D01*
G03X2292600Y4383550I-54228J-7D01*
G02X2300580Y4400000I7982J6289D01*
G01X2399420D01*
G02X2407400Y4383550I-2J-10161D01*
G03X2395770Y4350000I42598J-33557D01*
G03X2504230I54230J0D01*
G03X2492600Y4383550I-54228J-7D01*
G02X2500580Y4400000I7982J6289D01*
G01X5099420D01*
G02X5107400Y4383550I-2J-10161D01*
G03X5095770Y4350000I42598J-33557D01*
G03X5204230I54230J0D01*
G03X5192600Y4383550I-54228J-7D01*
G02X5200580Y4400000I7982J6289D01*
G37*
%LPC*%
G75*
G36*
G01X3082890Y1115830D02*
G03X3067110I-7890J-6401D01*
G02X3025000Y1095770I-42110J34169D01*
G02Y1204230I0J54230D01*
G02X3067110Y1184170I0J-54229D01*
G03X3082890I7890J6401D01*
G02X3125000Y1204230I42110J-34169D01*
G02Y1095770I0J-54230D01*
G02X3082890Y1115830I0J54229D01*
G37*
G36*
G01X4973740Y1207300D02*
G02X4970770Y1225000I51257J17700D01*
G02X5025000Y1279230I54230J0D01*
G02X5050000Y1273120I-7J-54228D01*
G02X5075000Y1279230I25007J-48118D01*
G02X5100000Y1273120I-7J-54228D01*
G02X5125000Y1279230I25007J-48118D01*
G02Y1170770I0J-54230D01*
G02X5100000Y1176880I7J54228D01*
G02X5075000Y1170770I-25007J48118D01*
G02X5050000Y1176880I7J54228D01*
G02X5038930Y1172590I-25013J48116D01*
G03X5032870Y1157480I2613J-9818D01*
G02X5043960Y1118000I-64729J-39480D01*
G02X4968140Y1042180I-75820J0D01*
G01X4886860D01*
G02Y1193820I0J75820D01*
G01X4964140D01*
G03X4973740Y1207300I-2J10160D01*
G37*
G36*
G01X3047250Y1287420D02*
G03X3031470Y1293340I-9884J-2356D01*
G02X3000000Y1283270I-31476J44158D01*
G02Y1391730I0J54230D01*
G02X3052750Y1350080I0J-54229D01*
G03X3068530Y1344160I9884J2356D01*
G02X3100000Y1354230I31476J-44158D01*
G02Y1245770I0J-54230D01*
G02X3047250Y1287420I0J54229D01*
G37*
G36*
G01X4440830Y1367110D02*
G03Y1382890I-6401J7890D01*
G02X4420770Y1425000I34169J42110D01*
G02X4529230I54230J0D01*
G02X4509170Y1382890I-54229J0D01*
G03Y1367110I6401J-7890D01*
G02X4529230Y1325000I-34169J-42110D01*
G02X4420770I-54230J0D01*
G02X4440830Y1367110I54229J0D01*
G37*
G36*
G01X2782890Y1665830D02*
G03X2767110I-7890J-6401D01*
G02X2725000Y1645770I-42110J34169D01*
G02Y1754230I0J54230D01*
G02X2767110Y1734170I0J-54229D01*
G03X2782890I7890J6401D01*
G02X2825000Y1754230I42110J-34169D01*
G02Y1645770I0J-54230D01*
G02X2782890Y1665830I0J54229D01*
G37*
G36*
G01X3807890Y1990830D02*
G03X3792110I-7890J-6401D01*
G02X3750000Y1970770I-42110J34169D01*
G02Y2079230I0J54230D01*
G02X3792110Y2059170I0J-54229D01*
G03X3807890I7890J6401D01*
G02X3850000Y2079230I42110J-34169D01*
G02Y1970770I0J-54230D01*
G02X3807890Y1990830I0J54229D01*
G37*
G36*
G01X3276020Y2576360D02*
G02X3245770Y2625000I23980J48640D01*
G02X3354230I54230J0D01*
G02X3323980Y2576360I-54230J0D01*
G03Y2558140I4498J-9110D01*
G02X3354230Y2509500I-23980J-48640D01*
G02X3245770I-54230J0D01*
G02X3276020Y2558140I54230J0D01*
G03Y2576360I-4498J9110D01*
G37*
G36*
G01X2155600Y3610230D02*
Y3739770D01*
G02X2185700Y3769870I30100J0D01*
G01X2414300D01*
G02X2444400Y3739770I0J-30100D01*
G01Y3610230D01*
G02X2414300Y3580130I-30100J0D01*
G01X2185700D01*
G02X2155600Y3610230I0J30100D01*
G37*
G36*
G01X1567110Y2009170D02*
G03X1582890I7890J6401D01*
G02X1667110I42110J-34169D01*
G03X1682890I7890J6401D01*
G02X1725000Y2029230I42110J-34169D01*
G02X1779230Y1975000I0J-54230D01*
G02X1764170Y1937500I-54218J0D01*
G02Y1862500I-39158J-37500D01*
G02X1779230Y1825000I-39158J-37500D01*
G02X1725000Y1770770I-54230J0D01*
G02X1682890Y1790830I0J54229D01*
G03X1667110I-7890J-6401D01*
G02X1582890I-42110J34169D01*
G03X1567110I-7890J-6401D01*
G02X1525000Y1770770I-42110J34169D01*
G02X1470770Y1825000I0J54230D01*
G02X1485830Y1862500I54218J0D01*
G02Y1937500I39158J37500D01*
G02X1470770Y1975000I39158J37500D01*
G02X1525000Y2029230I54230J0D01*
G02X1567110Y2009170I0J-54229D01*
G37*
G36*
G01X1840830Y3042110D02*
G03Y3057890I-6401J7890D01*
G02X1820770Y3100000I34169J42110D01*
G02X1929230I54230J0D01*
G02X1909170Y3057890I-54229J0D01*
G03Y3042110I6401J-7890D01*
G02Y2957890I-34169J-42110D01*
G03Y2942110I6401J-7890D01*
G02Y2857890I-34169J-42110D01*
G03Y2842110I6401J-7890D01*
G02Y2757890I-34169J-42110D01*
G03Y2742110I6401J-7890D01*
G02Y2657890I-34169J-42110D01*
G03Y2642110I6401J-7890D01*
G02X1929230Y2600000I-34169J-42110D01*
G02X1820770I-54230J0D01*
G02X1840830Y2642110I54229J0D01*
G03Y2657890I-6401J7890D01*
G02Y2742110I34169J42110D01*
G03Y2757890I-6401J7890D01*
G02Y2842110I34169J42110D01*
G03Y2857890I-6401J7890D01*
G02Y2942110I34169J42110D01*
G03Y2957890I-6401J7890D01*
G02Y3042110I34169J42110D01*
G37*
G36*
G01X1625000Y3839170D02*
G02X1700000I37500J-39158D01*
G02X1775000I37500J-39158D01*
G02X1812500Y3854230I37500J-39158D01*
G02Y3745770I0J-54230D01*
G02X1775000Y3760830I0J54218D01*
G02X1700000I-37500J39158D01*
G02X1625000I-37500J39158D01*
G02X1550000I-37500J39158D01*
G02X1512500Y3745770I-37500J39158D01*
G02Y3854230I0J54230D01*
G02X1550000Y3839170I0J-54218D01*
G02X1625000I37500J-39158D01*
G37*
G36*
G01X1700000Y4239170D02*
G02X1775000I37500J-39158D01*
G02X1850000I37500J-39158D01*
G02X1887500Y4254230I37500J-39158D01*
G02Y4145770I0J-54230D01*
G02X1850000Y4160830I0J54218D01*
G02X1775000I-37500J39158D01*
G02X1700000I-37500J39158D01*
G02X1625000I-37500J39158D01*
G02X1550000I-37500J39158D01*
G02X1475000I-37500J39158D01*
G02X1437500Y4145770I-37500J39158D01*
G02Y4254230I0J54230D01*
G02X1475000Y4239170I0J-54218D01*
G02X1550000I37500J-39158D01*
G02X1625000I37500J-39158D01*
G02X1700000I37500J-39158D01*
G37*
G36*
G01X4572980Y3998310D02*
Y4101690D01*
G02X4541700Y4177000I75019J75310D01*
G02X4754300I106300J0D01*
G02X4723020Y4101690I-106299J0D01*
G01Y3998310D01*
G02X4754300Y3923000I-75019J-75310D01*
G02X4541700I-106300J0D01*
G02X4572980Y3998310I106299J0D01*
G37*
G36*
G01X5080980D02*
Y4101690D01*
G02X5049700Y4177000I75019J75310D01*
G02X5262300I106300J0D01*
G02X5231020Y4101690I-106299J0D01*
G01Y3998310D01*
G02X5262300Y3923000I-75019J-75310D01*
G02X5049700I-106300J0D01*
G02X5080980Y3998310I106299J0D01*
G37*
G54D20*
X2215000Y325000D03*
X2723000D03*
X2977000D03*
X3231000D03*
X3485000D03*
X5175000Y2571000D03*
Y2825000D03*
Y3079000D03*
X4394000Y3923000D03*
Y4177000D03*
G54D21*
X850000Y350000D03*
X3912500Y437500D03*
X4925000Y400000D03*
X850000Y550000D03*
X3775000Y700000D03*
X3935610Y709850D03*
X4100000Y700000D03*
X4496000Y703200D03*
X4623000D03*
X4750000D03*
X5004000D03*
X1550000Y900000D03*
X4250000Y775000D03*
X1700000Y1000000D03*
X1900000D03*
X2100000D03*
X2300000D03*
X2700000D03*
X2900000Y950000D03*
X3100000D03*
X3375000Y1025000D03*
X3275000Y1100000D03*
X3875000D03*
X4425000Y1050000D03*
X4750000Y950000D03*
X4950000D03*
X5150000D03*
X2750000Y1300000D03*
X3575000Y1125000D03*
X3975000Y1175000D03*
X4000000Y1300000D03*
X4125000Y1275000D03*
X4425000Y1175000D03*
X2750000Y1450000D03*
X3550000Y1400000D03*
X3750000D03*
X3200000Y1650000D03*
X3050000D03*
X3575000D03*
X3800000Y1700000D03*
X5025000D03*
X4100000Y1975000D03*
X2625000Y2250000D03*
X2825000D03*
X3900000Y2150000D03*
X4400000D03*
X2625000Y2450000D03*
X3075000D03*
X2925000Y2625000D03*
X3150000Y2600000D03*
X4500000Y2625000D03*
X2750000Y2800000D03*
X3150000D03*
X3950000Y2850000D03*
X4500000Y2775000D03*
X2750000Y3000000D03*
X2950000D03*
X3150000D03*
X1975000Y1675000D03*
X2175000D03*
X1975000Y1850000D03*
X2350000Y1725000D03*
Y1850000D03*
X1975000Y2050000D03*
Y2250000D03*
X2150000Y2275000D03*
X2400000Y2250000D03*
X4950000Y2150000D03*
X5150000D03*
X1975000Y2450000D03*
X2400000D03*
X2150000Y2775000D03*
X2375000Y2700000D03*
X1875000Y3350000D03*
X2250000Y3375000D03*
X2500000Y3425000D03*
X850000Y3900000D03*
X1250000D03*
X2150000Y4025000D03*
X2350000D03*
X2550000D03*
X850000Y4150000D03*
X3900000Y4200000D03*
G54D19*
X400000Y400000D03*
Y4100000D03*
%LPD*%
G75*
G54D10*
X400000Y400000D03*
Y4100000D03*
X4391160Y3299040D03*
G54D11*
X550000Y1150000D03*
Y1500000D03*
Y1850000D03*
Y2650000D03*
Y3000000D03*
Y3350000D03*
X1050000Y1150000D03*
Y1500000D03*
Y1850000D03*
Y2650000D03*
Y3000000D03*
Y3350000D03*
G54D12*
X850000Y150000D03*
Y350000D03*
Y550000D03*
Y3700000D03*
Y3900000D03*
Y4150000D03*
Y4350000D03*
X1050000Y150000D03*
Y3700000D03*
Y4350000D03*
X1250000Y150000D03*
X1100000Y700000D03*
X1200000D03*
X1100000Y800000D03*
X1200000D03*
X1250000Y3700000D03*
Y3900000D03*
Y4350000D03*
X1450000Y150000D03*
X1400000Y900000D03*
X1437500Y4200000D03*
X1450000Y4350000D03*
X1650000Y150000D03*
X1550000Y900000D03*
X1525000Y1900000D03*
X1625000D03*
X1525000Y1825000D03*
X1625000D03*
X1525000Y1975000D03*
X1625000D03*
X1512500Y3800000D03*
X1587500D03*
X1662500D03*
X1512500Y4200000D03*
X1587500D03*
X1662500D03*
X1650000Y4350000D03*
X1850000Y150000D03*
X1700000Y1000000D03*
X1725000Y1900000D03*
Y1825000D03*
Y1975000D03*
X1737500Y3800000D03*
X1812500D03*
X1737500Y4200000D03*
X1812500D03*
X1850000Y4350000D03*
X2050000Y150000D03*
X1900000Y1000000D03*
X1975000Y1675000D03*
Y1850000D03*
Y2050000D03*
Y2250000D03*
Y2450000D03*
X1875000Y2600000D03*
Y2800000D03*
Y2700000D03*
Y2900000D03*
Y3000000D03*
Y3100000D03*
Y3350000D03*
X1887500Y4200000D03*
X2050000Y4350000D03*
X2250000Y150000D03*
X2100000Y1000000D03*
X2175000Y1675000D03*
X2150000Y2275000D03*
Y2775000D03*
X2250000Y3375000D03*
X2150000Y4025000D03*
X2250000Y4350000D03*
X2300000Y1000000D03*
X2350000Y1850000D03*
Y1725000D03*
X2400000Y2250000D03*
Y2450000D03*
X2375000Y2700000D03*
X2350000Y3375000D03*
Y4025000D03*
X2450000Y150000D03*
X2500000Y1000000D03*
X2600000Y1300000D03*
X2450000Y1150000D03*
X2600000Y1450000D03*
X2450000Y1600000D03*
X2475000Y1700000D03*
X2625000Y2250000D03*
Y2450000D03*
X2550000Y3000000D03*
X2500000Y3425000D03*
X2550000Y4025000D03*
X2450000Y4350000D03*
X2650000Y150000D03*
X2700000Y1000000D03*
X2750000Y1300000D03*
Y1450000D03*
X2825000Y1700000D03*
X2725000D03*
X2825000Y2250000D03*
X2750000Y2800000D03*
Y3000000D03*
X2850000Y150000D03*
X2900000Y950000D03*
X3025000Y1150000D03*
X3000000Y1337500D03*
X2900000Y1600000D03*
X2925000Y2625000D03*
X2950000Y3000000D03*
X3050000Y150000D03*
X3100000Y950000D03*
X3125000Y1150000D03*
X3100000Y1300000D03*
X3050000Y1650000D03*
X3200000D03*
X3075000Y2450000D03*
X3150000Y2600000D03*
Y2800000D03*
Y3000000D03*
X3212500Y3225000D03*
Y3150000D03*
Y3725000D03*
Y4250000D03*
Y4175000D03*
X3250000Y150000D03*
X3275000Y1100000D03*
X3375000Y1025000D03*
X3400000Y1750000D03*
X3300000Y2625000D03*
Y2509500D03*
X3287500Y3225000D03*
X3362500D03*
Y3150000D03*
X3287500D03*
X3250000Y3650000D03*
X3325000D03*
X3400000D03*
X3287500Y3725000D03*
X3362500D03*
X3250000Y3800000D03*
X3325000D03*
X3400000D03*
X3362500Y4250000D03*
X3287500D03*
Y4175000D03*
X3362500D03*
X3450000Y150000D03*
X3575000Y1125000D03*
X3550000Y1400000D03*
Y1525000D03*
X3575000Y1650000D03*
X3437500Y3225000D03*
Y3150000D03*
Y3725000D03*
X3512500D03*
X3587500D03*
X3437500Y4250000D03*
Y4175000D03*
X3650000Y150000D03*
X3775000Y700000D03*
X3750000Y1400000D03*
X3800000Y1700000D03*
X3750000Y2025000D03*
X3650000Y2650000D03*
Y2750000D03*
X3662500Y3725000D03*
X3737500D03*
X3850000Y150000D03*
X3912500Y437500D03*
X3935610Y709850D03*
X3875000Y1100000D03*
X4000000Y1300000D03*
X3975000Y1175000D03*
X3850000Y2025000D03*
X3900000Y2150000D03*
X3950000Y2550000D03*
Y2850000D03*
X3850000Y3575000D03*
Y3675000D03*
Y3775000D03*
Y3875000D03*
X3900000Y4200000D03*
X4050000Y150000D03*
X4100000Y700000D03*
X4125000Y1125000D03*
Y1275000D03*
X4200000Y1800000D03*
X4100000Y1975000D03*
X4250000Y150000D03*
Y775000D03*
X4400000Y2150000D03*
X4496000Y150000D03*
Y703200D03*
X4425000Y1050000D03*
Y1175000D03*
X4475000Y1325000D03*
Y1425000D03*
X4500000Y2625000D03*
Y2775000D03*
X4623000Y150000D03*
X4750000D03*
X4623000Y703200D03*
X4750000D03*
Y950000D03*
Y2150000D03*
X4775000Y2700000D03*
X4925000Y400000D03*
X4950000Y950000D03*
Y2150000D03*
X4800000Y2450000D03*
Y2950000D03*
X5004000Y150000D03*
X5150000D03*
X5004000Y703200D03*
X5150000Y950000D03*
X5025000Y1225000D03*
X5075000D03*
X5125000D03*
X5025000Y1700000D03*
Y1875000D03*
X5075000D03*
X5125000D03*
X5150000Y2150000D03*
Y4350000D03*
X5350000Y150000D03*
Y350000D03*
Y550000D03*
Y750000D03*
Y950000D03*
Y1325000D03*
X5267400Y1543170D03*
Y1656840D03*
X5350000Y2150000D03*
Y2350000D03*
Y2550000D03*
Y2750000D03*
Y2950000D03*
Y3150000D03*
Y3350000D03*
Y3550000D03*
Y3750000D03*
Y3950000D03*
Y4150000D03*
Y4350000D03*
G54D13*
X2215000Y325000D03*
X2469000D03*
X2723000D03*
X2977000D03*
X3231000D03*
X3485000D03*
X4394000Y3923000D03*
Y4177000D03*
X4648000Y3923000D03*
Y4177000D03*
X4902000Y3923000D03*
Y4177000D03*
X5175000Y2571000D03*
Y2825000D03*
Y3079000D03*
X5156000Y3923000D03*
Y4177000D03*
G54D14*
X4927500Y1118000D03*
Y1982000D03*
G54D15*
X5327500Y1118000D03*
Y1982000D03*
G54D16*
G01X4025000Y3475000D02*
X3750000Y3200000D01*
Y2700000D01*
X3700000Y2650000D01*
X3650000D01*
G54D17*
G01X418670Y-368000D02*
X432660Y-386670D01*
X451330Y-397330D01*
X472330Y-400000D01*
X491000Y-397330D01*
X509670Y-384000D01*
X521330Y-368000D01*
X523670Y-352000D01*
X519000Y-333340D01*
X502670Y-320000D01*
X486330Y-314670D01*
X465330D01*
G01X486330D02*
X500330Y-306670D01*
X512000Y-293340D01*
X516670Y-277340D01*
X512000Y-261330D01*
X500330Y-248000D01*
X479330Y-240000D01*
X458330Y-242670D01*
X437330Y-253340D01*
G01X5442000Y-240000D02*
X5498000D01*
G01X5470000D02*
Y-400000D01*
G01X5442000D02*
X5498000D01*
G01X5626330D02*
Y-240000D01*
X5733670Y-400000D01*
Y-240000D01*
G01X5838670Y-368000D02*
X5852660Y-386670D01*
X5871330Y-397330D01*
X5892330Y-400000D01*
X5911000Y-397330D01*
X5929670Y-384000D01*
X5941330Y-368000D01*
X5943670Y-352000D01*
X5939000Y-333340D01*
X5922670Y-320000D01*
X5906330Y-314670D01*
X5885330D01*
G01X5906330D02*
X5920330Y-306670D01*
X5932000Y-293340D01*
X5936670Y-277340D01*
X5932000Y-261330D01*
X5920330Y-248000D01*
X5899330Y-240000D01*
X5878330Y-242670D01*
X5857330Y-253340D01*
G01X6263330Y-240000D02*
Y-400000D01*
X6356670D01*
G01X6461660D02*
X6520000Y-240000D01*
X6578340Y-400000D01*
G01X6557330Y-344000D02*
X6482660D01*
G01X6730000Y-400000D02*
Y-328000D01*
X6683330Y-240000D01*
G01X6776670D02*
X6730000Y-328000D01*
G01X6986670Y-400000D02*
X6893330D01*
Y-240000D01*
X6986670D01*
G01X6949330Y-317330D02*
X6893330D01*
G01X7103330Y-400000D02*
Y-240000D01*
X7161670D01*
X7180330Y-248000D01*
X7192000Y-258670D01*
X7196670Y-280000D01*
X7192000Y-301330D01*
X7178000Y-314670D01*
X7161670Y-322670D01*
X7103330D01*
G01X7161670D02*
X7196670Y-400000D01*
G54D18*
G01X4648000Y4177000D02*
Y3923000D01*
G01X5156000Y4177000D02*
Y3923000D01*
M02*
